<svg width="229" height="147" viewBox="0 0 229 147" fill="none" xmlns="http://www.w3.org/2000/svg">
<line x1="222.5" y1="65.3418" x2="0.456329" y2="65.3418" stroke="#DBDBDB" stroke-width="2"/>
<path d="M3.95441 46.3418V42.3645L16.2591 29.6159C17.573 28.231 18.6561 27.0177 19.5084 25.976C20.3725 24.9225 21.0176 23.9223 21.4438 22.9753C21.8699 22.0283 22.083 21.0222 22.083 19.9569C22.083 18.7495 21.7989 17.7078 21.2307 16.8319C20.6625 15.9441 19.8872 15.2634 18.9047 14.79C17.9222 14.3046 16.8154 14.062 15.5844 14.062C14.2823 14.062 13.1459 14.3283 12.1753 14.861C11.2046 15.3936 10.4589 16.1453 9.93808 17.1159C9.41724 18.0866 9.15683 19.223 9.15683 20.525H3.9189C3.9189 18.3115 4.4279 16.3761 5.44589 14.7189C6.46388 13.0617 7.86066 11.7774 9.63623 10.8659C11.4118 9.94265 13.43 9.481 15.6909 9.481C17.9755 9.481 19.9878 9.93673 21.7279 10.8482C23.4797 11.7478 24.8469 12.9789 25.8294 14.5414C26.8119 16.092 27.3031 17.8439 27.3031 19.7971C27.3031 21.1465 27.0486 22.4663 26.5396 23.7566C26.0425 25.0468 25.1725 26.485 23.9296 28.0712C22.6867 29.6455 20.9584 31.5572 18.7449 33.8063L11.5183 41.3702V41.6365H27.8891V46.3418H3.95441ZM44.5283 46.9455C41.7229 46.9337 39.3259 46.1938 37.3372 44.726C35.3486 43.2582 33.8275 41.1216 32.774 38.3162C31.7205 35.5108 31.1938 32.1313 31.1938 28.1777C31.1938 24.236 31.7205 20.8683 32.774 18.0748C33.8394 15.2812 35.3663 13.1505 37.355 11.6827C39.3555 10.2149 41.7466 9.481 44.5283 9.481C47.31 9.481 49.6952 10.2208 51.6838 11.7005C53.6725 13.1683 55.1935 15.2989 56.247 18.0925C57.3124 20.8742 57.845 24.236 57.845 28.1777C57.845 32.1432 57.3183 35.5286 56.2648 38.334C55.2113 41.1275 53.6902 43.2641 51.7016 44.7438C49.7129 46.2116 47.3218 46.9455 44.5283 46.9455ZM44.5283 42.2047C46.9904 42.2047 48.9139 41.0033 50.2989 38.6003C51.6957 36.1974 52.394 32.7232 52.394 28.1777C52.394 25.1593 52.0744 22.6084 51.4352 20.525C50.8079 18.4299 49.9023 16.8437 48.7186 15.7665C47.5467 14.6775 46.15 14.133 44.5283 14.133C42.078 14.133 40.1545 15.3404 38.7577 17.7551C37.3609 20.1699 36.6566 23.6441 36.6448 28.1777C36.6448 31.208 36.9584 33.7708 37.5858 35.8659C38.225 37.9493 39.1305 39.5295 40.3024 40.6067C41.4743 41.6721 42.8829 42.2047 44.5283 42.2047ZM75.19 9.97816V46.3418H69.6858V15.4824H69.4727L60.7724 21.1642V15.9086L69.8456 9.97816H75.19ZM94.972 46.839C93.3503 46.8153 91.7523 46.5194 90.178 45.9512C88.6155 45.383 87.195 44.436 85.9166 43.1103C84.6382 41.7845 83.6143 40.003 82.8449 37.7658C82.0873 35.5286 81.7085 32.735 81.7085 29.3851C81.7085 26.2128 82.0222 23.3955 82.6495 20.9334C83.2888 18.4713 84.2061 16.3939 85.4017 14.7012C86.5972 12.9966 88.0414 11.7005 89.7341 10.8127C91.4268 9.92489 93.3266 9.481 95.4336 9.481C97.5998 9.481 99.5234 9.90714 101.204 10.7594C102.885 11.6117 104.246 12.7895 105.288 14.2928C106.342 15.7961 107.01 17.5066 107.294 19.4242H101.879C101.512 17.909 100.784 16.6721 99.695 15.7132C98.606 14.7544 97.1855 14.275 95.4336 14.275C92.7703 14.275 90.6929 15.4351 89.2014 17.7551C87.7218 20.0752 86.976 23.3008 86.9642 27.432H87.2305C87.8579 26.4022 88.6273 25.5262 89.5388 24.8042C90.462 24.0703 91.4919 23.508 92.6282 23.1174C93.7764 22.7149 94.9838 22.5137 96.2504 22.5137C98.3574 22.5137 100.263 23.0286 101.968 24.0584C103.684 25.0764 105.051 26.485 106.069 28.2843C107.087 30.0835 107.596 32.1432 107.596 34.4632C107.596 36.7833 107.07 38.8844 106.016 40.7665C104.974 42.6486 103.507 44.1401 101.613 45.2409C99.7187 46.33 97.5051 46.8626 94.972 46.839ZM94.9542 42.2225C96.351 42.2225 97.5998 41.8792 98.7007 41.1926C99.8015 40.5061 100.672 39.5828 101.311 38.4228C101.95 37.2627 102.27 35.9666 102.27 34.5343C102.27 33.1375 101.956 31.865 101.329 30.7168C100.713 29.5686 99.8607 28.6571 98.7717 27.9824C97.6945 27.3077 96.4635 26.9703 95.0785 26.9703C94.025 26.9703 93.0485 27.1716 92.1488 27.574C91.2611 27.9765 90.4798 28.5328 89.8051 29.2431C89.1304 29.9533 88.5977 30.7701 88.2071 31.6934C87.8283 32.6048 87.6389 33.5695 87.6389 34.5875C87.6389 35.9488 87.9526 37.2095 88.5799 38.3695C89.2191 39.5295 90.0892 40.4647 91.19 41.1749C92.3027 41.8733 93.5575 42.2225 94.9542 42.2225Z" fill="url(#paint0_linear_2_3000)"/>
<path d="M75.2038 100C75.0788 99.6174 74.914 99.2746 74.7095 98.9716C74.5087 98.6648 74.2682 98.4034 73.9879 98.1875C73.7114 97.9716 73.397 97.8068 73.0447 97.6932C72.6924 97.5795 72.3061 97.5227 71.8856 97.5227C71.1962 97.5227 70.5693 97.7008 70.0049 98.0568C69.4405 98.4129 68.9917 98.9375 68.6583 99.6307C68.325 100.324 68.1583 101.174 68.1583 102.182C68.1583 103.189 68.3269 104.04 68.664 104.733C69.0011 105.426 69.4576 105.951 70.0333 106.307C70.6091 106.663 71.2568 106.841 71.9765 106.841C72.6432 106.841 73.2303 106.699 73.7379 106.415C74.2493 106.127 74.647 105.722 74.9311 105.199C75.219 104.672 75.3629 104.053 75.3629 103.341L75.7947 103.432H72.2947V102.182H76.7265V103.432C76.7265 104.39 76.522 105.223 76.1129 105.932C75.7076 106.64 75.147 107.189 74.4311 107.58C73.719 107.966 72.9008 108.159 71.9765 108.159C70.9462 108.159 70.0409 107.917 69.2606 107.432C68.4841 106.947 67.878 106.258 67.4424 105.364C67.0106 104.47 66.7947 103.409 66.7947 102.182C66.7947 101.261 66.9178 100.434 67.164 99.6989C67.414 98.9602 67.7663 98.3314 68.2208 97.8125C68.6754 97.2936 69.2133 96.8958 69.8345 96.6193C70.4557 96.3428 71.1394 96.2045 71.8856 96.2045C72.4993 96.2045 73.0712 96.2973 73.6015 96.483C74.1356 96.6648 74.611 96.9242 75.0277 97.2614C75.4481 97.5947 75.7985 97.9943 76.0788 98.4602C76.3591 98.9223 76.5523 99.4356 76.6583 100H75.2038ZM81.8508 108H78.2599V96.3636H82.0099C83.1387 96.3636 84.1046 96.5966 84.9076 97.0625C85.7106 97.5246 86.3262 98.1894 86.7542 99.0568C87.1822 99.9205 87.3962 100.955 87.3962 102.159C87.3962 103.371 87.1803 104.415 86.7485 105.29C86.3167 106.161 85.6879 106.831 84.8622 107.301C84.0364 107.767 83.0326 108 81.8508 108ZM79.669 106.75H81.7599C82.722 106.75 83.5193 106.564 84.1519 106.193C84.7845 105.822 85.2561 105.294 85.5667 104.608C85.8773 103.922 86.0326 103.106 86.0326 102.159C86.0326 101.22 85.8792 100.411 85.5724 99.733C85.2656 99.0511 84.8072 98.5284 84.1974 98.1648C83.5875 97.7973 82.8281 97.6136 81.919 97.6136H79.669V106.75ZM88.8799 108V96.3636H92.8117C93.7246 96.3636 94.4708 96.5284 95.0503 96.858C95.6337 97.1837 96.0655 97.625 96.3458 98.1818C96.6261 98.7386 96.7662 99.3598 96.7662 100.045C96.7662 100.731 96.6261 101.354 96.3458 101.915C96.0693 102.475 95.6412 102.922 95.0617 103.256C94.4822 103.585 93.7397 103.75 92.8344 103.75H90.0162V102.5H92.789C93.414 102.5 93.9159 102.392 94.2947 102.176C94.6734 101.96 94.9481 101.669 95.1185 101.301C95.2928 100.93 95.3799 100.511 95.3799 100.045C95.3799 99.5795 95.2928 99.1629 95.1185 98.7955C94.9481 98.428 94.6715 98.1402 94.289 97.9318C93.9064 97.7197 93.3988 97.6136 92.7662 97.6136H90.289V108H88.8799ZM98.1561 108V96.3636H102.088C102.997 96.3636 103.743 96.5189 104.327 96.8295C104.91 97.1364 105.342 97.5587 105.622 98.0966C105.902 98.6345 106.042 99.2462 106.042 99.9318C106.042 100.617 105.902 101.225 105.622 101.756C105.342 102.286 104.912 102.703 104.332 103.006C103.753 103.305 103.012 103.455 102.111 103.455H98.9289V102.182H102.065C102.686 102.182 103.186 102.091 103.565 101.909C103.948 101.727 104.224 101.47 104.395 101.136C104.569 100.799 104.656 100.398 104.656 99.9318C104.656 99.4659 104.569 99.0587 104.395 98.7102C104.221 98.3617 103.942 98.0928 103.56 97.9034C103.177 97.7102 102.671 97.6136 102.042 97.6136H99.5652V108H98.1561ZM103.633 102.773L106.497 108H104.861L102.042 102.773H103.633ZM113.517 108.205C112.964 108.205 112.462 108.1 112.011 107.892C111.56 107.68 111.202 107.375 110.937 106.977C110.672 106.576 110.54 106.091 110.54 105.523C110.54 105.023 110.638 104.617 110.835 104.307C111.032 103.992 111.295 103.746 111.625 103.568C111.954 103.39 112.318 103.258 112.716 103.17C113.117 103.08 113.521 103.008 113.926 102.955C114.456 102.886 114.886 102.835 115.216 102.801C115.549 102.763 115.791 102.701 115.943 102.614C116.098 102.527 116.176 102.375 116.176 102.159V102.114C116.176 101.553 116.023 101.117 115.716 100.807C115.413 100.496 114.952 100.341 114.335 100.341C113.695 100.341 113.193 100.481 112.829 100.761C112.466 101.042 112.21 101.341 112.062 101.659L110.79 101.205C111.017 100.674 111.32 100.261 111.699 99.9659C112.081 99.6667 112.498 99.4583 112.949 99.3409C113.403 99.2197 113.85 99.1591 114.29 99.1591C114.57 99.1591 114.892 99.1932 115.256 99.2614C115.623 99.3258 115.977 99.4602 116.318 99.6648C116.663 99.8693 116.949 100.178 117.176 100.591C117.403 101.004 117.517 101.557 117.517 102.25V108H116.176V106.818H116.108C116.017 107.008 115.865 107.21 115.653 107.426C115.441 107.642 115.159 107.826 114.807 107.977C114.454 108.129 114.024 108.205 113.517 108.205ZM113.721 107C114.252 107 114.699 106.896 115.062 106.688C115.43 106.479 115.706 106.21 115.892 105.881C116.081 105.551 116.176 105.205 116.176 104.841V103.614C116.119 103.682 115.994 103.744 115.801 103.801C115.612 103.854 115.392 103.902 115.142 103.943C114.896 103.981 114.655 104.015 114.42 104.045C114.189 104.072 114.002 104.095 113.858 104.114C113.509 104.159 113.184 104.233 112.881 104.335C112.581 104.434 112.339 104.583 112.153 104.784C111.971 104.981 111.881 105.25 111.881 105.591C111.881 106.057 112.053 106.409 112.398 106.648C112.746 106.883 113.187 107 113.721 107ZM122.38 108.182C121.652 108.182 121.01 107.998 120.454 107.631C119.897 107.259 119.461 106.737 119.147 106.062C118.832 105.384 118.675 104.583 118.675 103.659C118.675 102.742 118.832 101.947 119.147 101.273C119.461 100.598 119.899 100.078 120.459 99.7102C121.02 99.3428 121.668 99.1591 122.402 99.1591C122.971 99.1591 123.42 99.2538 123.749 99.4432C124.082 99.6288 124.336 99.8409 124.51 100.08C124.688 100.314 124.827 100.508 124.925 100.659H125.039V96.3636H126.38V108H125.084V106.659H124.925C124.827 106.818 124.687 107.019 124.505 107.261C124.323 107.5 124.063 107.714 123.726 107.903C123.389 108.089 122.94 108.182 122.38 108.182ZM122.562 106.977C123.099 106.977 123.554 106.837 123.925 106.557C124.296 106.273 124.579 105.881 124.772 105.381C124.965 104.877 125.062 104.295 125.062 103.636C125.062 102.985 124.967 102.415 124.777 101.926C124.588 101.434 124.308 101.051 123.937 100.778C123.565 100.502 123.107 100.364 122.562 100.364C121.993 100.364 121.52 100.509 121.141 100.801C120.766 101.089 120.484 101.481 120.295 101.977C120.109 102.47 120.016 103.023 120.016 103.636C120.016 104.258 120.111 104.822 120.3 105.33C120.493 105.833 120.777 106.235 121.152 106.534C121.531 106.83 122.001 106.977 122.562 106.977ZM131.687 108.182C130.899 108.182 130.208 107.994 129.613 107.619C129.022 107.244 128.56 106.72 128.227 106.045C127.897 105.371 127.733 104.583 127.733 103.682C127.733 102.773 127.897 101.979 128.227 101.301C128.56 100.623 129.022 100.097 129.613 99.7216C130.208 99.3466 130.899 99.1591 131.687 99.1591C132.475 99.1591 133.165 99.3466 133.755 99.7216C134.35 100.097 134.812 100.623 135.142 101.301C135.475 101.979 135.642 102.773 135.642 103.682C135.642 104.583 135.475 105.371 135.142 106.045C134.812 106.72 134.35 107.244 133.755 107.619C133.165 107.994 132.475 108.182 131.687 108.182ZM131.687 106.977C132.286 106.977 132.778 106.824 133.165 106.517C133.551 106.21 133.837 105.807 134.022 105.307C134.208 104.807 134.301 104.265 134.301 103.682C134.301 103.098 134.208 102.555 134.022 102.051C133.837 101.547 133.551 101.14 133.165 100.83C132.778 100.519 132.286 100.364 131.687 100.364C131.089 100.364 130.596 100.519 130.21 100.83C129.824 101.14 129.538 101.547 129.352 102.051C129.166 102.555 129.074 103.098 129.074 103.682C129.074 104.265 129.166 104.807 129.352 105.307C129.538 105.807 129.824 106.21 130.21 106.517C130.596 106.824 131.089 106.977 131.687 106.977ZM136.809 111.273V99.2727H138.104V100.659H138.263C138.362 100.508 138.498 100.314 138.672 100.08C138.85 99.8409 139.104 99.6288 139.434 99.4432C139.767 99.2538 140.218 99.1591 140.786 99.1591C141.521 99.1591 142.169 99.3428 142.729 99.7102C143.29 100.078 143.727 100.598 144.042 101.273C144.356 101.947 144.513 102.742 144.513 103.659C144.513 104.583 144.356 105.384 144.042 106.062C143.727 106.737 143.292 107.259 142.735 107.631C142.178 107.998 141.536 108.182 140.809 108.182C140.248 108.182 139.799 108.089 139.462 107.903C139.125 107.714 138.866 107.5 138.684 107.261C138.502 107.019 138.362 106.818 138.263 106.659H138.15V111.273H136.809ZM138.127 103.636C138.127 104.295 138.223 104.877 138.417 105.381C138.61 105.881 138.892 106.273 139.263 106.557C139.634 106.837 140.089 106.977 140.627 106.977C141.187 106.977 141.655 106.83 142.03 106.534C142.409 106.235 142.693 105.833 142.883 105.33C143.076 104.822 143.172 104.258 143.172 103.636C143.172 103.023 143.078 102.47 142.888 101.977C142.703 101.481 142.42 101.089 142.042 100.801C141.667 100.509 141.195 100.364 140.627 100.364C140.081 100.364 139.623 100.502 139.252 100.778C138.881 101.051 138.6 101.434 138.411 101.926C138.222 102.415 138.127 102.985 138.127 103.636ZM149.474 99.2727V100.409H144.951V99.2727H149.474ZM146.27 97.1818H147.611V105.5C147.611 105.879 147.665 106.163 147.775 106.352C147.889 106.538 148.033 106.663 148.207 106.727C148.385 106.788 148.573 106.818 148.77 106.818C148.917 106.818 149.039 106.811 149.133 106.795C149.228 106.777 149.304 106.761 149.361 106.75L149.633 107.955C149.542 107.989 149.415 108.023 149.253 108.057C149.09 108.095 148.883 108.114 148.633 108.114C148.254 108.114 147.883 108.032 147.52 107.869C147.16 107.706 146.861 107.458 146.622 107.125C146.387 106.792 146.27 106.371 146.27 105.864V97.1818ZM154.177 108.182C153.336 108.182 152.61 107.996 152 107.625C151.394 107.25 150.927 106.727 150.597 106.057C150.271 105.383 150.108 104.598 150.108 103.705C150.108 102.811 150.271 102.023 150.597 101.341C150.927 100.655 151.385 100.121 151.972 99.7386C152.563 99.3523 153.252 99.1591 154.04 99.1591C154.495 99.1591 154.944 99.2348 155.387 99.3864C155.83 99.5379 156.233 99.7841 156.597 100.125C156.961 100.462 157.25 100.909 157.466 101.466C157.682 102.023 157.79 102.708 157.79 103.523V104.091H151.063V102.932H156.427C156.427 102.439 156.328 102 156.131 101.614C155.938 101.227 155.661 100.922 155.302 100.699C154.945 100.475 154.525 100.364 154.04 100.364C153.506 100.364 153.044 100.496 152.654 100.761C152.267 101.023 151.97 101.364 151.762 101.784C151.553 102.205 151.449 102.655 151.449 103.136V103.909C151.449 104.568 151.563 105.127 151.79 105.585C152.021 106.04 152.341 106.386 152.75 106.625C153.159 106.86 153.635 106.977 154.177 106.977C154.529 106.977 154.847 106.928 155.131 106.83C155.419 106.727 155.667 106.576 155.875 106.375C156.084 106.17 156.245 105.917 156.358 105.614L157.654 105.977C157.517 106.417 157.288 106.803 156.966 107.136C156.644 107.466 156.247 107.723 155.773 107.909C155.3 108.091 154.767 108.182 154.177 108.182ZM162.245 108.182C161.518 108.182 160.876 107.998 160.319 107.631C159.762 107.259 159.327 106.737 159.012 106.062C158.698 105.384 158.541 104.583 158.541 103.659C158.541 102.742 158.698 101.947 159.012 101.273C159.327 100.598 159.764 100.078 160.325 99.7102C160.886 99.3428 161.533 99.1591 162.268 99.1591C162.836 99.1591 163.285 99.2538 163.615 99.4432C163.948 99.6288 164.202 99.8409 164.376 100.08C164.554 100.314 164.692 100.508 164.791 100.659H164.904V96.3636H166.245V108H164.95V106.659H164.791C164.692 106.818 164.552 107.019 164.37 107.261C164.189 107.5 163.929 107.714 163.592 107.903C163.255 108.089 162.806 108.182 162.245 108.182ZM162.427 106.977C162.965 106.977 163.42 106.837 163.791 106.557C164.162 106.273 164.444 105.881 164.637 105.381C164.831 104.877 164.927 104.295 164.927 103.636C164.927 102.985 164.833 102.415 164.643 101.926C164.454 101.434 164.173 101.051 163.802 100.778C163.431 100.502 162.973 100.364 162.427 100.364C161.859 100.364 161.386 100.509 161.007 100.801C160.632 101.089 160.35 101.481 160.16 101.977C159.975 102.47 159.882 103.023 159.882 103.636C159.882 104.258 159.976 104.822 160.166 105.33C160.359 105.833 160.643 106.235 161.018 106.534C161.397 106.83 161.867 106.977 162.427 106.977ZM171.809 108V96.3636H173.15V100.659H173.264C173.362 100.508 173.499 100.314 173.673 100.08C173.851 99.8409 174.105 99.6288 174.434 99.4432C174.768 99.2538 175.218 99.1591 175.787 99.1591C176.521 99.1591 177.169 99.3428 177.73 99.7102C178.29 100.078 178.728 100.598 179.042 101.273C179.357 101.947 179.514 102.742 179.514 103.659C179.514 104.583 179.357 105.384 179.042 106.062C178.728 106.737 178.292 107.259 177.735 107.631C177.179 107.998 176.537 108.182 175.809 108.182C175.249 108.182 174.8 108.089 174.463 107.903C174.126 107.714 173.866 107.5 173.684 107.261C173.502 107.019 173.362 106.818 173.264 106.659H173.105V108H171.809ZM173.127 103.636C173.127 104.295 173.224 104.877 173.417 105.381C173.61 105.881 173.893 106.273 174.264 106.557C174.635 106.837 175.09 106.977 175.627 106.977C176.188 106.977 176.656 106.83 177.031 106.534C177.41 106.235 177.694 105.833 177.883 105.33C178.076 104.822 178.173 104.258 178.173 103.636C178.173 103.023 178.078 102.47 177.889 101.977C177.703 101.481 177.421 101.089 177.042 100.801C176.667 100.509 176.196 100.364 175.627 100.364C175.082 100.364 174.624 100.502 174.252 100.778C173.881 101.051 173.601 101.434 173.412 101.926C173.222 102.415 173.127 102.985 173.127 103.636ZM181.236 111.273C181.009 111.273 180.806 111.254 180.628 111.216C180.45 111.182 180.327 111.148 180.259 111.114L180.6 109.932C180.925 110.015 181.213 110.045 181.463 110.023C181.713 110 181.935 109.888 182.128 109.688C182.325 109.491 182.505 109.17 182.668 108.727L182.918 108.045L179.691 99.2727H181.145L183.554 106.227H183.645L186.054 99.2727H187.509L183.804 109.273C183.638 109.723 183.431 110.097 183.185 110.392C182.939 110.691 182.653 110.913 182.327 111.057C182.005 111.201 181.641 111.273 181.236 111.273ZM195.814 99.2727V100.409H191.291V99.2727H195.814ZM192.61 97.1818H193.951V105.5C193.951 105.879 194.005 106.163 194.115 106.352C194.229 106.538 194.373 106.663 194.547 106.727C194.725 106.788 194.913 106.818 195.11 106.818C195.257 106.818 195.379 106.811 195.473 106.795C195.568 106.777 195.644 106.761 195.701 106.75L195.973 107.955C195.882 107.989 195.755 108.023 195.593 108.057C195.43 108.095 195.223 108.114 194.973 108.114C194.594 108.114 194.223 108.032 193.86 107.869C193.5 107.706 193.201 107.458 192.962 107.125C192.727 106.792 192.61 106.371 192.61 105.864V97.1818ZM198.48 102.75V108H197.139V96.3636H198.48V100.636H198.593C198.798 100.186 199.105 99.8277 199.514 99.5625C199.927 99.2936 200.476 99.1591 201.161 99.1591C201.756 99.1591 202.277 99.2784 202.724 99.517C203.171 99.7519 203.517 100.114 203.764 100.602C204.014 101.087 204.139 101.705 204.139 102.455V108H202.798V102.545C202.798 101.852 202.618 101.316 202.258 100.938C201.902 100.555 201.408 100.364 200.775 100.364C200.336 100.364 199.942 100.456 199.593 100.642C199.249 100.828 198.976 101.098 198.775 101.455C198.578 101.811 198.48 102.242 198.48 102.75ZM209.371 108.182C208.53 108.182 207.805 107.996 207.195 107.625C206.589 107.25 206.121 106.727 205.791 106.057C205.466 105.383 205.303 104.598 205.303 103.705C205.303 102.811 205.466 102.023 205.791 101.341C206.121 100.655 206.579 100.121 207.166 99.7386C207.757 99.3523 208.447 99.1591 209.235 99.1591C209.689 99.1591 210.138 99.2348 210.581 99.3864C211.024 99.5379 211.428 99.7841 211.791 100.125C212.155 100.462 212.445 100.909 212.661 101.466C212.877 102.023 212.985 102.708 212.985 103.523V104.091H206.257V102.932H211.621C211.621 102.439 211.522 102 211.325 101.614C211.132 101.227 210.856 100.922 210.496 100.699C210.14 100.475 209.719 100.364 209.235 100.364C208.7 100.364 208.238 100.496 207.848 100.761C207.462 101.023 207.164 101.364 206.956 101.784C206.748 102.205 206.644 102.655 206.644 103.136V103.909C206.644 104.568 206.757 105.127 206.985 105.585C207.216 106.04 207.536 106.386 207.945 106.625C208.354 106.86 208.829 106.977 209.371 106.977C209.723 106.977 210.041 106.928 210.325 106.83C210.613 106.727 210.861 106.576 211.07 106.375C211.278 106.17 211.439 105.917 211.553 105.614L212.848 105.977C212.712 106.417 212.483 106.803 212.161 107.136C211.839 107.466 211.441 107.723 210.967 107.909C210.494 108.091 209.962 108.182 209.371 108.182ZM99.0105 135V123.364H106.033V124.614H100.42V128.545H105.67V129.795H100.42V133.75H106.124V135H99.0105ZM113.011 131.432V126.273H114.352V135H113.011V133.523H112.92C112.716 133.966 112.398 134.343 111.966 134.653C111.534 134.96 110.988 135.114 110.329 135.114C109.784 135.114 109.299 134.994 108.875 134.756C108.451 134.513 108.117 134.15 107.875 133.665C107.632 133.176 107.511 132.561 107.511 131.818V126.273H108.852V131.727C108.852 132.364 109.03 132.871 109.386 133.25C109.746 133.629 110.204 133.818 110.761 133.818C111.095 133.818 111.434 133.733 111.778 133.562C112.127 133.392 112.418 133.131 112.653 132.778C112.892 132.426 113.011 131.977 113.011 131.432ZM115.928 135V126.273H117.224V127.591H117.314C117.474 127.159 117.761 126.809 118.178 126.54C118.595 126.271 119.064 126.136 119.587 126.136C119.686 126.136 119.809 126.138 119.956 126.142C120.104 126.146 120.216 126.152 120.292 126.159V127.523C120.246 127.511 120.142 127.494 119.979 127.472C119.82 127.445 119.652 127.432 119.474 127.432C119.049 127.432 118.67 127.521 118.337 127.699C118.008 127.873 117.746 128.116 117.553 128.426C117.364 128.733 117.269 129.083 117.269 129.477V135H115.928ZM124.281 135.182C123.493 135.182 122.802 134.994 122.207 134.619C121.616 134.244 121.154 133.72 120.821 133.045C120.491 132.371 120.326 131.583 120.326 130.682C120.326 129.773 120.491 128.979 120.821 128.301C121.154 127.623 121.616 127.097 122.207 126.722C122.802 126.347 123.493 126.159 124.281 126.159C125.069 126.159 125.758 126.347 126.349 126.722C126.944 127.097 127.406 127.623 127.736 128.301C128.069 128.979 128.236 129.773 128.236 130.682C128.236 131.583 128.069 132.371 127.736 133.045C127.406 133.72 126.944 134.244 126.349 134.619C125.758 134.994 125.069 135.182 124.281 135.182ZM124.281 133.977C124.879 133.977 125.372 133.824 125.758 133.517C126.145 133.21 126.431 132.807 126.616 132.307C126.802 131.807 126.895 131.265 126.895 130.682C126.895 130.098 126.802 129.555 126.616 129.051C126.431 128.547 126.145 128.14 125.758 127.83C125.372 127.519 124.879 127.364 124.281 127.364C123.683 127.364 123.19 127.519 122.804 127.83C122.417 128.14 122.131 128.547 121.946 129.051C121.76 129.555 121.667 130.098 121.667 130.682C121.667 131.265 121.76 131.807 121.946 132.307C122.131 132.807 122.417 133.21 122.804 133.517C123.19 133.824 123.683 133.977 124.281 133.977ZM129.402 138.273V126.273H130.698V127.659H130.857C130.955 127.508 131.092 127.314 131.266 127.08C131.444 126.841 131.698 126.629 132.027 126.443C132.361 126.254 132.812 126.159 133.38 126.159C134.115 126.159 134.762 126.343 135.323 126.71C135.883 127.078 136.321 127.598 136.635 128.273C136.95 128.947 137.107 129.742 137.107 130.659C137.107 131.583 136.95 132.384 136.635 133.062C136.321 133.737 135.885 134.259 135.329 134.631C134.772 134.998 134.13 135.182 133.402 135.182C132.842 135.182 132.393 135.089 132.056 134.903C131.719 134.714 131.459 134.5 131.277 134.261C131.096 134.019 130.955 133.818 130.857 133.659H130.743V138.273H129.402ZM130.721 130.636C130.721 131.295 130.817 131.877 131.01 132.381C131.204 132.881 131.486 133.273 131.857 133.557C132.228 133.837 132.683 133.977 133.221 133.977C133.781 133.977 134.249 133.83 134.624 133.534C135.003 133.235 135.287 132.833 135.476 132.33C135.669 131.822 135.766 131.258 135.766 130.636C135.766 130.023 135.671 129.47 135.482 128.977C135.296 128.481 135.014 128.089 134.635 127.801C134.26 127.509 133.789 127.364 133.221 127.364C132.675 127.364 132.217 127.502 131.846 127.778C131.474 128.051 131.194 128.434 131.005 128.926C130.815 129.415 130.721 129.985 130.721 130.636ZM141.932 135.182C141.091 135.182 140.365 134.996 139.755 134.625C139.149 134.25 138.682 133.727 138.352 133.057C138.026 132.383 137.863 131.598 137.863 130.705C137.863 129.811 138.026 129.023 138.352 128.341C138.682 127.655 139.14 127.121 139.727 126.739C140.318 126.352 141.007 126.159 141.795 126.159C142.25 126.159 142.699 126.235 143.142 126.386C143.585 126.538 143.988 126.784 144.352 127.125C144.716 127.462 145.005 127.909 145.221 128.466C145.437 129.023 145.545 129.708 145.545 130.523V131.091H138.818V129.932H144.182C144.182 129.439 144.083 129 143.886 128.614C143.693 128.227 143.416 127.922 143.057 127.699C142.7 127.475 142.28 127.364 141.795 127.364C141.261 127.364 140.799 127.496 140.409 127.761C140.022 128.023 139.725 128.364 139.517 128.784C139.308 129.205 139.204 129.655 139.204 130.136V130.909C139.204 131.568 139.318 132.127 139.545 132.585C139.776 133.04 140.096 133.386 140.505 133.625C140.914 133.86 141.39 133.977 141.932 133.977C142.284 133.977 142.602 133.928 142.886 133.83C143.174 133.727 143.422 133.576 143.63 133.375C143.839 133.17 144 132.917 144.113 132.614L145.409 132.977C145.272 133.417 145.043 133.803 144.721 134.136C144.399 134.466 144.002 134.723 143.528 134.909C143.055 135.091 142.522 135.182 141.932 135.182ZM149.273 135.205C148.72 135.205 148.218 135.1 147.767 134.892C147.317 134.68 146.959 134.375 146.694 133.977C146.428 133.576 146.296 133.091 146.296 132.523C146.296 132.023 146.394 131.617 146.591 131.307C146.788 130.992 147.052 130.746 147.381 130.568C147.711 130.39 148.074 130.258 148.472 130.17C148.873 130.08 149.277 130.008 149.682 129.955C150.213 129.886 150.642 129.835 150.972 129.801C151.305 129.763 151.548 129.701 151.699 129.614C151.855 129.527 151.932 129.375 151.932 129.159V129.114C151.932 128.553 151.779 128.117 151.472 127.807C151.169 127.496 150.709 127.341 150.091 127.341C149.451 127.341 148.949 127.481 148.586 127.761C148.222 128.042 147.966 128.341 147.819 128.659L146.546 128.205C146.773 127.674 147.076 127.261 147.455 126.966C147.838 126.667 148.254 126.458 148.705 126.341C149.159 126.22 149.606 126.159 150.046 126.159C150.326 126.159 150.648 126.193 151.012 126.261C151.379 126.326 151.733 126.46 152.074 126.665C152.419 126.869 152.705 127.178 152.932 127.591C153.159 128.004 153.273 128.557 153.273 129.25V135H151.932V133.818H151.864C151.773 134.008 151.622 134.21 151.409 134.426C151.197 134.642 150.915 134.826 150.563 134.977C150.211 135.129 149.781 135.205 149.273 135.205ZM149.478 134C150.008 134 150.455 133.896 150.819 133.688C151.186 133.479 151.463 133.21 151.648 132.881C151.838 132.551 151.932 132.205 151.932 131.841V130.614C151.875 130.682 151.75 130.744 151.557 130.801C151.368 130.854 151.148 130.902 150.898 130.943C150.652 130.981 150.411 131.015 150.177 131.045C149.945 131.072 149.758 131.095 149.614 131.114C149.266 131.159 148.94 131.233 148.637 131.335C148.338 131.434 148.095 131.583 147.909 131.784C147.728 131.981 147.637 132.25 147.637 132.591C147.637 133.057 147.809 133.409 148.154 133.648C148.502 133.883 148.944 134 149.478 134ZM156.181 129.75V135H154.841V126.273H156.136V127.636H156.25C156.454 127.193 156.765 126.837 157.181 126.568C157.598 126.295 158.136 126.159 158.795 126.159C159.386 126.159 159.903 126.28 160.346 126.523C160.789 126.761 161.134 127.125 161.38 127.614C161.627 128.098 161.75 128.712 161.75 129.455V135H160.409V129.545C160.409 128.86 160.231 128.326 159.875 127.943C159.519 127.557 159.03 127.364 158.409 127.364C157.981 127.364 157.598 127.456 157.261 127.642C156.928 127.828 156.664 128.098 156.471 128.455C156.278 128.811 156.181 129.242 156.181 129.75ZM174.758 123.364H176.167V131.068C176.167 131.864 175.98 132.574 175.605 133.199C175.233 133.82 174.709 134.311 174.031 134.67C173.353 135.027 172.557 135.205 171.644 135.205C170.732 135.205 169.936 135.027 169.258 134.67C168.58 134.311 168.054 133.82 167.679 133.199C167.307 132.574 167.122 131.864 167.122 131.068V123.364H168.531V130.955C168.531 131.523 168.656 132.028 168.906 132.472C169.156 132.911 169.512 133.258 169.974 133.511C170.44 133.761 170.997 133.886 171.644 133.886C172.292 133.886 172.849 133.761 173.315 133.511C173.781 133.258 174.137 132.911 174.383 132.472C174.633 132.028 174.758 131.523 174.758 130.955V123.364ZM179.26 129.75V135H177.919V126.273H179.215V127.636H179.328C179.533 127.193 179.844 126.837 180.26 126.568C180.677 126.295 181.215 126.159 181.874 126.159C182.465 126.159 182.982 126.28 183.425 126.523C183.868 126.761 184.213 127.125 184.459 127.614C184.705 128.098 184.828 128.712 184.828 129.455V135H183.487V129.545C183.487 128.86 183.309 128.326 182.953 127.943C182.597 127.557 182.109 127.364 181.487 127.364C181.059 127.364 180.677 127.456 180.34 127.642C180.006 127.828 179.743 128.098 179.55 128.455C179.357 128.811 179.26 129.242 179.26 129.75ZM186.399 135V126.273H187.74V135H186.399ZM187.081 124.818C186.819 124.818 186.594 124.729 186.404 124.551C186.219 124.373 186.126 124.159 186.126 123.909C186.126 123.659 186.219 123.445 186.404 123.267C186.594 123.089 186.819 123 187.081 123C187.342 123 187.565 123.089 187.751 123.267C187.94 123.445 188.035 123.659 188.035 123.909C188.035 124.159 187.94 124.373 187.751 124.551C187.565 124.729 187.342 124.818 187.081 124.818ZM192.861 135.182C192.073 135.182 191.382 134.994 190.787 134.619C190.196 134.244 189.734 133.72 189.401 133.045C189.071 132.371 188.906 131.583 188.906 130.682C188.906 129.773 189.071 128.979 189.401 128.301C189.734 127.623 190.196 127.097 190.787 126.722C191.382 126.347 192.073 126.159 192.861 126.159C193.649 126.159 194.338 126.347 194.929 126.722C195.524 127.097 195.986 127.623 196.316 128.301C196.649 128.979 196.816 129.773 196.816 130.682C196.816 131.583 196.649 132.371 196.316 133.045C195.986 133.72 195.524 134.244 194.929 134.619C194.338 134.994 193.649 135.182 192.861 135.182ZM192.861 133.977C193.459 133.977 193.952 133.824 194.338 133.517C194.725 133.21 195.011 132.807 195.196 132.307C195.382 131.807 195.475 131.265 195.475 130.682C195.475 130.098 195.382 129.555 195.196 129.051C195.011 128.547 194.725 128.14 194.338 127.83C193.952 127.519 193.459 127.364 192.861 127.364C192.263 127.364 191.77 127.519 191.384 127.83C190.997 128.14 190.711 128.547 190.526 129.051C190.34 129.555 190.247 130.098 190.247 130.682C190.247 131.265 190.34 131.807 190.526 132.307C190.711 132.807 190.997 133.21 191.384 133.517C191.77 133.824 192.263 133.977 192.861 133.977ZM199.323 129.75V135H197.982V126.273H199.278V127.636H199.392C199.596 127.193 199.907 126.837 200.323 126.568C200.74 126.295 201.278 126.159 201.937 126.159C202.528 126.159 203.045 126.28 203.488 126.523C203.931 126.761 204.276 127.125 204.522 127.614C204.768 128.098 204.892 128.712 204.892 129.455V135H203.551V129.545C203.551 128.86 203.373 128.326 203.017 127.943C202.66 127.557 202.172 127.364 201.551 127.364C201.123 127.364 200.74 127.456 200.403 127.642C200.07 127.828 199.806 128.098 199.613 128.455C199.42 128.811 199.323 129.242 199.323 129.75ZM207.439 135.091C207.159 135.091 206.918 134.991 206.717 134.79C206.517 134.589 206.416 134.348 206.416 134.068C206.416 133.788 206.517 133.547 206.717 133.347C206.918 133.146 207.159 133.045 207.439 133.045C207.719 133.045 207.96 133.146 208.161 133.347C208.361 133.547 208.462 133.788 208.462 134.068C208.462 134.254 208.414 134.424 208.32 134.58C208.229 134.735 208.106 134.86 207.95 134.955C207.799 135.045 207.628 135.091 207.439 135.091Z" fill="black"/>
<path d="M228.216 64.8418C228.216 67.8794 225.753 70.3418 222.716 70.3418C219.678 70.3418 217.216 67.8794 217.216 64.8418C217.216 61.8042 219.678 59.3418 222.716 59.3418C225.753 59.3418 228.216 61.8042 228.216 64.8418Z" fill="url(#paint1_linear_2_3000)"/>
<defs>
<linearGradient id="paint0_linear_2_3000" x1="21.4871" y1="11.8418" x2="92.9742" y2="45.1171" gradientUnits="userSpaceOnUse">
<stop stop-color="#00888F"/>
<stop offset="1" stop-color="#340031"/>
</linearGradient>
<linearGradient id="paint1_linear_2_3000" x1="221.9" y1="58.3418" x2="225.567" y2="69.3418" gradientUnits="userSpaceOnUse">
<stop offset="0.077397" stop-color="#00888F"/>
<stop offset="1" stop-color="#770370"/>
</linearGradient>
</defs>
</svg>
