<svg width="261" height="142" viewBox="0 0 261 142" fill="none" xmlns="http://www.w3.org/2000/svg">
<line x1="235.5" y1="65.3418" x2="8.5" y2="65.3418" stroke="#DBDBDB" stroke-width="2"/>
<path d="M128.998 46.3418V42.3645L141.303 29.6159C142.616 28.231 143.7 27.0177 144.552 25.976C145.416 24.9225 146.061 23.9223 146.487 22.9753C146.913 22.0283 147.126 21.0222 147.126 19.9569C147.126 18.7495 146.842 17.7078 146.274 16.8319C145.706 15.9441 144.931 15.2634 143.948 14.79C142.966 14.3046 141.859 14.062 140.628 14.062C139.326 14.062 138.189 14.3283 137.219 14.861C136.248 15.3936 135.502 16.1453 134.982 17.1159C134.461 18.0866 134.2 19.223 134.2 20.525H128.962C128.962 18.3115 129.471 16.3761 130.489 14.7189C131.507 13.0617 132.904 11.7774 134.68 10.8659C136.455 9.94265 138.473 9.481 140.734 9.481C143.019 9.481 145.031 9.93673 146.771 10.8482C148.523 11.7478 149.89 12.9789 150.873 14.5414C151.855 16.092 152.347 17.8439 152.347 19.7971C152.347 21.1465 152.092 22.4663 151.583 23.7566C151.086 25.0468 150.216 26.485 148.973 28.0712C147.73 29.6455 146.002 31.5572 143.788 33.8063L136.562 41.3702V41.6365H152.933V46.3418H128.998ZM169.572 46.9455C166.766 46.9337 164.369 46.1938 162.381 44.726C160.392 43.2582 158.871 41.1216 157.817 38.3162C156.764 35.5108 156.237 32.1313 156.237 28.1777C156.237 24.236 156.764 20.8683 157.817 18.0748C158.883 15.2812 160.41 13.1505 162.398 11.6827C164.399 10.2149 166.79 9.481 169.572 9.481C172.353 9.481 174.739 10.2208 176.727 11.7005C178.716 13.1683 180.237 15.2989 181.29 18.0925C182.356 20.8742 182.888 24.236 182.888 28.1777C182.888 32.1432 182.362 35.5286 181.308 38.334C180.255 41.1275 178.734 43.2641 176.745 44.7438C174.756 46.2116 172.365 46.9455 169.572 46.9455ZM169.572 42.2047C172.034 42.2047 173.957 41.0033 175.342 38.6003C176.739 36.1974 177.438 32.7232 177.438 28.1777C177.438 25.1593 177.118 22.6084 176.479 20.525C175.851 18.4299 174.946 16.8437 173.762 15.7665C172.59 14.6775 171.193 14.133 169.572 14.133C167.121 14.133 165.198 15.3404 163.801 17.7551C162.404 20.1699 161.7 23.6441 161.688 28.1777C161.688 31.208 162.002 33.7708 162.629 35.8659C163.268 37.9493 164.174 39.5295 165.346 40.6067C166.518 41.6721 167.926 42.2047 169.572 42.2047ZM200.233 9.97816V46.3418H194.729V15.4824H194.516L185.816 21.1642V15.9086L194.889 9.97816H200.233ZM208.545 46.3418L224.419 14.9498V14.6834H206.059V9.97816H230.101V14.8432L214.28 46.3418H208.545Z" fill="url(#paint0_linear_2_3001)"/>
<path d="M41.3864 102.342H39.9091L44.1818 90.7054H45.6364L49.9091 102.342H48.4318L44.9545 92.5463H44.8636L41.3864 102.342ZM41.9318 97.7963H47.8864V99.0463H41.9318V97.7963ZM50.6598 105.615V93.6145H51.9552V95.0009H52.1143C52.2128 94.8494 52.3492 94.6562 52.5234 94.4213C52.7014 94.1827 52.9552 93.9706 53.2848 93.785C53.6181 93.5956 54.0689 93.5009 54.637 93.5009C55.3719 93.5009 56.0196 93.6846 56.5802 94.052C57.1408 94.4194 57.5783 94.9403 57.8927 95.6145C58.2071 96.2888 58.3643 97.0842 58.3643 98.0009C58.3643 98.9251 58.2071 99.7263 57.8927 100.404C57.5783 101.079 57.1427 101.601 56.5859 101.972C56.0291 102.34 55.387 102.524 54.6598 102.524C54.0992 102.524 53.6503 102.431 53.3132 102.245C52.9761 102.056 52.7166 101.842 52.5348 101.603C52.353 101.361 52.2128 101.16 52.1143 101.001H52.0007V105.615H50.6598ZM51.978 97.9782C51.978 98.6373 52.0745 99.2187 52.2677 99.7225C52.4609 100.222 52.7431 100.615 53.1143 100.899C53.4855 101.179 53.9401 101.319 54.478 101.319C55.0386 101.319 55.5064 101.171 55.8814 100.876C56.2602 100.577 56.5442 100.175 56.7336 99.6713C56.9268 99.1638 57.0234 98.5994 57.0234 97.9782C57.0234 97.3645 56.9287 96.8115 56.7393 96.3191C56.5537 95.8229 56.2715 95.4308 55.8927 95.1429C55.5177 94.8513 55.0461 94.7054 54.478 94.7054C53.9325 94.7054 53.4742 94.8437 53.103 95.1202C52.7317 95.3929 52.4514 95.7755 52.262 96.2679C52.0727 96.7566 51.978 97.3266 51.978 97.9782ZM59.5298 105.615V93.6145H60.8252V95.0009H60.9843C61.0828 94.8494 61.2192 94.6562 61.3934 94.4213C61.5714 94.1827 61.8252 93.9706 62.1548 93.785C62.4881 93.5956 62.9389 93.5009 63.507 93.5009C64.2419 93.5009 64.8896 93.6846 65.4502 94.052C66.0108 94.4194 66.4483 94.9403 66.7627 95.6145C67.0771 96.2888 67.2343 97.0842 67.2343 98.0009C67.2343 98.9251 67.0771 99.7263 66.7627 100.404C66.4483 101.079 66.0127 101.601 65.4559 101.972C64.8991 102.34 64.257 102.524 63.5298 102.524C62.9692 102.524 62.5203 102.431 62.1832 102.245C61.8461 102.056 61.5866 101.842 61.4048 101.603C61.223 101.361 61.0828 101.16 60.9843 101.001H60.8707V105.615H59.5298ZM60.848 97.9782C60.848 98.6373 60.9445 99.2187 61.1377 99.7225C61.3309 100.222 61.6131 100.615 61.9843 100.899C62.3555 101.179 62.8101 101.319 63.348 101.319C63.9086 101.319 64.3764 101.171 64.7514 100.876C65.1302 100.577 65.4142 100.175 65.6036 99.6713C65.7968 99.1638 65.8934 98.5994 65.8934 97.9782C65.8934 97.3645 65.7987 96.8115 65.6093 96.3191C65.4237 95.8229 65.1415 95.4308 64.7627 95.1429C64.3877 94.8513 63.9161 94.7054 63.348 94.7054C62.8025 94.7054 62.3442 94.8437 61.973 95.1202C61.6017 95.3929 61.3214 95.7755 61.132 96.2679C60.9427 96.7566 60.848 97.3266 60.848 97.9782ZM69.7407 90.7054V102.342H68.3998V90.7054H69.7407ZM74.9757 102.524C74.1348 102.524 73.4095 102.338 72.7996 101.967C72.1935 101.592 71.7257 101.069 71.3962 100.399C71.0704 99.7244 70.9076 98.9403 70.9076 98.0463C70.9076 97.1524 71.0704 96.3645 71.3962 95.6827C71.7257 94.9971 72.1841 94.463 72.7712 94.0804C73.3621 93.6941 74.0515 93.5009 74.8394 93.5009C75.2939 93.5009 75.7428 93.5766 76.186 93.7282C76.6291 93.8797 77.0326 94.1259 77.3962 94.4668C77.7598 94.8039 78.0496 95.2509 78.2655 95.8077C78.4814 96.3645 78.5894 97.0501 78.5894 97.8645V98.4327H71.8621V97.2736H77.2257C77.2257 96.7812 77.1273 96.3418 76.9303 95.9554C76.7371 95.5691 76.4606 95.2641 76.1007 95.0407C75.7447 94.8172 75.3242 94.7054 74.8394 94.7054C74.3053 94.7054 73.8432 94.838 73.453 95.1032C73.0666 95.3645 72.7693 95.7054 72.561 96.1259C72.3526 96.5463 72.2485 96.9971 72.2485 97.4782V98.2509C72.2485 98.91 72.3621 99.4687 72.5894 99.927C72.8204 100.382 73.1405 100.728 73.5496 100.967C73.9587 101.202 74.4341 101.319 74.9757 101.319C75.328 101.319 75.6462 101.27 75.9303 101.171C76.2182 101.069 76.4663 100.918 76.6746 100.717C76.8829 100.512 77.0439 100.258 77.1576 99.9554L78.453 100.319C78.3166 100.758 78.0875 101.145 77.7655 101.478C77.4435 101.808 77.0458 102.065 76.5723 102.251C76.0988 102.433 75.5666 102.524 74.9757 102.524ZM84.9601 90.7054V102.342H83.551V90.7054H84.9601ZM86.269 91.9554V90.7054H94.9963V91.9554H91.3372V102.342H89.9281V91.9554H86.269ZM96.291 102.342V90.7054H100.223C101.136 90.7054 101.882 90.8702 102.461 91.1998C103.045 91.5255 103.477 91.9668 103.757 92.5236C104.037 93.0804 104.177 93.7016 104.177 94.3873C104.177 95.0729 104.037 95.696 103.757 96.2566C103.48 96.8172 103.052 97.2641 102.473 97.5975C101.893 97.927 101.151 98.0918 100.246 98.0918H97.4273V96.8418H100.2C100.825 96.8418 101.327 96.7338 101.706 96.5179C102.085 96.302 102.359 96.0104 102.53 95.6429C102.704 95.2717 102.791 94.8532 102.791 94.3873C102.791 93.9213 102.704 93.5047 102.53 93.1373C102.359 92.7698 102.083 92.4819 101.7 92.2736C101.317 92.0615 100.81 91.9554 100.177 91.9554H97.7001V102.342H96.291ZM110.346 90.7054V102.342H109.005V90.7054H110.346ZM111.922 102.342V93.6145H113.263V102.342H111.922ZM112.604 92.16C112.343 92.16 112.117 92.071 111.928 91.8929C111.742 91.7149 111.65 91.5009 111.65 91.2509C111.65 91.0009 111.742 90.7869 111.928 90.6088C112.117 90.4308 112.343 90.3418 112.604 90.3418C112.865 90.3418 113.089 90.4308 113.275 90.6088C113.464 90.7869 113.559 91.0009 113.559 91.2509C113.559 91.5009 113.464 91.7149 113.275 91.8929C113.089 92.071 112.865 92.16 112.604 92.16ZM114.839 102.342V93.6145H116.135V94.9782H116.248C116.43 94.5123 116.724 94.1505 117.129 93.8929C117.534 93.6316 118.021 93.5009 118.589 93.5009C119.165 93.5009 119.644 93.6316 120.027 93.8929C120.413 94.1505 120.714 94.5123 120.93 94.9782H121.021C121.244 94.5274 121.58 94.1694 122.027 93.9043C122.474 93.6354 123.01 93.5009 123.635 93.5009C124.415 93.5009 125.053 93.7452 125.549 94.2338C126.046 94.7187 126.294 95.4744 126.294 96.5009V102.342H124.953V96.5009C124.953 95.8569 124.777 95.3967 124.424 95.1202C124.072 94.8437 123.657 94.7054 123.18 94.7054C122.566 94.7054 122.091 94.891 121.754 95.2623C121.417 95.6297 121.248 96.0956 121.248 96.66V102.342H119.885V96.3645C119.885 95.8683 119.724 95.4687 119.402 95.1657C119.08 94.8588 118.665 94.7054 118.157 94.7054C117.809 94.7054 117.483 94.7982 117.18 94.9838C116.881 95.1694 116.638 95.427 116.453 95.7566C116.271 96.0823 116.18 96.4592 116.18 96.8873V102.342H114.839ZM127.865 102.342V93.6145H129.206V102.342H127.865ZM128.547 92.16C128.286 92.16 128.06 92.071 127.871 91.8929C127.685 91.7149 127.593 91.5009 127.593 91.2509C127.593 91.0009 127.685 90.7869 127.871 90.6088C128.06 90.4308 128.286 90.3418 128.547 90.3418C128.809 90.3418 129.032 90.4308 129.218 90.6088C129.407 90.7869 129.502 91.0009 129.502 91.2509C129.502 91.5009 129.407 91.7149 129.218 91.8929C129.032 92.071 128.809 92.16 128.547 92.16ZM134.578 93.6145V94.7509H130.055V93.6145H134.578ZM131.373 91.5236H132.714V99.8418C132.714 100.221 132.769 100.505 132.879 100.694C132.993 100.88 133.136 101.005 133.311 101.069C133.489 101.13 133.676 101.16 133.873 101.16C134.021 101.16 134.142 101.152 134.237 101.137C134.332 101.118 134.407 101.103 134.464 101.092L134.737 102.296C134.646 102.33 134.519 102.365 134.356 102.399C134.193 102.436 133.987 102.455 133.737 102.455C133.358 102.455 132.987 102.374 132.623 102.211C132.263 102.048 131.964 101.8 131.725 101.467C131.491 101.133 131.373 100.713 131.373 100.205V91.5236ZM141.74 95.5691L140.536 95.91C140.46 95.7092 140.348 95.5141 140.201 95.3248C140.057 95.1316 139.86 94.9725 139.61 94.8475C139.36 94.7225 139.04 94.66 138.649 94.66C138.115 94.66 137.67 94.7831 137.314 95.0293C136.962 95.2717 136.786 95.5804 136.786 95.9554C136.786 96.2888 136.907 96.552 137.149 96.7452C137.392 96.9384 137.771 97.0994 138.286 97.2282L139.581 97.5463C140.362 97.7357 140.943 98.0255 141.326 98.4157C141.708 98.802 141.899 99.3001 141.899 99.91C141.899 100.41 141.755 100.857 141.468 101.251C141.184 101.645 140.786 101.955 140.274 102.183C139.763 102.41 139.168 102.524 138.49 102.524C137.6 102.524 136.863 102.33 136.28 101.944C135.697 101.558 135.327 100.993 135.172 100.251L136.445 99.9327C136.566 100.402 136.795 100.755 137.132 100.99C137.473 101.224 137.918 101.342 138.468 101.342C139.093 101.342 139.589 101.209 139.956 100.944C140.327 100.675 140.513 100.353 140.513 99.9782C140.513 99.6751 140.407 99.4213 140.195 99.2168C139.983 99.0085 139.657 98.8532 139.218 98.7509L137.763 98.41C136.964 98.2206 136.377 97.927 136.002 97.5293C135.63 97.1278 135.445 96.6259 135.445 96.0236C135.445 95.5312 135.583 95.0956 135.86 94.7168C136.14 94.338 136.521 94.0407 137.002 93.8248C137.487 93.6088 138.036 93.5009 138.649 93.5009C139.513 93.5009 140.191 93.6903 140.684 94.0691C141.18 94.4479 141.532 94.9479 141.74 95.5691ZM150.453 93.6145V94.7509H145.931V93.6145H150.453ZM147.249 91.5236H148.59V99.8418C148.59 100.221 148.645 100.505 148.754 100.694C148.868 100.88 149.012 101.005 149.186 101.069C149.364 101.13 149.552 101.16 149.749 101.16C149.897 101.16 150.018 101.152 150.112 101.137C150.207 101.118 150.283 101.103 150.34 101.092L150.612 102.296C150.522 102.33 150.395 102.365 150.232 102.399C150.069 102.436 149.862 102.455 149.612 102.455C149.234 102.455 148.862 102.374 148.499 102.211C148.139 102.048 147.84 101.8 147.601 101.467C147.366 101.133 147.249 100.713 147.249 100.205V91.5236ZM151.59 102.342V93.6145H152.886V94.9327H152.977C153.136 94.5009 153.424 94.1505 153.84 93.8816C154.257 93.6126 154.727 93.4782 155.249 93.4782C155.348 93.4782 155.471 93.4801 155.619 93.4838C155.767 93.4876 155.878 93.4933 155.954 93.5009V94.8645C155.909 94.8532 155.804 94.8361 155.642 94.8134C155.482 94.7869 155.314 94.7736 155.136 94.7736C154.712 94.7736 154.333 94.8626 153.999 95.0407C153.67 95.2149 153.409 95.4573 153.215 95.7679C153.026 96.0748 152.931 96.4251 152.931 96.8191V102.342H151.59ZM159.232 102.546C158.679 102.546 158.177 102.442 157.726 102.234C157.275 102.022 156.917 101.717 156.652 101.319C156.387 100.918 156.254 100.433 156.254 99.8645C156.254 99.3645 156.353 98.9592 156.55 98.6486C156.747 98.3342 157.01 98.088 157.34 97.91C157.669 97.7319 158.033 97.5994 158.431 97.5123C158.832 97.4213 159.235 97.3494 159.641 97.2963C160.171 97.2282 160.601 97.177 160.931 97.1429C161.264 97.1051 161.506 97.0426 161.658 96.9554C161.813 96.8683 161.891 96.7168 161.891 96.5009V96.4554C161.891 95.8948 161.737 95.4592 161.431 95.1486C161.128 94.838 160.667 94.6827 160.05 94.6827C159.41 94.6827 158.908 94.8229 158.544 95.1032C158.181 95.3835 157.925 95.6827 157.777 96.0009L156.504 95.5463C156.732 95.016 157.035 94.6032 157.414 94.3077C157.796 94.0085 158.213 93.8001 158.664 93.6827C159.118 93.5615 159.565 93.5009 160.004 93.5009C160.285 93.5009 160.607 93.535 160.97 93.6032C161.338 93.6676 161.692 93.802 162.033 94.0066C162.378 94.2111 162.664 94.5198 162.891 94.9327C163.118 95.3456 163.232 95.8986 163.232 96.5918V102.342H161.891V101.16H161.823C161.732 101.349 161.58 101.552 161.368 101.768C161.156 101.984 160.874 102.168 160.521 102.319C160.169 102.471 159.739 102.546 159.232 102.546ZM159.436 101.342C159.967 101.342 160.414 101.238 160.777 101.029C161.145 100.821 161.421 100.552 161.607 100.222C161.796 99.8929 161.891 99.5463 161.891 99.1827V97.9554C161.834 98.0236 161.709 98.0861 161.516 98.1429C161.326 98.196 161.107 98.2433 160.857 98.285C160.61 98.3229 160.37 98.3569 160.135 98.3873C159.904 98.4138 159.717 98.4365 159.573 98.4554C159.224 98.5009 158.898 98.5748 158.595 98.677C158.296 98.7755 158.054 98.9251 157.868 99.1259C157.686 99.3229 157.595 99.5918 157.595 99.9327C157.595 100.399 157.768 100.751 158.112 100.99C158.461 101.224 158.902 101.342 159.436 101.342ZM168.345 102.524C167.526 102.524 166.822 102.33 166.231 101.944C165.64 101.558 165.186 101.026 164.867 100.347C164.549 99.6694 164.39 98.8948 164.39 98.0236C164.39 97.1373 164.553 96.3551 164.879 95.677C165.208 94.9952 165.667 94.463 166.254 94.0804C166.845 93.6941 167.534 93.5009 168.322 93.5009C168.936 93.5009 169.489 93.6145 169.981 93.8418C170.473 94.0691 170.877 94.3873 171.191 94.7963C171.506 95.2054 171.701 95.6827 171.776 96.2282H170.436C170.333 95.8304 170.106 95.4782 169.754 95.1713C169.405 94.8607 168.936 94.7054 168.345 94.7054C167.822 94.7054 167.364 94.8418 166.97 95.1145C166.579 95.3835 166.275 95.7641 166.055 96.2566C165.839 96.7452 165.731 97.3191 165.731 97.9782C165.731 98.6524 165.837 99.2395 166.049 99.7395C166.265 100.24 166.568 100.628 166.958 100.904C167.352 101.181 167.814 101.319 168.345 101.319C168.693 101.319 169.009 101.258 169.293 101.137C169.578 101.016 169.818 100.842 170.015 100.615C170.212 100.387 170.352 100.115 170.436 99.7963H171.776C171.701 100.311 171.513 100.776 171.214 101.188C170.918 101.597 170.526 101.923 170.038 102.166C169.553 102.404 168.989 102.524 168.345 102.524ZM174.107 99.16L174.084 97.5009H174.357L178.175 93.6145H179.834L175.766 97.7282H175.652L174.107 99.16ZM172.857 102.342V90.7054H174.198V102.342H172.857ZM178.402 102.342L174.993 98.0236L175.948 97.0918L180.107 102.342H178.402ZM180.68 102.342V93.6145H182.021V102.342H180.68ZM181.362 92.16C181.1 92.16 180.875 92.071 180.685 91.8929C180.5 91.7149 180.407 91.5009 180.407 91.2509C180.407 91.0009 180.5 90.7869 180.685 90.6088C180.875 90.4308 181.1 90.3418 181.362 90.3418C181.623 90.3418 181.846 90.4308 182.032 90.6088C182.221 90.7869 182.316 91.0009 182.316 91.2509C182.316 91.5009 182.221 91.7149 182.032 91.8929C181.846 92.071 181.623 92.16 181.362 92.16ZM184.938 97.0918V102.342H183.597V93.6145H184.892V94.9782H185.006C185.21 94.535 185.521 94.1789 185.938 93.91C186.354 93.6373 186.892 93.5009 187.551 93.5009C188.142 93.5009 188.659 93.6221 189.102 93.8645C189.546 94.1032 189.89 94.4668 190.136 94.9554C190.383 95.4403 190.506 96.0539 190.506 96.7963V102.342H189.165V96.8873C189.165 96.2016 188.987 95.6676 188.631 95.285C188.275 94.8986 187.786 94.7054 187.165 94.7054C186.737 94.7054 186.354 94.7982 186.017 94.9838C185.684 95.1694 185.421 95.4403 185.227 95.7963C185.034 96.1524 184.938 96.5842 184.938 97.0918ZM195.599 105.796C194.951 105.796 194.394 105.713 193.928 105.546C193.462 105.383 193.074 105.168 192.764 104.899C192.457 104.633 192.212 104.349 192.031 104.046L193.099 103.296C193.22 103.455 193.373 103.637 193.559 103.842C193.745 104.05 193.998 104.23 194.32 104.382C194.646 104.537 195.072 104.615 195.599 104.615C196.303 104.615 196.885 104.444 197.343 104.103C197.801 103.762 198.031 103.228 198.031 102.501V100.728H197.917C197.818 100.887 197.678 101.084 197.496 101.319C197.318 101.55 197.061 101.757 196.724 101.938C196.39 102.116 195.94 102.205 195.371 102.205C194.667 102.205 194.034 102.039 193.474 101.705C192.917 101.372 192.476 100.887 192.15 100.251C191.828 99.6145 191.667 98.8418 191.667 97.9327C191.667 97.0388 191.824 96.2604 192.139 95.5975C192.453 94.9308 192.89 94.4157 193.451 94.052C194.012 93.6846 194.659 93.5009 195.394 93.5009C195.962 93.5009 196.413 93.5956 196.746 93.785C197.084 93.9706 197.341 94.1827 197.519 94.4213C197.701 94.6562 197.841 94.8494 197.94 95.0009H198.076V93.6145H199.371V102.592C199.371 103.342 199.201 103.952 198.86 104.421C198.523 104.895 198.068 105.241 197.496 105.461C196.928 105.685 196.296 105.796 195.599 105.796ZM195.553 101.001C196.091 101.001 196.546 100.878 196.917 100.632C197.288 100.385 197.57 100.031 197.764 99.5691C197.957 99.1069 198.053 98.5539 198.053 97.91C198.053 97.2812 197.959 96.7263 197.769 96.2452C197.58 95.7641 197.3 95.3873 196.928 95.1145C196.557 94.8418 196.099 94.7054 195.553 94.7054C194.985 94.7054 194.512 94.8494 194.133 95.1373C193.758 95.4251 193.476 95.8115 193.286 96.2963C193.101 96.7812 193.008 97.3191 193.008 97.91C193.008 98.516 193.103 99.052 193.292 99.5179C193.485 99.9801 193.769 100.344 194.144 100.609C194.523 100.87 194.993 101.001 195.553 101.001ZM208.111 102.524C207.324 102.524 206.632 102.336 206.038 101.961C205.447 101.586 204.985 101.061 204.651 100.387C204.322 99.713 204.157 98.9251 204.157 98.0236C204.157 97.1145 204.322 96.321 204.651 95.6429C204.985 94.9649 205.447 94.4384 206.038 94.0634C206.632 93.6884 207.324 93.5009 208.111 93.5009C208.899 93.5009 209.589 93.6884 210.18 94.0634C210.774 94.4384 211.236 94.9649 211.566 95.6429C211.899 96.321 212.066 97.1145 212.066 98.0236C212.066 98.9251 211.899 99.713 211.566 100.387C211.236 101.061 210.774 101.586 210.18 101.961C209.589 102.336 208.899 102.524 208.111 102.524ZM208.111 101.319C208.71 101.319 209.202 101.166 209.589 100.859C209.975 100.552 210.261 100.149 210.447 99.6486C210.632 99.1486 210.725 98.6069 210.725 98.0236C210.725 97.4403 210.632 96.8967 210.447 96.3929C210.261 95.8891 209.975 95.4819 209.589 95.1713C209.202 94.8607 208.71 94.7054 208.111 94.7054C207.513 94.7054 207.021 94.8607 206.634 95.1713C206.248 95.4819 205.962 95.8891 205.776 96.3929C205.591 96.8967 205.498 97.4403 205.498 98.0236C205.498 98.6069 205.591 99.1486 205.776 99.6486C205.962 100.149 206.248 100.552 206.634 100.859C207.021 101.166 207.513 101.319 208.111 101.319ZM214.574 97.0918V102.342H213.233V93.6145H214.528V94.9782H214.642C214.847 94.535 215.157 94.1789 215.574 93.91C215.99 93.6373 216.528 93.5009 217.187 93.5009C217.778 93.5009 218.295 93.6221 218.739 93.8645C219.182 94.1032 219.526 94.4668 219.773 94.9554C220.019 95.4403 220.142 96.0539 220.142 96.7963V102.342H218.801V96.8873C218.801 96.2016 218.623 95.6676 218.267 95.285C217.911 94.8986 217.422 94.7054 216.801 94.7054C216.373 94.7054 215.99 94.7982 215.653 94.9838C215.32 95.1694 215.057 95.4403 214.864 95.7963C214.67 96.1524 214.574 96.5842 214.574 97.0918ZM47.2727 120.615C47.2045 120.039 46.928 119.592 46.4432 119.274C45.9583 118.955 45.3636 118.796 44.6591 118.796C44.1439 118.796 43.6932 118.88 43.3068 119.046C42.9242 119.213 42.625 119.442 42.4091 119.734C42.197 120.026 42.0909 120.357 42.0909 120.728C42.0909 121.039 42.1648 121.306 42.3125 121.529C42.464 121.749 42.6572 121.933 42.892 122.08C43.1269 122.224 43.3731 122.344 43.6307 122.438C43.8883 122.529 44.125 122.603 44.3409 122.66L45.5227 122.978C45.8258 123.058 46.1629 123.168 46.5341 123.308C46.9091 123.448 47.267 123.639 47.608 123.882C47.9527 124.12 48.2367 124.427 48.4602 124.802C48.6837 125.177 48.7955 125.637 48.7955 126.183C48.7955 126.811 48.6307 127.38 48.3011 127.887C47.9754 128.395 47.4981 128.798 46.8693 129.097C46.2443 129.397 45.4848 129.546 44.5909 129.546C43.7576 129.546 43.036 129.412 42.4261 129.143C41.8201 128.874 41.3428 128.499 40.9943 128.018C40.6496 127.537 40.4545 126.978 40.4091 126.342H41.8636C41.9015 126.781 42.0492 127.145 42.3068 127.433C42.5682 127.717 42.8977 127.929 43.2955 128.069C43.697 128.205 44.1288 128.274 44.5909 128.274C45.1288 128.274 45.6117 128.186 46.0398 128.012C46.4678 127.834 46.8068 127.588 47.0568 127.274C47.3068 126.955 47.4318 126.584 47.4318 126.16C47.4318 125.774 47.3239 125.459 47.108 125.217C46.892 124.974 46.608 124.777 46.2557 124.626C45.9034 124.474 45.5227 124.342 45.1136 124.228L43.6818 123.819C42.7727 123.558 42.053 123.185 41.5227 122.7C40.9924 122.215 40.7273 121.58 40.7273 120.796C40.7273 120.145 40.9034 119.577 41.2557 119.092C41.6117 118.603 42.089 118.224 42.6875 117.955C43.2898 117.683 43.9621 117.546 44.7045 117.546C45.4545 117.546 46.1212 117.681 46.7045 117.95C47.2879 118.215 47.75 118.579 48.0909 119.041C48.4356 119.503 48.6174 120.027 48.6364 120.615H47.2727ZM52.6186 129.546C52.0655 129.546 51.5637 129.442 51.1129 129.234C50.6621 129.022 50.3042 128.717 50.039 128.319C49.7739 127.918 49.6413 127.433 49.6413 126.865C49.6413 126.365 49.7398 125.959 49.9368 125.649C50.1337 125.334 50.397 125.088 50.7265 124.91C51.0561 124.732 51.4197 124.599 51.8174 124.512C52.219 124.421 52.6224 124.349 53.0277 124.296C53.558 124.228 53.9879 124.177 54.3174 124.143C54.6508 124.105 54.8932 124.043 55.0447 123.955C55.2 123.868 55.2777 123.717 55.2777 123.501V123.455C55.2777 122.895 55.1243 122.459 54.8174 122.149C54.5144 121.838 54.0542 121.683 53.4368 121.683C52.7966 121.683 52.2947 121.823 51.9311 122.103C51.5674 122.383 51.3118 122.683 51.164 123.001L49.8913 122.546C50.1186 122.016 50.4216 121.603 50.8004 121.308C51.183 121.008 51.5996 120.8 52.0504 120.683C52.5049 120.561 52.9519 120.501 53.3913 120.501C53.6716 120.501 53.9936 120.535 54.3572 120.603C54.7246 120.668 55.0788 120.802 55.4197 121.007C55.7644 121.211 56.0504 121.52 56.2777 121.933C56.5049 122.346 56.6186 122.899 56.6186 123.592V129.342H55.2777V128.16H55.2095C55.1186 128.349 54.9671 128.552 54.7549 128.768C54.5428 128.984 54.2606 129.168 53.9084 129.319C53.5561 129.471 53.1262 129.546 52.6186 129.546ZM52.8231 128.342C53.3534 128.342 53.8004 128.238 54.164 128.029C54.5315 127.821 54.808 127.552 54.9936 127.222C55.183 126.893 55.2777 126.546 55.2777 126.183V124.955C55.2209 125.024 55.0959 125.086 54.9027 125.143C54.7133 125.196 54.4936 125.243 54.2436 125.285C53.9974 125.323 53.7568 125.357 53.522 125.387C53.2909 125.414 53.1034 125.436 52.9595 125.455C52.611 125.501 52.2852 125.575 51.9822 125.677C51.683 125.776 51.4405 125.925 51.2549 126.126C51.0731 126.323 50.9822 126.592 50.9822 126.933C50.9822 127.399 51.1546 127.751 51.4993 127.99C51.8477 128.224 52.289 128.342 52.8231 128.342ZM62.0724 120.615V121.751H57.3678V120.615H62.0724ZM58.7769 129.342V119.41C58.7769 118.91 58.8944 118.493 59.1292 118.16C59.3641 117.827 59.669 117.577 60.044 117.41C60.419 117.243 60.8148 117.16 61.2315 117.16C61.561 117.16 61.83 117.186 62.0383 117.24C62.2466 117.293 62.4019 117.342 62.5042 117.387L62.1178 118.546C62.0497 118.524 61.955 118.495 61.8337 118.461C61.7163 118.427 61.561 118.41 61.3678 118.41C60.9247 118.41 60.6046 118.522 60.4076 118.745C60.2144 118.969 60.1178 119.296 60.1178 119.728V129.342H58.7769ZM65.3898 129.546C64.8368 129.546 64.3349 129.442 63.8841 129.234C63.4334 129.022 63.0754 128.717 62.8103 128.319C62.5451 127.918 62.4126 127.433 62.4126 126.865C62.4126 126.365 62.511 125.959 62.708 125.649C62.905 125.334 63.1682 125.088 63.4978 124.91C63.8273 124.732 64.191 124.599 64.5887 124.512C64.9902 124.421 65.3936 124.349 65.7989 124.296C66.3292 124.228 66.7591 124.177 67.0887 124.143C67.422 124.105 67.6645 124.043 67.816 123.955C67.9713 123.868 68.0489 123.717 68.0489 123.501V123.455C68.0489 122.895 67.8955 122.459 67.5887 122.149C67.2857 121.838 66.8254 121.683 66.208 121.683C65.5679 121.683 65.066 121.823 64.7023 122.103C64.3387 122.383 64.083 122.683 63.9353 123.001L62.6626 122.546C62.8898 122.016 63.1929 121.603 63.5716 121.308C63.9542 121.008 64.3709 120.8 64.8216 120.683C65.2762 120.561 65.7232 120.501 66.1626 120.501C66.4429 120.501 66.7648 120.535 67.1285 120.603C67.4959 120.668 67.8501 120.802 68.191 121.007C68.5357 121.211 68.8216 121.52 69.0489 121.933C69.2762 122.346 69.3898 122.899 69.3898 123.592V129.342H68.0489V128.16H67.9807C67.8898 128.349 67.7383 128.552 67.5262 128.768C67.3141 128.984 67.0319 129.168 66.6796 129.319C66.3273 129.471 65.8974 129.546 65.3898 129.546ZM65.5944 128.342C66.1247 128.342 66.5716 128.238 66.9353 128.029C67.3027 127.821 67.5792 127.552 67.7648 127.222C67.9542 126.893 68.0489 126.546 68.0489 126.183V124.955C67.9921 125.024 67.8671 125.086 67.6739 125.143C67.4845 125.196 67.2648 125.243 67.0148 125.285C66.7686 125.323 66.5281 125.357 66.2932 125.387C66.0622 125.414 65.8747 125.436 65.7307 125.455C65.3823 125.501 65.0565 125.575 64.7535 125.677C64.4542 125.776 64.2118 125.925 64.0262 126.126C63.8444 126.323 63.7535 126.592 63.7535 126.933C63.7535 127.399 63.9258 127.751 64.2705 127.99C64.619 128.224 65.0603 128.342 65.5944 128.342ZM70.9573 129.342V120.615H72.2527V121.933H72.3436C72.5027 121.501 72.7906 121.151 73.2073 120.882C73.6239 120.613 74.0936 120.478 74.6164 120.478C74.7148 120.478 74.838 120.48 74.9857 120.484C75.1334 120.488 75.2452 120.493 75.3209 120.501V121.865C75.2755 121.853 75.1713 121.836 75.0084 121.813C74.8493 121.787 74.6808 121.774 74.5027 121.774C74.0785 121.774 73.6997 121.863 73.3664 122.041C73.0368 122.215 72.7755 122.457 72.5823 122.768C72.3929 123.075 72.2982 123.425 72.2982 123.819V129.342H70.9573ZM76.0304 129.342V120.615H77.3713V129.342H76.0304ZM76.7122 119.16C76.4509 119.16 76.2255 119.071 76.0361 118.893C75.8505 118.715 75.7577 118.501 75.7577 118.251C75.7577 118.001 75.8505 117.787 76.0361 117.609C76.2255 117.431 76.4509 117.342 76.7122 117.342C76.9736 117.342 77.1971 117.431 77.3827 117.609C77.5721 117.787 77.6668 118.001 77.6668 118.251C77.6668 118.501 77.5721 118.715 77.3827 118.893C77.1971 119.071 76.9736 119.16 76.7122 119.16ZM79.9245 129.433C79.6442 129.433 79.4037 129.332 79.203 129.132C79.0022 128.931 78.9018 128.69 78.9018 128.41C78.9018 128.13 79.0022 127.889 79.203 127.688C79.4037 127.488 79.6442 127.387 79.9245 127.387C80.2048 127.387 80.4454 127.488 80.6461 127.688C80.8469 127.889 80.9473 128.13 80.9473 128.41C80.9473 128.596 80.8999 128.766 80.8052 128.921C80.7143 129.077 80.5912 129.202 80.4359 129.296C80.2844 129.387 80.1139 129.433 79.9245 129.433Z" fill="black"/>
<circle cx="6" cy="65.8418" r="5.5" fill="url(#paint1_linear_2_3001)"/>
<defs>
<linearGradient id="paint0_linear_2_3001" x1="147" y1="11.8418" x2="219.5" y2="46.3418" gradientUnits="userSpaceOnUse">
<stop stop-color="#00888F"/>
<stop offset="1" stop-color="#340031"/>
</linearGradient>
<linearGradient id="paint1_linear_2_3001" x1="4.9" y1="60.3418" x2="8.56667" y2="71.3418" gradientUnits="userSpaceOnUse">
<stop offset="0.077397" stop-color="#00888F"/>
<stop offset="1" stop-color="#770370"/>
</linearGradient>
</defs>
</svg>
