<svg width="260" height="228" viewBox="0 0 260 228" fill="none" xmlns="http://www.w3.org/2000/svg">
<line x1="234.5" y1="65.3418" x2="7.5" y2="65.3418" stroke="#DBDBDB" stroke-width="2"/>
<path d="M127.998 46.3418V42.3645L140.303 29.6159C141.616 28.231 142.7 27.0177 143.552 25.976C144.416 24.9225 145.061 23.9223 145.487 22.9753C145.913 22.0283 146.126 21.0222 146.126 19.9569C146.126 18.7495 145.842 17.7078 145.274 16.8319C144.706 15.9441 143.931 15.2634 142.948 14.79C141.966 14.3046 140.859 14.062 139.628 14.062C138.326 14.062 137.189 14.3283 136.219 14.861C135.248 15.3936 134.502 16.1453 133.982 17.1159C133.461 18.0866 133.2 19.223 133.2 20.525H127.962C127.962 18.3115 128.471 16.3761 129.489 14.7189C130.507 13.0617 131.904 11.7774 133.68 10.8659C135.455 9.94265 137.473 9.481 139.734 9.481C142.019 9.481 144.031 9.93673 145.771 10.8482C147.523 11.7478 148.89 12.9789 149.873 14.5414C150.855 16.092 151.347 17.8439 151.347 19.7971C151.347 21.1465 151.092 22.4663 150.583 23.7566C150.086 25.0468 149.216 26.485 147.973 28.0712C146.73 29.6455 145.002 31.5572 142.788 33.8063L135.562 41.3702V41.6365H151.933V46.3418H127.998ZM168.572 46.9455C165.766 46.9337 163.369 46.1938 161.381 44.726C159.392 43.2582 157.871 41.1216 156.817 38.3162C155.764 35.5108 155.237 32.1313 155.237 28.1777C155.237 24.236 155.764 20.8683 156.817 18.0748C157.883 15.2812 159.41 13.1505 161.398 11.6827C163.399 10.2149 165.79 9.481 168.572 9.481C171.353 9.481 173.739 10.2208 175.727 11.7005C177.716 13.1683 179.237 15.2989 180.29 18.0925C181.356 20.8742 181.888 24.236 181.888 28.1777C181.888 32.1432 181.362 35.5286 180.308 38.334C179.255 41.1275 177.734 43.2641 175.745 44.7438C173.756 46.2116 171.365 46.9455 168.572 46.9455ZM168.572 42.2047C171.034 42.2047 172.957 41.0033 174.342 38.6003C175.739 36.1974 176.438 32.7232 176.438 28.1777C176.438 25.1593 176.118 22.6084 175.479 20.525C174.851 18.4299 173.946 16.8437 172.762 15.7665C171.59 14.6775 170.193 14.133 168.572 14.133C166.121 14.133 164.198 15.3404 162.801 17.7551C161.404 20.1699 160.7 23.6441 160.688 28.1777C160.688 31.208 161.002 33.7708 161.629 35.8659C162.268 37.9493 163.174 39.5295 164.346 40.6067C165.518 41.6721 166.926 42.2047 168.572 42.2047ZM199.233 9.97816V46.3418H193.729V15.4824H193.516L184.816 21.1642V15.9086L193.889 9.97816H199.233ZM218.412 9.481C220.033 9.49284 221.631 9.78877 223.206 10.3688C224.78 10.9488 226.201 11.8958 227.467 13.2097C228.746 14.5236 229.764 16.2992 230.521 18.5364C231.291 20.7618 231.681 23.5317 231.693 26.8461C231.693 30.0302 231.373 32.8652 230.734 35.351C230.095 37.825 229.178 39.9142 227.982 41.6188C226.798 43.3233 225.36 44.6195 223.667 45.5073C221.975 46.3951 220.069 46.839 217.95 46.839C215.784 46.839 213.86 46.4128 212.18 45.5605C210.499 44.7083 209.131 43.5305 208.078 42.0272C207.024 40.512 206.367 38.772 206.107 36.807H211.523C211.878 38.3695 212.6 39.6361 213.689 40.6067C214.79 41.5655 216.21 42.0449 217.95 42.0449C220.613 42.0449 222.691 40.8849 224.182 38.5648C225.674 36.2329 226.425 32.9777 226.437 28.7992H226.153C225.538 29.8172 224.768 30.6931 223.845 31.427C222.934 32.1609 221.91 32.7291 220.773 33.1316C219.637 33.534 218.424 33.7353 217.133 33.7353C215.038 33.7353 213.132 33.2203 211.416 32.1905C209.7 31.1607 208.332 29.7462 207.314 27.9469C206.296 26.1477 205.787 24.0939 205.787 21.7857C205.787 19.4893 206.308 17.406 207.35 15.5357C208.403 13.6654 209.871 12.1858 211.753 11.0968C213.647 9.99591 215.867 9.45733 218.412 9.481ZM218.43 14.0975C217.045 14.0975 215.796 14.4408 214.683 15.1273C213.582 15.802 212.712 16.7194 212.073 17.8794C211.434 19.0276 211.114 20.306 211.114 21.7147C211.114 23.1233 211.422 24.4017 212.037 25.5499C212.665 26.6863 213.517 27.5918 214.594 28.2665C215.683 28.9294 216.926 29.2608 218.323 29.2608C219.365 29.2608 220.335 29.0596 221.235 28.6571C222.135 28.2547 222.922 27.6983 223.596 26.9881C224.271 26.266 224.798 25.4493 225.177 24.5378C225.555 23.6264 225.745 22.6676 225.745 21.6614C225.745 20.3238 225.425 19.0809 224.786 17.9327C224.159 16.7845 223.295 15.8612 222.194 15.1628C221.093 14.4526 219.838 14.0975 218.43 14.0975Z" fill="url(#paint0_linear_3_3003)"/>
<path d="M39.9091 90.7054H41.5909L45.5455 100.365H45.6818L49.6364 90.7054H51.3182V102.342H50V93.5009H49.8864L46.25 102.342H44.9773L41.3409 93.5009H41.2273V102.342H39.9091V90.7054ZM53.0816 102.342V93.6145H54.4226V102.342H53.0816ZM53.7635 92.16C53.5021 92.16 53.2767 92.071 53.0873 91.8929C52.9017 91.7149 52.8089 91.5009 52.8089 91.2509C52.8089 91.0009 52.9017 90.7869 53.0873 90.6088C53.2767 90.4308 53.5021 90.3418 53.7635 90.3418C54.0248 90.3418 54.2483 90.4308 54.4339 90.6088C54.6233 90.7869 54.718 91.0009 54.718 91.2509C54.718 91.5009 54.6233 91.7149 54.4339 91.8929C54.2483 92.071 54.0248 92.16 53.7635 92.16ZM59.544 102.524C58.7258 102.524 58.0212 102.33 57.4303 101.944C56.8394 101.558 56.3849 101.026 56.0667 100.347C55.7485 99.6694 55.5894 98.8948 55.5894 98.0236C55.5894 97.1373 55.7523 96.3551 56.0781 95.677C56.4076 94.9952 56.8659 94.463 57.4531 94.0804C58.044 93.6941 58.7334 93.5009 59.5212 93.5009C60.1349 93.5009 60.6879 93.6145 61.1803 93.8418C61.6728 94.0691 62.0762 94.3873 62.3906 94.7963C62.705 95.2054 62.9 95.6827 62.9758 96.2282H61.6349C61.5326 95.8304 61.3053 95.4782 60.9531 95.1713C60.6046 94.8607 60.1349 94.7054 59.544 94.7054C59.0212 94.7054 58.5629 94.8418 58.169 95.1145C57.7788 95.3835 57.4739 95.7641 57.2542 96.2566C57.0383 96.7452 56.9303 97.3191 56.9303 97.9782C56.9303 98.6524 57.0364 99.2395 57.2485 99.7395C57.4644 100.24 57.7675 100.628 58.1576 100.904C58.5516 101.181 59.0137 101.319 59.544 101.319C59.8925 101.319 60.2087 101.258 60.4928 101.137C60.7769 101.016 61.0175 100.842 61.2144 100.615C61.4114 100.387 61.5516 100.115 61.6349 99.7963H62.9758C62.9 100.311 62.7125 100.776 62.4133 101.188C62.1178 101.597 61.7258 101.923 61.2372 102.166C60.7523 102.404 60.1879 102.524 59.544 102.524ZM64.056 102.342V93.6145H65.3515V94.9327H65.4424C65.6015 94.5009 65.8894 94.1505 66.306 93.8816C66.7227 93.6126 67.1924 93.4782 67.7151 93.4782C67.8136 93.4782 67.9367 93.4801 68.0844 93.4838C68.2322 93.4876 68.3439 93.4933 68.4197 93.5009V94.8645C68.3742 94.8532 68.27 94.8361 68.1072 94.8134C67.9481 94.7869 67.7795 94.7736 67.6015 94.7736C67.1772 94.7736 66.7984 94.8626 66.4651 95.0407C66.1356 95.2149 65.8742 95.4573 65.681 95.7679C65.4916 96.0748 65.3969 96.4251 65.3969 96.8191V102.342H64.056ZM72.409 102.524C71.6211 102.524 70.9298 102.336 70.3351 101.961C69.7442 101.586 69.2821 101.061 68.9487 100.387C68.6192 99.713 68.4544 98.9251 68.4544 98.0236C68.4544 97.1145 68.6192 96.321 68.9487 95.6429C69.2821 94.9649 69.7442 94.4384 70.3351 94.0634C70.9298 93.6884 71.6211 93.5009 72.409 93.5009C73.1969 93.5009 73.8862 93.6884 74.4772 94.0634C75.0719 94.4384 75.534 94.9649 75.8635 95.6429C76.1969 96.321 76.3635 97.1145 76.3635 98.0236C76.3635 98.9251 76.1969 99.713 75.8635 100.387C75.534 101.061 75.0719 101.586 74.4772 101.961C73.8862 102.336 73.1969 102.524 72.409 102.524ZM72.409 101.319C73.0075 101.319 73.4999 101.166 73.8862 100.859C74.2726 100.552 74.5586 100.149 74.7442 99.6486C74.9298 99.1486 75.0226 98.6069 75.0226 98.0236C75.0226 97.4403 74.9298 96.8967 74.7442 96.3929C74.5586 95.8891 74.2726 95.4819 73.8862 95.1713C73.4999 94.8607 73.0075 94.7054 72.409 94.7054C71.8105 94.7054 71.3181 94.8607 70.9317 95.1713C70.5453 95.4819 70.2594 95.8891 70.0737 96.3929C69.8881 96.8967 69.7953 97.4403 69.7953 98.0236C69.7953 98.6069 69.8881 99.1486 70.0737 99.6486C70.2594 100.149 70.5453 100.552 70.9317 100.859C71.3181 101.166 71.8105 101.319 72.409 101.319ZM83.7122 95.5691L82.5077 95.91C82.4319 95.7092 82.3202 95.5141 82.1724 95.3248C82.0285 95.1316 81.8315 94.9725 81.5815 94.8475C81.3315 94.7225 81.0115 94.66 80.6213 94.66C80.0872 94.66 79.6421 94.7831 79.2861 95.0293C78.9338 95.2717 78.7577 95.5804 78.7577 95.9554C78.7577 96.2888 78.8789 96.552 79.1213 96.7452C79.3637 96.9384 79.7425 97.0994 80.2577 97.2282L81.5531 97.5463C82.3334 97.7357 82.9149 98.0255 83.2974 98.4157C83.68 98.802 83.8713 99.3001 83.8713 99.91C83.8713 100.41 83.7274 100.857 83.4395 101.251C83.1554 101.645 82.7577 101.955 82.2463 102.183C81.7349 102.41 81.1402 102.524 80.4622 102.524C79.5721 102.524 78.8353 102.33 78.252 101.944C77.6687 101.558 77.2993 100.993 77.144 100.251L78.4168 99.9327C78.538 100.402 78.7671 100.755 79.1043 100.99C79.4452 101.224 79.8902 101.342 80.4395 101.342C81.0645 101.342 81.5607 101.209 81.9281 100.944C82.2993 100.675 82.4849 100.353 82.4849 99.9782C82.4849 99.6751 82.3789 99.4213 82.1668 99.2168C81.9546 99.0085 81.6289 98.8532 81.1895 98.7509L79.7349 98.41C78.9357 98.2206 78.3486 97.927 77.9736 97.5293C77.6024 97.1278 77.4168 96.6259 77.4168 96.0236C77.4168 95.5312 77.555 95.0956 77.8315 94.7168C78.1118 94.338 78.4925 94.0407 78.9736 93.8248C79.4584 93.6088 80.0077 93.5009 80.6213 93.5009C81.4849 93.5009 82.163 93.6903 82.6554 94.0691C83.1516 94.4479 83.5039 94.9479 83.7122 95.5691ZM88.5552 102.524C87.7673 102.524 87.0761 102.336 86.4814 101.961C85.8905 101.586 85.4283 101.061 85.095 100.387C84.7655 99.713 84.6007 98.9251 84.6007 98.0236C84.6007 97.1145 84.7655 96.321 85.095 95.6429C85.4283 94.9649 85.8905 94.4384 86.4814 94.0634C87.0761 93.6884 87.7673 93.5009 88.5552 93.5009C89.3431 93.5009 90.0325 93.6884 90.6234 94.0634C91.2181 94.4384 91.6802 94.9649 92.0098 95.6429C92.3431 96.321 92.5098 97.1145 92.5098 98.0236C92.5098 98.9251 92.3431 99.713 92.0098 100.387C91.6802 101.061 91.2181 101.586 90.6234 101.961C90.0325 102.336 89.3431 102.524 88.5552 102.524ZM88.5552 101.319C89.1537 101.319 89.6461 101.166 90.0325 100.859C90.4189 100.552 90.7048 100.149 90.8905 99.6486C91.0761 99.1486 91.1689 98.6069 91.1689 98.0236C91.1689 97.4403 91.0761 96.8967 90.8905 96.3929C90.7048 95.8891 90.4189 95.4819 90.0325 95.1713C89.6461 94.8607 89.1537 94.7054 88.5552 94.7054C87.9567 94.7054 87.4643 94.8607 87.078 95.1713C86.6916 95.4819 86.4056 95.8891 86.22 96.3929C86.0344 96.8967 85.9416 97.4403 85.9416 98.0236C85.9416 98.6069 86.0344 99.1486 86.22 99.6486C86.4056 100.149 86.6916 100.552 87.078 100.859C87.4643 101.166 87.9567 101.319 88.5552 101.319ZM97.563 93.6145V94.7509H92.8585V93.6145H97.563ZM94.2676 102.342V92.41C94.2676 91.91 94.385 91.4933 94.6198 91.16C94.8547 90.8266 95.1596 90.5766 95.5346 90.41C95.9096 90.2433 96.3054 90.16 96.7221 90.16C97.0516 90.16 97.3206 90.1865 97.5289 90.2395C97.7373 90.2926 97.8926 90.3418 97.9948 90.3873L97.6085 91.5463C97.5403 91.5236 97.4456 91.4952 97.3244 91.4611C97.207 91.427 97.0516 91.41 96.8585 91.41C96.4153 91.41 96.0952 91.5217 95.8982 91.7452C95.7051 91.9687 95.6085 92.2963 95.6085 92.7282V102.342H94.2676ZM102.358 93.6145V94.7509H97.835V93.6145H102.358ZM99.1532 91.5236H100.494V99.8418C100.494 100.221 100.549 100.505 100.659 100.694C100.772 100.88 100.916 101.005 101.091 101.069C101.269 101.13 101.456 101.16 101.653 101.16C101.801 101.16 101.922 101.152 102.017 101.137C102.112 101.118 102.187 101.103 102.244 101.092L102.517 102.296C102.426 102.33 102.299 102.365 102.136 102.399C101.973 102.436 101.767 102.455 101.517 102.455C101.138 102.455 100.767 102.374 100.403 102.211C100.043 102.048 99.7441 101.8 99.5055 101.467C99.2706 101.133 99.1532 100.713 99.1532 100.205V91.5236ZM110.917 90.7054H112.598L116.553 100.365H116.689L120.644 90.7054H122.326V102.342H121.007V93.5009H120.894L117.257 102.342H115.985L112.348 93.5009H112.235V102.342H110.917V90.7054ZM123.635 91.9554V90.7054H132.362V91.9554H128.703V102.342H127.294V91.9554H123.635ZM133.657 102.342V90.7054H137.588C138.501 90.7054 139.247 90.8702 139.827 91.1998C140.41 91.5255 140.842 91.9668 141.122 92.5236C141.403 93.0804 141.543 93.7016 141.543 94.3873C141.543 95.0729 141.403 95.696 141.122 96.2566C140.846 96.8172 140.418 97.2641 139.838 97.5975C139.259 97.927 138.516 98.0918 137.611 98.0918H134.793V96.8418H137.566C138.191 96.8418 138.693 96.7338 139.071 96.5179C139.45 96.302 139.725 96.0104 139.895 95.6429C140.069 95.2717 140.157 94.8532 140.157 94.3873C140.157 93.9213 140.069 93.5047 139.895 93.1373C139.725 92.7698 139.448 92.4819 139.066 92.2736C138.683 92.0615 138.176 91.9554 137.543 91.9554H135.066V102.342H133.657ZM146.553 102.342V90.7054H147.894V95.0009H148.007C148.106 94.8494 148.242 94.6562 148.416 94.4213C148.595 94.1827 148.848 93.9706 149.178 93.785C149.511 93.5956 149.962 93.5009 150.53 93.5009C151.265 93.5009 151.913 93.6846 152.473 94.052C153.034 94.4194 153.471 94.9403 153.786 95.6145C154.1 96.2888 154.257 97.0842 154.257 98.0009C154.257 98.9251 154.1 99.7263 153.786 100.404C153.471 101.079 153.036 101.601 152.479 101.972C151.922 102.34 151.28 102.524 150.553 102.524C149.992 102.524 149.543 102.431 149.206 102.245C148.869 102.056 148.61 101.842 148.428 101.603C148.246 101.361 148.106 101.16 148.007 101.001H147.848V102.342H146.553ZM147.871 97.9782C147.871 98.6373 147.968 99.2187 148.161 99.7225C148.354 100.222 148.636 100.615 149.007 100.899C149.379 101.179 149.833 101.319 150.371 101.319C150.932 101.319 151.399 101.171 151.774 100.876C152.153 100.577 152.437 100.175 152.627 99.6713C152.82 99.1638 152.916 98.5994 152.916 97.9782C152.916 97.3645 152.822 96.8115 152.632 96.3191C152.447 95.8229 152.165 95.4308 151.786 95.1429C151.411 94.8513 150.939 94.7054 150.371 94.7054C149.826 94.7054 149.367 94.8437 148.996 95.1202C148.625 95.3929 148.345 95.7755 148.155 96.2679C147.966 96.7566 147.871 97.3266 147.871 97.9782ZM156.769 90.7054V102.342H155.429V90.7054H156.769ZM161.891 102.524C161.103 102.524 160.412 102.336 159.817 101.961C159.226 101.586 158.764 101.061 158.431 100.387C158.101 99.713 157.936 98.9251 157.936 98.0236C157.936 97.1145 158.101 96.321 158.431 95.6429C158.764 94.9649 159.226 94.4384 159.817 94.0634C160.412 93.6884 161.103 93.5009 161.891 93.5009C162.679 93.5009 163.368 93.6884 163.959 94.0634C164.554 94.4384 165.016 94.9649 165.345 95.6429C165.679 96.321 165.845 97.1145 165.845 98.0236C165.845 98.9251 165.679 99.713 165.345 100.387C165.016 101.061 164.554 101.586 163.959 101.961C163.368 102.336 162.679 102.524 161.891 102.524ZM161.891 101.319C162.489 101.319 162.982 101.166 163.368 100.859C163.754 100.552 164.04 100.149 164.226 99.6486C164.412 99.1486 164.504 98.6069 164.504 98.0236C164.504 97.4403 164.412 96.8967 164.226 96.3929C164.04 95.8891 163.754 95.4819 163.368 95.1713C162.982 94.8607 162.489 94.7054 161.891 94.7054C161.292 94.7054 160.8 94.8607 160.414 95.1713C160.027 95.4819 159.741 95.8891 159.556 96.3929C159.37 96.8967 159.277 97.4403 159.277 98.0236C159.277 98.6069 159.37 99.1486 159.556 99.6486C159.741 100.149 160.027 100.552 160.414 100.859C160.8 101.166 161.292 101.319 161.891 101.319ZM170.558 102.524C169.74 102.524 169.035 102.33 168.444 101.944C167.853 101.558 167.399 101.026 167.08 100.347C166.762 99.6694 166.603 98.8948 166.603 98.0236C166.603 97.1373 166.766 96.3551 167.092 95.677C167.421 94.9952 167.88 94.463 168.467 94.0804C169.058 93.6941 169.747 93.5009 170.535 93.5009C171.149 93.5009 171.702 93.6145 172.194 93.8418C172.687 94.0691 173.09 94.3873 173.404 94.7963C173.719 95.2054 173.914 95.6827 173.99 96.2282H172.649C172.546 95.8304 172.319 95.4782 171.967 95.1713C171.618 94.8607 171.149 94.7054 170.558 94.7054C170.035 94.7054 169.577 94.8418 169.183 95.1145C168.793 95.3835 168.488 95.7641 168.268 96.2566C168.052 96.7452 167.944 97.3191 167.944 97.9782C167.944 98.6524 168.05 99.2395 168.262 99.7395C168.478 100.24 168.781 100.628 169.171 100.904C169.565 101.181 170.027 101.319 170.558 101.319C170.906 101.319 171.223 101.258 171.507 101.137C171.791 101.016 172.031 100.842 172.228 100.615C172.425 100.387 172.565 100.115 172.649 99.7963H173.99C173.914 100.311 173.726 100.776 173.427 101.188C173.132 101.597 172.74 101.923 172.251 102.166C171.766 102.404 171.202 102.524 170.558 102.524ZM176.32 99.16L176.297 97.5009H176.57L180.388 93.6145H182.047L177.979 97.7282H177.865L176.32 99.16ZM175.07 102.342V90.7054H176.411V102.342H175.07ZM180.615 102.342L177.206 98.0236L178.161 97.0918L182.32 102.342H180.615ZM189.075 95.5691L187.87 95.91C187.794 95.7092 187.683 95.5141 187.535 95.3248C187.391 95.1316 187.194 94.9725 186.944 94.8475C186.694 94.7225 186.374 94.66 185.984 94.66C185.45 94.66 185.005 94.7831 184.649 95.0293C184.296 95.2717 184.12 95.5804 184.12 95.9554C184.12 96.2888 184.241 96.552 184.484 96.7452C184.726 96.9384 185.105 97.0994 185.62 97.2282L186.916 97.5463C187.696 97.7357 188.277 98.0255 188.66 98.4157C189.043 98.802 189.234 99.3001 189.234 99.91C189.234 100.41 189.09 100.857 188.802 101.251C188.518 101.645 188.12 101.955 187.609 102.183C187.097 102.41 186.503 102.524 185.825 102.524C184.935 102.524 184.198 102.33 183.614 101.944C183.031 101.558 182.662 100.993 182.507 100.251L183.779 99.9327C183.9 100.402 184.13 100.755 184.467 100.99C184.808 101.224 185.253 101.342 185.802 101.342C186.427 101.342 186.923 101.209 187.291 100.944C187.662 100.675 187.847 100.353 187.847 99.9782C187.847 99.6751 187.741 99.4213 187.529 99.2168C187.317 99.0085 186.991 98.8532 186.552 98.7509L185.097 98.41C184.298 98.2206 183.711 97.927 183.336 97.5293C182.965 97.1278 182.779 96.6259 182.779 96.0236C182.779 95.5312 182.918 95.0956 183.194 94.7168C183.474 94.338 183.855 94.0407 184.336 93.8248C184.821 93.6088 185.37 93.5009 185.984 93.5009C186.847 93.5009 187.525 93.6903 188.018 94.0691C188.514 94.4479 188.866 94.9479 189.075 95.5691ZM197.788 93.6145V94.7509H193.265V93.6145H197.788ZM194.583 91.5236H195.924V99.8418C195.924 100.221 195.979 100.505 196.089 100.694C196.202 100.88 196.346 101.005 196.521 101.069C196.699 101.13 196.886 101.16 197.083 101.16C197.231 101.16 197.352 101.152 197.447 101.137C197.542 101.118 197.617 101.103 197.674 101.092L197.947 102.296C197.856 102.33 197.729 102.365 197.566 102.399C197.403 102.436 197.197 102.455 196.947 102.455C196.568 102.455 196.197 102.374 195.833 102.211C195.473 102.048 195.174 101.8 194.935 101.467C194.701 101.133 194.583 100.713 194.583 100.205V91.5236ZM200.453 97.0918V102.342H199.112V90.7054H200.453V94.9782H200.567C200.771 94.5274 201.078 94.1694 201.487 93.9043C201.9 93.6354 202.449 93.5009 203.135 93.5009C203.73 93.5009 204.251 93.6202 204.697 93.8588C205.144 94.0937 205.491 94.4554 205.737 94.9441C205.987 95.4289 206.112 96.0463 206.112 96.7963V102.342H204.771V96.8873C204.771 96.1941 204.591 95.6581 204.232 95.2793C203.876 94.8967 203.381 94.7054 202.749 94.7054C202.309 94.7054 201.915 94.7982 201.567 94.9838C201.222 95.1694 200.949 95.4403 200.749 95.7963C200.552 96.1524 200.453 96.5842 200.453 97.0918ZM207.685 102.342V93.6145H209.026V102.342H207.685ZM208.367 92.16C208.106 92.16 207.88 92.071 207.691 91.8929C207.505 91.7149 207.413 91.5009 207.413 91.2509C207.413 91.0009 207.505 90.7869 207.691 90.6088C207.88 90.4308 208.106 90.3418 208.367 90.3418C208.629 90.3418 208.852 90.4308 209.038 90.6088C209.227 90.7869 209.322 91.0009 209.322 91.2509C209.322 91.5009 209.227 91.7149 209.038 91.8929C208.852 92.071 208.629 92.16 208.367 92.16ZM210.602 102.342V93.6145H211.898V94.9327H211.989C212.148 94.5009 212.436 94.1505 212.852 93.8816C213.269 93.6126 213.739 93.4782 214.261 93.4782C214.36 93.4782 214.483 93.4801 214.631 93.4838C214.778 93.4876 214.89 93.4933 214.966 93.5009V94.8645C214.92 94.8532 214.816 94.8361 214.653 94.8134C214.494 94.7869 214.326 94.7736 214.148 94.7736C213.723 94.7736 213.345 94.8626 213.011 95.0407C212.682 95.2149 212.42 95.4573 212.227 95.7679C212.038 96.0748 211.943 96.4251 211.943 96.8191V102.342H210.602ZM218.705 102.524C217.978 102.524 217.336 102.34 216.779 101.972C216.222 101.601 215.787 101.079 215.472 100.404C215.158 99.7263 215.001 98.9251 215.001 98.0009C215.001 97.0842 215.158 96.2888 215.472 95.6145C215.787 94.9403 216.224 94.4194 216.785 94.052C217.345 93.6846 217.993 93.5009 218.728 93.5009C219.296 93.5009 219.745 93.5956 220.075 93.785C220.408 93.9706 220.662 94.1827 220.836 94.4213C221.014 94.6562 221.152 94.8494 221.251 95.0009H221.364V90.7054H222.705V102.342H221.41V101.001H221.251C221.152 101.16 221.012 101.361 220.83 101.603C220.648 101.842 220.389 102.056 220.052 102.245C219.715 102.431 219.266 102.524 218.705 102.524ZM218.887 101.319C219.425 101.319 219.879 101.179 220.251 100.899C220.622 100.615 220.904 100.222 221.097 99.7225C221.29 99.2187 221.387 98.6373 221.387 97.9782C221.387 97.3266 221.292 96.7566 221.103 96.2679C220.914 95.7755 220.633 95.3929 220.262 95.1202C219.891 94.8437 219.432 94.7054 218.887 94.7054C218.319 94.7054 217.845 94.8513 217.467 95.1429C217.092 95.4308 216.809 95.8229 216.62 96.3191C216.434 96.8115 216.342 97.3645 216.342 97.9782C216.342 98.5994 216.436 99.1638 216.626 99.6713C216.819 100.175 217.103 100.577 217.478 100.876C217.857 101.171 218.326 101.319 218.887 101.319ZM229.467 96.7282V97.9782H224.376V96.7282H229.467ZM39.7273 132.615V120.615H41.0227V122.001H41.1818C41.2803 121.849 41.4167 121.656 41.5909 121.421C41.7689 121.183 42.0227 120.971 42.3523 120.785C42.6856 120.596 43.1364 120.501 43.7045 120.501C44.4394 120.501 45.0871 120.685 45.6477 121.052C46.2083 121.419 46.6458 121.94 46.9602 122.615C47.2746 123.289 47.4318 124.084 47.4318 125.001C47.4318 125.925 47.2746 126.726 46.9602 127.404C46.6458 128.079 46.2102 128.601 45.6534 128.972C45.0966 129.34 44.4545 129.524 43.7273 129.524C43.1667 129.524 42.7178 129.431 42.3807 129.245C42.0436 129.056 41.7841 128.842 41.6023 128.603C41.4205 128.361 41.2803 128.16 41.1818 128.001H41.0682V132.615H39.7273ZM41.0455 124.978C41.0455 125.637 41.142 126.219 41.3352 126.722C41.5284 127.222 41.8106 127.615 42.1818 127.899C42.553 128.179 43.0076 128.319 43.5455 128.319C44.1061 128.319 44.5739 128.171 44.9489 127.876C45.3277 127.577 45.6117 127.175 45.8011 126.671C45.9943 126.164 46.0909 125.599 46.0909 124.978C46.0909 124.365 45.9962 123.811 45.8068 123.319C45.6212 122.823 45.339 122.431 44.9602 122.143C44.5852 121.851 44.1136 121.705 43.5455 121.705C43 121.705 42.5417 121.844 42.1705 122.12C41.7992 122.393 41.5189 122.776 41.3295 123.268C41.1402 123.757 41.0455 124.327 41.0455 124.978ZM51.1655 129.546C50.6124 129.546 50.1105 129.442 49.6598 129.234C49.209 129.022 48.8511 128.717 48.5859 128.319C48.3208 127.918 48.1882 127.433 48.1882 126.865C48.1882 126.365 48.2867 125.959 48.4836 125.649C48.6806 125.334 48.9439 125.088 49.2734 124.91C49.603 124.732 49.9666 124.599 50.3643 124.512C50.7658 124.421 51.1692 124.349 51.5745 124.296C52.1048 124.228 52.5348 124.177 52.8643 124.143C53.1977 124.105 53.4401 124.043 53.5916 123.955C53.7469 123.868 53.8245 123.717 53.8245 123.501V123.455C53.8245 122.895 53.6711 122.459 53.3643 122.149C53.0613 121.838 52.6011 121.683 51.9836 121.683C51.3435 121.683 50.8416 121.823 50.478 122.103C50.1143 122.383 49.8586 122.683 49.7109 123.001L48.4382 122.546C48.6655 122.016 48.9685 121.603 49.3473 121.308C49.7298 121.008 50.1465 120.8 50.5973 120.683C51.0518 120.561 51.4988 120.501 51.9382 120.501C52.2185 120.501 52.5405 120.535 52.9041 120.603C53.2715 120.668 53.6257 120.802 53.9666 121.007C54.3113 121.211 54.5973 121.52 54.8245 121.933C55.0518 122.346 55.1655 122.899 55.1655 123.592V129.342H53.8245V128.16H53.7564C53.6655 128.349 53.5139 128.552 53.3018 128.768C53.0897 128.984 52.8075 129.168 52.4552 129.319C52.103 129.471 51.673 129.546 51.1655 129.546ZM51.37 128.342C51.9003 128.342 52.3473 128.238 52.7109 128.029C53.0783 127.821 53.3548 127.552 53.5405 127.222C53.7298 126.893 53.8245 126.546 53.8245 126.183V124.955C53.7677 125.024 53.6427 125.086 53.4495 125.143C53.2602 125.196 53.0405 125.243 52.7905 125.285C52.5442 125.323 52.3037 125.357 52.0689 125.387C51.8378 125.414 51.6503 125.436 51.5064 125.455C51.1579 125.501 50.8321 125.575 50.5291 125.677C50.2298 125.776 49.9874 125.925 49.8018 126.126C49.62 126.323 49.5291 126.592 49.5291 126.933C49.5291 127.399 49.7014 127.751 50.0461 127.99C50.3946 128.224 50.8359 128.342 51.37 128.342ZM56.7329 129.342V120.615H58.0284V121.933H58.1193C58.2784 121.501 58.5662 121.151 58.9829 120.882C59.3996 120.613 59.8693 120.478 60.392 120.478C60.4905 120.478 60.6136 120.48 60.7613 120.484C60.909 120.488 61.0208 120.493 61.0965 120.501V121.865C61.0511 121.853 60.9469 121.836 60.784 121.813C60.6249 121.787 60.4564 121.774 60.2784 121.774C59.8541 121.774 59.4753 121.863 59.142 122.041C58.8124 122.215 58.5511 122.457 58.3579 122.768C58.1685 123.075 58.0738 123.425 58.0738 123.819V129.342H56.7329ZM66.1484 120.615V121.751H61.6256V120.615H66.1484ZM62.9438 118.524H64.2847V126.842C64.2847 127.221 64.3396 127.505 64.4495 127.694C64.5631 127.88 64.7071 128.005 64.8813 128.069C65.0593 128.13 65.2468 128.16 65.4438 128.16C65.5915 128.16 65.7127 128.152 65.8074 128.137C65.9021 128.118 65.9779 128.103 66.0347 128.092L66.3074 129.296C66.2165 129.33 66.0896 129.365 65.9268 129.399C65.7639 129.436 65.5574 129.455 65.3074 129.455C64.9287 129.455 64.5574 129.374 64.1938 129.211C63.834 129.048 63.5347 128.8 63.2961 128.467C63.0612 128.133 62.9438 127.713 62.9438 127.205V118.524ZM68.149 132.615C67.9218 132.615 67.7191 132.596 67.5411 132.558C67.363 132.524 67.2399 132.49 67.1718 132.455L67.5127 131.274C67.8384 131.357 68.1263 131.387 68.3763 131.365C68.6263 131.342 68.8479 131.23 69.0411 131.029C69.238 130.832 69.418 130.512 69.5809 130.069L69.8309 129.387L66.6036 120.615H68.0581L70.4672 127.569H70.5581L72.9672 120.615H74.4218L70.7172 130.615C70.5505 131.065 70.3441 131.438 70.0979 131.734C69.8517 132.033 69.5657 132.255 69.2399 132.399C68.918 132.543 68.5543 132.615 68.149 132.615ZM82.4771 129.524C81.6589 129.524 80.9544 129.33 80.3635 128.944C79.7726 128.558 79.318 128.026 78.9998 127.347C78.6816 126.669 78.5226 125.895 78.5226 125.024C78.5226 124.137 78.6854 123.355 79.0112 122.677C79.3407 121.995 79.7991 121.463 80.3862 121.08C80.9771 120.694 81.6665 120.501 82.4544 120.501C83.068 120.501 83.621 120.615 84.1135 120.842C84.6059 121.069 85.0093 121.387 85.3237 121.796C85.6381 122.205 85.8332 122.683 85.9089 123.228H84.568C84.4657 122.83 84.2385 122.478 83.8862 122.171C83.5377 121.861 83.068 121.705 82.4771 121.705C81.9544 121.705 81.496 121.842 81.1021 122.115C80.712 122.383 80.407 122.764 80.1873 123.257C79.9714 123.745 79.8635 124.319 79.8635 124.978C79.8635 125.652 79.9695 126.24 80.1816 126.74C80.3976 127.24 80.7006 127.628 81.0907 127.904C81.4847 128.181 81.9468 128.319 82.4771 128.319C82.8256 128.319 83.1419 128.258 83.426 128.137C83.7101 128.016 83.9506 127.842 84.1476 127.615C84.3445 127.387 84.4847 127.115 84.568 126.796H85.9089C85.8332 127.311 85.6457 127.776 85.3464 128.188C85.051 128.597 84.6589 128.923 84.1703 129.166C83.6854 129.404 83.121 129.524 82.4771 129.524ZM90.5346 129.524C89.7467 129.524 89.0554 129.336 88.4607 128.961C87.8698 128.586 87.4077 128.061 87.0744 127.387C86.7448 126.713 86.5801 125.925 86.5801 125.024C86.5801 124.115 86.7448 123.321 87.0744 122.643C87.4077 121.965 87.8698 121.438 88.4607 121.063C89.0554 120.688 89.7467 120.501 90.5346 120.501C91.3225 120.501 92.0119 120.688 92.6028 121.063C93.1975 121.438 93.6596 121.965 93.9891 122.643C94.3225 123.321 94.4891 124.115 94.4891 125.024C94.4891 125.925 94.3225 126.713 93.9891 127.387C93.6596 128.061 93.1975 128.586 92.6028 128.961C92.0119 129.336 91.3225 129.524 90.5346 129.524ZM90.5346 128.319C91.1331 128.319 91.6255 128.166 92.0119 127.859C92.3982 127.552 92.6842 127.149 92.8698 126.649C93.0554 126.149 93.1482 125.607 93.1482 125.024C93.1482 124.44 93.0554 123.897 92.8698 123.393C92.6842 122.889 92.3982 122.482 92.0119 122.171C91.6255 121.861 91.1331 121.705 90.5346 121.705C89.9361 121.705 89.4437 121.861 89.0573 122.171C88.671 122.482 88.385 122.889 88.1994 123.393C88.0138 123.897 87.921 124.44 87.921 125.024C87.921 125.607 88.0138 126.149 88.1994 126.649C88.385 127.149 88.671 127.552 89.0573 127.859C89.4437 128.166 89.9361 128.319 90.5346 128.319ZM99.2015 129.524C98.4136 129.524 97.7223 129.336 97.1276 128.961C96.5367 128.586 96.0746 128.061 95.7412 127.387C95.4117 126.713 95.2469 125.925 95.2469 125.024C95.2469 124.115 95.4117 123.321 95.7412 122.643C96.0746 121.965 96.5367 121.438 97.1276 121.063C97.7223 120.688 98.4136 120.501 99.2015 120.501C99.9894 120.501 100.679 120.688 101.27 121.063C101.864 121.438 102.326 121.965 102.656 122.643C102.989 123.321 103.156 124.115 103.156 125.024C103.156 125.925 102.989 126.713 102.656 127.387C102.326 128.061 101.864 128.586 101.27 128.961C100.679 129.336 99.9894 129.524 99.2015 129.524ZM99.2015 128.319C99.8 128.319 100.292 128.166 100.679 127.859C101.065 127.552 101.351 127.149 101.537 126.649C101.722 126.149 101.815 125.607 101.815 125.024C101.815 124.44 101.722 123.897 101.537 123.393C101.351 122.889 101.065 122.482 100.679 122.171C100.292 121.861 99.8 121.705 99.2015 121.705C98.603 121.705 98.1106 121.861 97.7242 122.171C97.3378 122.482 97.0519 122.889 96.8662 123.393C96.6806 123.897 96.5878 124.44 96.5878 125.024C96.5878 125.607 96.6806 126.149 96.8662 126.649C97.0519 127.149 97.3378 127.552 97.7242 127.859C98.1106 128.166 98.603 128.319 99.2015 128.319ZM105.573 126.16L105.55 124.501H105.823L109.641 120.615H111.3L107.232 124.728H107.118L105.573 126.16ZM104.323 129.342V117.705H105.664V129.342H104.323ZM109.868 129.342L106.459 125.024L107.414 124.092L111.573 129.342H109.868ZM112.146 129.342V120.615H113.487V129.342H112.146ZM112.828 119.16C112.566 119.16 112.341 119.071 112.152 118.893C111.966 118.715 111.873 118.501 111.873 118.251C111.873 118.001 111.966 117.787 112.152 117.609C112.341 117.431 112.566 117.342 112.828 117.342C113.089 117.342 113.313 117.431 113.498 117.609C113.688 117.787 113.782 118.001 113.782 118.251C113.782 118.501 113.688 118.715 113.498 118.893C113.313 119.071 113.089 119.16 112.828 119.16ZM118.722 129.524C117.881 129.524 117.156 129.338 116.546 128.967C115.94 128.592 115.472 128.069 115.142 127.399C114.817 126.724 114.654 125.94 114.654 125.046C114.654 124.152 114.817 123.365 115.142 122.683C115.472 121.997 115.93 121.463 116.517 121.08C117.108 120.694 117.798 120.501 118.586 120.501C119.04 120.501 119.489 120.577 119.932 120.728C120.375 120.88 120.779 121.126 121.142 121.467C121.506 121.804 121.796 122.251 122.012 122.808C122.228 123.365 122.336 124.05 122.336 124.865V125.433H115.608V124.274H120.972C120.972 123.781 120.874 123.342 120.677 122.955C120.483 122.569 120.207 122.264 119.847 122.041C119.491 121.817 119.07 121.705 118.586 121.705C118.052 121.705 117.589 121.838 117.199 122.103C116.813 122.365 116.516 122.705 116.307 123.126C116.099 123.546 115.995 123.997 115.995 124.478V125.251C115.995 125.91 116.108 126.469 116.336 126.927C116.567 127.382 116.887 127.728 117.296 127.967C117.705 128.202 118.18 128.319 118.722 128.319C119.074 128.319 119.392 128.27 119.677 128.171C119.964 128.069 120.213 127.918 120.421 127.717C120.629 127.512 120.79 127.258 120.904 126.955L122.199 127.319C122.063 127.758 121.834 128.145 121.512 128.478C121.19 128.808 120.792 129.065 120.319 129.251C119.845 129.433 119.313 129.524 118.722 129.524ZM129.677 122.569L128.473 122.91C128.397 122.709 128.285 122.514 128.137 122.325C127.994 122.132 127.797 121.972 127.547 121.847C127.297 121.722 126.976 121.66 126.586 121.66C126.052 121.66 125.607 121.783 125.251 122.029C124.899 122.272 124.723 122.58 124.723 122.955C124.723 123.289 124.844 123.552 125.086 123.745C125.329 123.938 125.708 124.099 126.223 124.228L127.518 124.546C128.298 124.736 128.88 125.026 129.262 125.416C129.645 125.802 129.836 126.3 129.836 126.91C129.836 127.41 129.692 127.857 129.404 128.251C129.12 128.645 128.723 128.955 128.211 129.183C127.7 129.41 127.105 129.524 126.427 129.524C125.537 129.524 124.8 129.33 124.217 128.944C123.634 128.558 123.264 127.993 123.109 127.251L124.382 126.933C124.503 127.402 124.732 127.755 125.069 127.99C125.41 128.224 125.855 128.342 126.404 128.342C127.029 128.342 127.526 128.209 127.893 127.944C128.264 127.675 128.45 127.353 128.45 126.978C128.45 126.675 128.344 126.421 128.132 126.217C127.92 126.008 127.594 125.853 127.154 125.751L125.7 125.41C124.901 125.221 124.314 124.927 123.939 124.529C123.567 124.128 123.382 123.626 123.382 123.024C123.382 122.531 123.52 122.096 123.797 121.717C124.077 121.338 124.458 121.041 124.939 120.825C125.423 120.609 125.973 120.501 126.586 120.501C127.45 120.501 128.128 120.69 128.62 121.069C129.117 121.448 129.469 121.948 129.677 122.569ZM138.14 129.524C137.352 129.524 136.661 129.336 136.066 128.961C135.475 128.586 135.013 128.061 134.68 127.387C134.35 126.713 134.186 125.925 134.186 125.024C134.186 124.115 134.35 123.321 134.68 122.643C135.013 121.965 135.475 121.438 136.066 121.063C136.661 120.688 137.352 120.501 138.14 120.501C138.928 120.501 139.618 120.688 140.208 121.063C140.803 121.438 141.265 121.965 141.595 122.643C141.928 123.321 142.095 124.115 142.095 125.024C142.095 125.925 141.928 126.713 141.595 127.387C141.265 128.061 140.803 128.586 140.208 128.961C139.618 129.336 138.928 129.524 138.14 129.524ZM138.14 128.319C138.739 128.319 139.231 128.166 139.618 127.859C140.004 127.552 140.29 127.149 140.475 126.649C140.661 126.149 140.754 125.607 140.754 125.024C140.754 124.44 140.661 123.897 140.475 123.393C140.29 122.889 140.004 122.482 139.618 122.171C139.231 121.861 138.739 121.705 138.14 121.705C137.542 121.705 137.049 121.861 136.663 122.171C136.277 122.482 135.991 122.889 135.805 123.393C135.619 123.897 135.527 124.44 135.527 125.024C135.527 125.607 135.619 126.149 135.805 126.649C135.991 127.149 136.277 127.552 136.663 127.859C137.049 128.166 137.542 128.319 138.14 128.319ZM144.603 124.092V129.342H143.262V120.615H144.557V121.978H144.671C144.875 121.535 145.186 121.179 145.603 120.91C146.019 120.637 146.557 120.501 147.216 120.501C147.807 120.501 148.324 120.622 148.767 120.865C149.211 121.103 149.555 121.467 149.801 121.955C150.048 122.44 150.171 123.054 150.171 123.796V129.342H148.83V123.887C148.83 123.202 148.652 122.668 148.296 122.285C147.94 121.899 147.451 121.705 146.83 121.705C146.402 121.705 146.019 121.798 145.682 121.984C145.349 122.169 145.086 122.44 144.892 122.796C144.699 123.152 144.603 123.584 144.603 124.092ZM155.361 129.342V120.615H156.702V129.342H155.361ZM156.043 119.16C155.781 119.16 155.556 119.071 155.367 118.893C155.181 118.715 155.088 118.501 155.088 118.251C155.088 118.001 155.181 117.787 155.367 117.609C155.556 117.431 155.781 117.342 156.043 117.342C156.304 117.342 156.528 117.431 156.713 117.609C156.903 117.787 156.997 118.001 156.997 118.251C156.997 118.501 156.903 118.715 156.713 118.893C156.528 119.071 156.304 119.16 156.043 119.16ZM162.073 120.615V121.751H157.551V120.615H162.073ZM158.869 118.524H160.21V126.842C160.21 127.221 160.265 127.505 160.374 127.694C160.488 127.88 160.632 128.005 160.806 128.069C160.984 128.13 161.172 128.16 161.369 128.16C161.517 128.16 161.638 128.152 161.732 128.137C161.827 128.118 161.903 128.103 161.96 128.092L162.232 129.296C162.142 129.33 162.015 129.365 161.852 129.399C161.689 129.436 161.482 129.455 161.232 129.455C160.854 129.455 160.482 129.374 160.119 129.211C159.759 129.048 159.46 128.8 159.221 128.467C158.986 128.133 158.869 127.713 158.869 127.205V118.524ZM169.236 122.569L168.031 122.91C167.956 122.709 167.844 122.514 167.696 122.325C167.552 122.132 167.355 121.972 167.105 121.847C166.855 121.722 166.535 121.66 166.145 121.66C165.611 121.66 165.166 121.783 164.81 122.029C164.458 122.272 164.281 122.58 164.281 122.955C164.281 123.289 164.403 123.552 164.645 123.745C164.887 123.938 165.266 124.099 165.781 124.228L167.077 124.546C167.857 124.736 168.439 125.026 168.821 125.416C169.204 125.802 169.395 126.3 169.395 126.91C169.395 127.41 169.251 127.857 168.963 128.251C168.679 128.645 168.281 128.955 167.77 129.183C167.259 129.41 166.664 129.524 165.986 129.524C165.096 129.524 164.359 129.33 163.776 128.944C163.192 128.558 162.823 127.993 162.668 127.251L163.941 126.933C164.062 127.402 164.291 127.755 164.628 127.99C164.969 128.224 165.414 128.342 165.963 128.342C166.588 128.342 167.084 128.209 167.452 127.944C167.823 127.675 168.009 127.353 168.009 126.978C168.009 126.675 167.903 126.421 167.691 126.217C167.478 126.008 167.153 125.853 166.713 125.751L165.259 125.41C164.459 125.221 163.872 124.927 163.497 124.529C163.126 124.128 162.941 123.626 162.941 123.024C162.941 122.531 163.079 122.096 163.355 121.717C163.636 121.338 164.016 121.041 164.497 120.825C164.982 120.609 165.531 120.501 166.145 120.501C167.009 120.501 167.687 120.69 168.179 121.069C168.675 121.448 169.028 121.948 169.236 122.569ZM174.335 129.342V117.705H175.676V122.001H175.79C175.888 121.849 176.025 121.656 176.199 121.421C176.377 121.183 176.631 120.971 176.96 120.785C177.294 120.596 177.744 120.501 178.313 120.501C179.047 120.501 179.695 120.685 180.256 121.052C180.816 121.419 181.254 121.94 181.568 122.615C181.883 123.289 182.04 124.084 182.04 125.001C182.04 125.925 181.883 126.726 181.568 127.404C181.254 128.079 180.818 128.601 180.261 128.972C179.705 129.34 179.063 129.524 178.335 129.524C177.775 129.524 177.326 129.431 176.989 129.245C176.652 129.056 176.392 128.842 176.21 128.603C176.029 128.361 175.888 128.16 175.79 128.001H175.631V129.342H174.335ZM175.654 124.978C175.654 125.637 175.75 126.219 175.943 126.722C176.136 127.222 176.419 127.615 176.79 127.899C177.161 128.179 177.616 128.319 178.154 128.319C178.714 128.319 179.182 128.171 179.557 127.876C179.936 127.577 180.22 127.175 180.409 126.671C180.602 126.164 180.699 125.599 180.699 124.978C180.699 124.365 180.604 123.811 180.415 123.319C180.229 122.823 179.947 122.431 179.568 122.143C179.193 121.851 178.722 121.705 178.154 121.705C177.608 121.705 177.15 121.844 176.779 122.12C176.407 122.393 176.127 122.776 175.938 123.268C175.748 123.757 175.654 124.327 175.654 124.978ZM183.211 129.342V120.615H184.506V121.933H184.597C184.756 121.501 185.044 121.151 185.461 120.882C185.878 120.613 186.347 120.478 186.87 120.478C186.969 120.478 187.092 120.48 187.239 120.484C187.387 120.488 187.499 120.493 187.575 120.501V121.865C187.529 121.853 187.425 121.836 187.262 121.813C187.103 121.787 186.935 121.774 186.756 121.774C186.332 121.774 185.953 121.863 185.62 122.041C185.291 122.215 185.029 122.457 184.836 122.768C184.647 123.075 184.552 123.425 184.552 123.819V129.342H183.211ZM191.564 129.524C190.776 129.524 190.085 129.336 189.49 128.961C188.899 128.586 188.437 128.061 188.104 127.387C187.774 126.713 187.609 125.925 187.609 125.024C187.609 124.115 187.774 123.321 188.104 122.643C188.437 121.965 188.899 121.438 189.49 121.063C190.085 120.688 190.776 120.501 191.564 120.501C192.352 120.501 193.041 120.688 193.632 121.063C194.227 121.438 194.689 121.965 195.019 122.643C195.352 123.321 195.519 124.115 195.519 125.024C195.519 125.925 195.352 126.713 195.019 127.387C194.689 128.061 194.227 128.586 193.632 128.961C193.041 129.336 192.352 129.524 191.564 129.524ZM191.564 128.319C192.162 128.319 192.655 128.166 193.041 127.859C193.428 127.552 193.714 127.149 193.899 126.649C194.085 126.149 194.178 125.607 194.178 125.024C194.178 124.44 194.085 123.897 193.899 123.393C193.714 122.889 193.428 122.482 193.041 122.171C192.655 121.861 192.162 121.705 191.564 121.705C190.965 121.705 190.473 121.861 190.087 122.171C189.7 122.482 189.414 122.889 189.229 123.393C189.043 123.897 188.95 124.44 188.95 125.024C188.95 125.607 189.043 126.149 189.229 126.649C189.414 127.149 189.7 127.552 190.087 127.859C190.473 128.166 190.965 128.319 191.564 128.319ZM198.366 129.342L195.707 120.615H197.116L199.002 127.296H199.093L200.957 120.615H202.389L204.229 127.274H204.32L206.207 120.615H207.616L204.957 129.342H203.639L201.729 122.637H201.593L199.684 129.342H198.366ZM214.69 122.569L213.486 122.91C213.41 122.709 213.298 122.514 213.151 122.325C213.007 122.132 212.81 121.972 212.56 121.847C212.31 121.722 211.99 121.66 211.599 121.66C211.065 121.66 210.62 121.783 210.264 122.029C209.912 122.272 209.736 122.58 209.736 122.955C209.736 123.289 209.857 123.552 210.099 123.745C210.342 123.938 210.721 124.099 211.236 124.228L212.531 124.546C213.312 124.736 213.893 125.026 214.276 125.416C214.658 125.802 214.849 126.3 214.849 126.91C214.849 127.41 214.705 127.857 214.418 128.251C214.134 128.645 213.736 128.955 213.224 129.183C212.713 129.41 212.118 129.524 211.44 129.524C210.55 129.524 209.813 129.33 209.23 128.944C208.647 128.558 208.277 127.993 208.122 127.251L209.395 126.933C209.516 127.402 209.745 127.755 210.082 127.99C210.423 128.224 210.868 128.342 211.418 128.342C212.043 128.342 212.539 128.209 212.906 127.944C213.277 127.675 213.463 127.353 213.463 126.978C213.463 126.675 213.357 126.421 213.145 126.217C212.933 126.008 212.607 125.853 212.168 125.751L210.713 125.41C209.914 125.221 209.327 124.927 208.952 124.529C208.58 124.128 208.395 123.626 208.395 123.024C208.395 122.531 208.533 122.096 208.81 121.717C209.09 121.338 209.471 121.041 209.952 120.825C210.437 120.609 210.986 120.501 211.599 120.501C212.463 120.501 213.141 120.69 213.634 121.069C214.13 121.448 214.482 121.948 214.69 122.569ZM219.647 129.524C218.806 129.524 218.081 129.338 217.471 128.967C216.865 128.592 216.397 128.069 216.067 127.399C215.742 126.724 215.579 125.94 215.579 125.046C215.579 124.152 215.742 123.365 216.067 122.683C216.397 121.997 216.855 121.463 217.442 121.08C218.033 120.694 218.723 120.501 219.511 120.501C219.965 120.501 220.414 120.577 220.857 120.728C221.3 120.88 221.704 121.126 222.067 121.467C222.431 121.804 222.721 122.251 222.937 122.808C223.153 123.365 223.261 124.05 223.261 124.865V125.433H216.533V124.274H221.897C221.897 123.781 221.798 123.342 221.602 122.955C221.408 122.569 221.132 122.264 220.772 122.041C220.416 121.817 219.995 121.705 219.511 121.705C218.977 121.705 218.514 121.838 218.124 122.103C217.738 122.365 217.441 122.705 217.232 123.126C217.024 123.546 216.92 123.997 216.92 124.478V125.251C216.92 125.91 217.033 126.469 217.261 126.927C217.492 127.382 217.812 127.728 218.221 127.967C218.63 128.202 219.105 128.319 219.647 128.319C219.999 128.319 220.317 128.27 220.602 128.171C220.889 128.069 221.138 127.918 221.346 127.717C221.554 127.512 221.715 127.258 221.829 126.955L223.124 127.319C222.988 127.758 222.759 128.145 222.437 128.478C222.115 128.808 221.717 129.065 221.244 129.251C220.77 129.433 220.238 129.524 219.647 129.524ZM224.42 129.342V120.615H225.716V121.933H225.807C225.966 121.501 226.254 121.151 226.67 120.882C227.087 120.613 227.557 120.478 228.079 120.478C228.178 120.478 228.301 120.48 228.449 120.484C228.597 120.488 228.708 120.493 228.784 120.501V121.865C228.739 121.853 228.634 121.836 228.472 121.813C228.312 121.787 228.144 121.774 227.966 121.774C227.542 121.774 227.163 121.863 226.829 122.041C226.5 122.215 226.239 122.457 226.045 122.768C225.856 123.075 225.761 123.425 225.761 123.819V129.342H224.42ZM235.675 122.569L234.471 122.91C234.395 122.709 234.283 122.514 234.136 122.325C233.992 122.132 233.795 121.972 233.545 121.847C233.295 121.722 232.975 121.66 232.584 121.66C232.05 121.66 231.605 121.783 231.249 122.029C230.897 122.272 230.721 122.58 230.721 122.955C230.721 123.289 230.842 123.552 231.084 123.745C231.327 123.938 231.706 124.099 232.221 124.228L233.516 124.546C234.297 124.736 234.878 125.026 235.261 125.416C235.643 125.802 235.834 126.3 235.834 126.91C235.834 127.41 235.69 127.857 235.403 128.251C235.119 128.645 234.721 128.955 234.209 129.183C233.698 129.41 233.103 129.524 232.425 129.524C231.535 129.524 230.798 129.33 230.215 128.944C229.632 128.558 229.262 127.993 229.107 127.251L230.38 126.933C230.501 127.402 230.73 127.755 231.067 127.99C231.408 128.224 231.853 128.342 232.403 128.342C233.028 128.342 233.524 128.209 233.891 127.944C234.262 127.675 234.448 127.353 234.448 126.978C234.448 126.675 234.342 126.421 234.13 126.217C233.918 126.008 233.592 125.853 233.153 125.751L231.698 125.41C230.899 125.221 230.312 124.927 229.937 124.529C229.565 124.128 229.38 123.626 229.38 123.024C229.38 122.531 229.518 122.096 229.795 121.717C230.075 121.338 230.456 121.041 230.937 120.825C231.422 120.609 231.971 120.501 232.584 120.501C233.448 120.501 234.126 120.69 234.619 121.069C235.115 121.448 235.467 121.948 235.675 122.569ZM237.95 129.433C237.67 129.433 237.429 129.332 237.229 129.132C237.028 128.931 236.927 128.69 236.927 128.41C236.927 128.13 237.028 127.889 237.229 127.688C237.429 127.488 237.67 127.387 237.95 127.387C238.23 127.387 238.471 127.488 238.672 127.688C238.873 127.889 238.973 128.13 238.973 128.41C238.973 128.596 238.926 128.766 238.831 128.921C238.74 129.077 238.617 129.202 238.462 129.296C238.31 129.387 238.14 129.433 237.95 129.433ZM40.3864 155.342H38.9091L43.1818 143.705H44.6364L48.9091 155.342H47.4318L43.9545 145.546H43.8636L40.3864 155.342ZM40.9318 150.796H46.8864V152.046H40.9318V150.796ZM49.6598 158.615V146.615H50.9552V148.001H51.1143C51.2128 147.849 51.3492 147.656 51.5234 147.421C51.7014 147.183 51.9552 146.971 52.2848 146.785C52.6181 146.596 53.0689 146.501 53.637 146.501C54.3719 146.501 55.0196 146.685 55.5802 147.052C56.1408 147.419 56.5783 147.94 56.8927 148.615C57.2071 149.289 57.3643 150.084 57.3643 151.001C57.3643 151.925 57.2071 152.726 56.8927 153.404C56.5783 154.079 56.1427 154.601 55.5859 154.972C55.0291 155.34 54.387 155.524 53.6598 155.524C53.0992 155.524 52.6503 155.431 52.3132 155.245C51.9761 155.056 51.7166 154.842 51.5348 154.603C51.353 154.361 51.2128 154.16 51.1143 154.001H51.0007V158.615H49.6598ZM50.978 150.978C50.978 151.637 51.0745 152.219 51.2677 152.722C51.4609 153.222 51.7431 153.615 52.1143 153.899C52.4855 154.179 52.9401 154.319 53.478 154.319C54.0386 154.319 54.5064 154.171 54.8814 153.876C55.2602 153.577 55.5442 153.175 55.7336 152.671C55.9268 152.164 56.0234 151.599 56.0234 150.978C56.0234 150.365 55.9287 149.811 55.7393 149.319C55.5537 148.823 55.2715 148.431 54.8927 148.143C54.5177 147.851 54.0461 147.705 53.478 147.705C52.9325 147.705 52.4742 147.844 52.103 148.12C51.7317 148.393 51.4514 148.776 51.262 149.268C51.0727 149.757 50.978 150.327 50.978 150.978ZM58.5298 158.615V146.615H59.8252V148.001H59.9843C60.0828 147.849 60.2192 147.656 60.3934 147.421C60.5714 147.183 60.8252 146.971 61.1548 146.785C61.4881 146.596 61.9389 146.501 62.507 146.501C63.2419 146.501 63.8896 146.685 64.4502 147.052C65.0108 147.419 65.4483 147.94 65.7627 148.615C66.0771 149.289 66.2343 150.084 66.2343 151.001C66.2343 151.925 66.0771 152.726 65.7627 153.404C65.4483 154.079 65.0127 154.601 64.4559 154.972C63.8991 155.34 63.257 155.524 62.5298 155.524C61.9692 155.524 61.5203 155.431 61.1832 155.245C60.8461 155.056 60.5866 154.842 60.4048 154.603C60.223 154.361 60.0828 154.16 59.9843 154.001H59.8707V158.615H58.5298ZM59.848 150.978C59.848 151.637 59.9445 152.219 60.1377 152.722C60.3309 153.222 60.6131 153.615 60.9843 153.899C61.3555 154.179 61.8101 154.319 62.348 154.319C62.9086 154.319 63.3764 154.171 63.7514 153.876C64.1302 153.577 64.4142 153.175 64.6036 152.671C64.7968 152.164 64.8934 151.599 64.8934 150.978C64.8934 150.365 64.7987 149.811 64.6093 149.319C64.4237 148.823 64.1415 148.431 63.7627 148.143C63.3877 147.851 62.9161 147.705 62.348 147.705C61.8025 147.705 61.3442 147.844 60.973 148.12C60.6017 148.393 60.3214 148.776 60.132 149.268C59.9427 149.757 59.848 150.327 59.848 150.978ZM68.7407 143.705V155.342H67.3998V143.705H68.7407ZM73.9757 155.524C73.1348 155.524 72.4095 155.338 71.7996 154.967C71.1935 154.592 70.7257 154.069 70.3962 153.399C70.0704 152.724 69.9076 151.94 69.9076 151.046C69.9076 150.152 70.0704 149.365 70.3962 148.683C70.7257 147.997 71.1841 147.463 71.7712 147.08C72.3621 146.694 73.0515 146.501 73.8394 146.501C74.2939 146.501 74.7428 146.577 75.186 146.728C75.6291 146.88 76.0326 147.126 76.3962 147.467C76.7598 147.804 77.0496 148.251 77.2655 148.808C77.4814 149.365 77.5894 150.05 77.5894 150.865V151.433H70.8621V150.274H76.2257C76.2257 149.781 76.1273 149.342 75.9303 148.955C75.7371 148.569 75.4606 148.264 75.1007 148.041C74.7447 147.817 74.3242 147.705 73.8394 147.705C73.3053 147.705 72.8432 147.838 72.453 148.103C72.0666 148.365 71.7693 148.705 71.561 149.126C71.3526 149.546 71.2485 149.997 71.2485 150.478V151.251C71.2485 151.91 71.3621 152.469 71.5894 152.927C71.8204 153.382 72.1405 153.728 72.5496 153.967C72.9587 154.202 73.4341 154.319 73.9757 154.319C74.328 154.319 74.6462 154.27 74.9303 154.171C75.2182 154.069 75.4663 153.918 75.6746 153.717C75.8829 153.512 76.0439 153.258 76.1576 152.955L77.453 153.319C77.3166 153.758 77.0875 154.145 76.7655 154.478C76.4435 154.808 76.0458 155.065 75.5723 155.251C75.0988 155.433 74.5666 155.524 73.9757 155.524ZM83.9601 143.705V155.342H82.551V143.705H83.9601ZM85.269 144.955V143.705H93.9963V144.955H90.3372V155.342H88.9281V144.955H85.269ZM95.291 155.342V143.705H99.2228C100.136 143.705 100.882 143.87 101.461 144.2C102.045 144.526 102.477 144.967 102.757 145.524C103.037 146.08 103.177 146.702 103.177 147.387C103.177 148.073 103.037 148.696 102.757 149.257C102.48 149.817 102.052 150.264 101.473 150.597C100.893 150.927 100.151 151.092 99.2455 151.092H96.4273V149.842H99.2001C99.8251 149.842 100.327 149.734 100.706 149.518C101.085 149.302 101.359 149.01 101.53 148.643C101.704 148.272 101.791 147.853 101.791 147.387C101.791 146.921 101.704 146.505 101.53 146.137C101.359 145.77 101.083 145.482 100.7 145.274C100.317 145.061 99.8099 144.955 99.1773 144.955H96.7001V155.342H95.291ZM108.187 155.342V143.705H109.528V148.001H109.642C109.74 147.849 109.877 147.656 110.051 147.421C110.229 147.183 110.483 146.971 110.812 146.785C111.146 146.596 111.596 146.501 112.164 146.501C112.899 146.501 113.547 146.685 114.108 147.052C114.668 147.419 115.106 147.94 115.42 148.615C115.735 149.289 115.892 150.084 115.892 151.001C115.892 151.925 115.735 152.726 115.42 153.404C115.106 154.079 114.67 154.601 114.113 154.972C113.557 155.34 112.914 155.524 112.187 155.524C111.627 155.524 111.178 155.431 110.841 155.245C110.504 155.056 110.244 154.842 110.062 154.603C109.88 154.361 109.74 154.16 109.642 154.001H109.483V155.342H108.187ZM109.505 150.978C109.505 151.637 109.602 152.219 109.795 152.722C109.988 153.222 110.271 153.615 110.642 153.899C111.013 154.179 111.468 154.319 112.005 154.319C112.566 154.319 113.034 154.171 113.409 153.876C113.788 153.577 114.072 153.175 114.261 152.671C114.454 152.164 114.551 151.599 114.551 150.978C114.551 150.365 114.456 149.811 114.267 149.319C114.081 148.823 113.799 148.431 113.42 148.143C113.045 147.851 112.574 147.705 112.005 147.705C111.46 147.705 111.002 147.844 110.63 148.12C110.259 148.393 109.979 148.776 109.789 149.268C109.6 149.757 109.505 150.327 109.505 150.978ZM118.404 143.705V155.342H117.063V143.705H118.404ZM123.525 155.524C122.737 155.524 122.046 155.336 121.451 154.961C120.86 154.586 120.398 154.061 120.065 153.387C119.735 152.713 119.571 151.925 119.571 151.024C119.571 150.115 119.735 149.321 120.065 148.643C120.398 147.965 120.86 147.438 121.451 147.063C122.046 146.688 122.737 146.501 123.525 146.501C124.313 146.501 125.003 146.688 125.593 147.063C126.188 147.438 126.65 147.965 126.98 148.643C127.313 149.321 127.48 150.115 127.48 151.024C127.48 151.925 127.313 152.713 126.98 153.387C126.65 154.061 126.188 154.586 125.593 154.961C125.003 155.336 124.313 155.524 123.525 155.524ZM123.525 154.319C124.124 154.319 124.616 154.166 125.003 153.859C125.389 153.552 125.675 153.149 125.86 152.649C126.046 152.149 126.139 151.607 126.139 151.024C126.139 150.44 126.046 149.897 125.86 149.393C125.675 148.889 125.389 148.482 125.003 148.171C124.616 147.861 124.124 147.705 123.525 147.705C122.927 147.705 122.434 147.861 122.048 148.171C121.662 148.482 121.376 148.889 121.19 149.393C121.004 149.897 120.912 150.44 120.912 151.024C120.912 151.607 121.004 152.149 121.19 152.649C121.376 153.149 121.662 153.552 122.048 153.859C122.434 154.166 122.927 154.319 123.525 154.319ZM132.192 155.524C131.374 155.524 130.669 155.33 130.078 154.944C129.488 154.558 129.033 154.026 128.715 153.347C128.397 152.669 128.238 151.895 128.238 151.024C128.238 150.137 128.4 149.355 128.726 148.677C129.056 147.995 129.514 147.463 130.101 147.08C130.692 146.694 131.381 146.501 132.169 146.501C132.783 146.501 133.336 146.615 133.828 146.842C134.321 147.069 134.724 147.387 135.039 147.796C135.353 148.205 135.548 148.683 135.624 149.228H134.283C134.181 148.83 133.953 148.478 133.601 148.171C133.253 147.861 132.783 147.705 132.192 147.705C131.669 147.705 131.211 147.842 130.817 148.115C130.427 148.383 130.122 148.764 129.902 149.257C129.686 149.745 129.578 150.319 129.578 150.978C129.578 151.652 129.685 152.24 129.897 152.74C130.113 153.24 130.416 153.628 130.806 153.904C131.2 154.181 131.662 154.319 132.192 154.319C132.541 154.319 132.857 154.258 133.141 154.137C133.425 154.016 133.666 153.842 133.863 153.615C134.06 153.387 134.2 153.115 134.283 152.796H135.624C135.548 153.311 135.361 153.776 135.061 154.188C134.766 154.597 134.374 154.923 133.885 155.166C133.4 155.404 132.836 155.524 132.192 155.524ZM137.954 152.16L137.931 150.501H138.204L142.022 146.615H143.681L139.613 150.728H139.5L137.954 152.16ZM136.704 155.342V143.705H138.045V155.342H136.704ZM142.25 155.342L138.841 151.024L139.795 150.092L143.954 155.342H142.25ZM150.709 148.569L149.505 148.91C149.429 148.709 149.317 148.514 149.169 148.325C149.025 148.132 148.828 147.972 148.578 147.847C148.328 147.722 148.008 147.66 147.618 147.66C147.084 147.66 146.639 147.783 146.283 148.029C145.931 148.272 145.755 148.58 145.755 148.955C145.755 149.289 145.876 149.552 146.118 149.745C146.361 149.938 146.739 150.099 147.255 150.228L148.55 150.546C149.33 150.736 149.912 151.026 150.294 151.416C150.677 151.802 150.868 152.3 150.868 152.91C150.868 153.41 150.724 153.857 150.436 154.251C150.152 154.645 149.755 154.955 149.243 155.183C148.732 155.41 148.137 155.524 147.459 155.524C146.569 155.524 145.832 155.33 145.249 154.944C144.666 154.558 144.296 153.993 144.141 153.251L145.414 152.933C145.535 153.402 145.764 153.755 146.101 153.99C146.442 154.224 146.887 154.342 147.436 154.342C148.061 154.342 148.558 154.209 148.925 153.944C149.296 153.675 149.482 153.353 149.482 152.978C149.482 152.675 149.376 152.421 149.164 152.217C148.952 152.008 148.626 151.853 148.186 151.751L146.732 151.41C145.933 151.221 145.345 150.927 144.97 150.529C144.599 150.128 144.414 149.626 144.414 149.024C144.414 148.531 144.552 148.096 144.828 147.717C145.109 147.338 145.489 147.041 145.97 146.825C146.455 146.609 147.005 146.501 147.618 146.501C148.482 146.501 149.16 146.69 149.652 147.069C150.148 147.448 150.501 147.948 150.709 148.569ZM158.195 155.546C157.642 155.546 157.14 155.442 156.689 155.234C156.238 155.022 155.88 154.717 155.615 154.319C155.35 153.918 155.218 153.433 155.218 152.865C155.218 152.365 155.316 151.959 155.513 151.649C155.71 151.334 155.973 151.088 156.303 150.91C156.632 150.732 156.996 150.599 157.394 150.512C157.795 150.421 158.199 150.349 158.604 150.296C159.134 150.228 159.564 150.177 159.894 150.143C160.227 150.105 160.469 150.043 160.621 149.955C160.776 149.868 160.854 149.717 160.854 149.501V149.455C160.854 148.895 160.701 148.459 160.394 148.149C160.091 147.838 159.63 147.683 159.013 147.683C158.373 147.683 157.871 147.823 157.507 148.103C157.144 148.383 156.888 148.683 156.74 149.001L155.468 148.546C155.695 148.016 155.998 147.603 156.377 147.308C156.759 147.008 157.176 146.8 157.627 146.683C158.081 146.561 158.528 146.501 158.968 146.501C159.248 146.501 159.57 146.535 159.933 146.603C160.301 146.668 160.655 146.802 160.996 147.007C161.341 147.211 161.627 147.52 161.854 147.933C162.081 148.346 162.195 148.899 162.195 149.592V155.342H160.854V154.16H160.786C160.695 154.349 160.543 154.552 160.331 154.768C160.119 154.984 159.837 155.168 159.485 155.319C159.132 155.471 158.702 155.546 158.195 155.546ZM158.399 154.342C158.93 154.342 159.377 154.238 159.74 154.029C160.108 153.821 160.384 153.552 160.57 153.222C160.759 152.893 160.854 152.546 160.854 152.183V150.955C160.797 151.024 160.672 151.086 160.479 151.143C160.29 151.196 160.07 151.243 159.82 151.285C159.574 151.323 159.333 151.357 159.098 151.387C158.867 151.414 158.68 151.436 158.536 151.455C158.187 151.501 157.861 151.575 157.558 151.677C157.259 151.776 157.017 151.925 156.831 152.126C156.649 152.323 156.558 152.592 156.558 152.933C156.558 153.399 156.731 153.751 157.076 153.99C157.424 154.224 157.865 154.342 158.399 154.342ZM165.103 143.705V155.342H163.762V143.705H165.103ZM168.02 143.705V155.342H166.679V143.705H168.02ZM177.011 146.615V147.751H172.489V146.615H177.011ZM173.807 144.524H175.148V152.842C175.148 153.221 175.203 153.505 175.313 153.694C175.426 153.88 175.57 154.005 175.744 154.069C175.922 154.13 176.11 154.16 176.307 154.16C176.455 154.16 176.576 154.152 176.671 154.137C176.765 154.118 176.841 154.103 176.898 154.092L177.171 155.296C177.08 155.33 176.953 155.365 176.79 155.399C176.627 155.436 176.421 155.455 176.171 155.455C175.792 155.455 175.421 155.374 175.057 155.211C174.697 155.048 174.398 154.8 174.159 154.467C173.924 154.133 173.807 153.713 173.807 153.205V144.524ZM179.677 150.092V155.342H178.336V143.705H179.677V147.978H179.791C179.995 147.527 180.302 147.169 180.711 146.904C181.124 146.635 181.673 146.501 182.359 146.501C182.953 146.501 183.474 146.62 183.921 146.859C184.368 147.094 184.715 147.455 184.961 147.944C185.211 148.429 185.336 149.046 185.336 149.796V155.342H183.995V149.887C183.995 149.194 183.815 148.658 183.455 148.279C183.099 147.897 182.605 147.705 181.972 147.705C181.533 147.705 181.139 147.798 180.791 147.984C180.446 148.169 180.173 148.44 179.972 148.796C179.775 149.152 179.677 149.584 179.677 150.092ZM186.909 155.342V146.615H188.25V155.342H186.909ZM187.591 145.16C187.33 145.16 187.104 145.071 186.915 144.893C186.729 144.715 186.636 144.501 186.636 144.251C186.636 144.001 186.729 143.787 186.915 143.609C187.104 143.431 187.33 143.342 187.591 143.342C187.852 143.342 188.076 143.431 188.261 143.609C188.451 143.787 188.546 144.001 188.546 144.251C188.546 144.501 188.451 144.715 188.261 144.893C188.076 145.071 187.852 145.16 187.591 145.16ZM189.826 155.342V146.615H191.121V147.933H191.212C191.371 147.501 191.659 147.151 192.076 146.882C192.493 146.613 192.962 146.478 193.485 146.478C193.584 146.478 193.707 146.48 193.854 146.484C194.002 146.488 194.114 146.493 194.19 146.501V147.865C194.144 147.853 194.04 147.836 193.877 147.813C193.718 147.787 193.55 147.774 193.371 147.774C192.947 147.774 192.568 147.863 192.235 148.041C191.906 148.215 191.644 148.457 191.451 148.768C191.262 149.075 191.167 149.425 191.167 149.819V155.342H189.826ZM197.929 155.524C197.202 155.524 196.56 155.34 196.003 154.972C195.446 154.601 195.01 154.079 194.696 153.404C194.382 152.726 194.224 151.925 194.224 151.001C194.224 150.084 194.382 149.289 194.696 148.615C195.01 147.94 195.448 147.419 196.009 147.052C196.569 146.685 197.217 146.501 197.952 146.501C198.52 146.501 198.969 146.596 199.298 146.785C199.632 146.971 199.885 147.183 200.06 147.421C200.238 147.656 200.376 147.849 200.474 148.001H200.588V143.705H201.929V155.342H200.634V154.001H200.474C200.376 154.16 200.236 154.361 200.054 154.603C199.872 154.842 199.613 155.056 199.276 155.245C198.938 155.431 198.49 155.524 197.929 155.524ZM198.111 154.319C198.649 154.319 199.103 154.179 199.474 153.899C199.846 153.615 200.128 153.222 200.321 152.722C200.514 152.219 200.611 151.637 200.611 150.978C200.611 150.327 200.516 149.757 200.327 149.268C200.137 148.776 199.857 148.393 199.486 148.12C199.115 147.844 198.656 147.705 198.111 147.705C197.543 147.705 197.069 147.851 196.69 148.143C196.315 148.431 196.033 148.823 195.844 149.319C195.658 149.811 195.565 150.365 195.565 150.978C195.565 151.599 195.66 152.164 195.849 152.671C196.043 153.175 196.327 153.577 196.702 153.876C197.08 154.171 197.55 154.319 198.111 154.319ZM207.311 158.615V146.615H208.606V148.001H208.766C208.864 147.849 209 147.656 209.175 147.421C209.353 147.183 209.606 146.971 209.936 146.785C210.269 146.596 210.72 146.501 211.288 146.501C212.023 146.501 212.671 146.685 213.231 147.052C213.792 147.419 214.23 147.94 214.544 148.615C214.858 149.289 215.016 150.084 215.016 151.001C215.016 151.925 214.858 152.726 214.544 153.404C214.23 154.079 213.794 154.601 213.237 154.972C212.68 155.34 212.038 155.524 211.311 155.524C210.75 155.524 210.302 155.431 209.964 155.245C209.627 155.056 209.368 154.842 209.186 154.603C209.004 154.361 208.864 154.16 208.766 154.001H208.652V158.615H207.311ZM208.629 150.978C208.629 151.637 208.726 152.219 208.919 152.722C209.112 153.222 209.394 153.615 209.766 153.899C210.137 154.179 210.591 154.319 211.129 154.319C211.69 154.319 212.158 154.171 212.533 153.876C212.911 153.577 213.195 153.175 213.385 152.671C213.578 152.164 213.675 151.599 213.675 150.978C213.675 150.365 213.58 149.811 213.391 149.319C213.205 148.823 212.923 148.431 212.544 148.143C212.169 147.851 211.697 147.705 211.129 147.705C210.584 147.705 210.125 147.844 209.754 148.12C209.383 148.393 209.103 148.776 208.913 149.268C208.724 149.757 208.629 150.327 208.629 150.978ZM218.749 155.546C218.196 155.546 217.694 155.442 217.244 155.234C216.793 155.022 216.435 154.717 216.17 154.319C215.905 153.918 215.772 153.433 215.772 152.865C215.772 152.365 215.87 151.959 216.067 151.649C216.264 151.334 216.528 151.088 216.857 150.91C217.187 150.732 217.55 150.599 217.948 150.512C218.35 150.421 218.753 150.349 219.158 150.296C219.689 150.228 220.119 150.177 220.448 150.143C220.781 150.105 221.024 150.043 221.175 149.955C221.331 149.868 221.408 149.717 221.408 149.501V149.455C221.408 148.895 221.255 148.459 220.948 148.149C220.645 147.838 220.185 147.683 219.567 147.683C218.927 147.683 218.425 147.823 218.062 148.103C217.698 148.383 217.442 148.683 217.295 149.001L216.022 148.546C216.249 148.016 216.552 147.603 216.931 147.308C217.314 147.008 217.73 146.8 218.181 146.683C218.636 146.561 219.083 146.501 219.522 146.501C219.802 146.501 220.124 146.535 220.488 146.603C220.855 146.668 221.209 146.802 221.55 147.007C221.895 147.211 222.181 147.52 222.408 147.933C222.636 148.346 222.749 148.899 222.749 149.592V155.342H221.408V154.16H221.34C221.249 154.349 221.098 154.552 220.886 154.768C220.673 154.984 220.391 155.168 220.039 155.319C219.687 155.471 219.257 155.546 218.749 155.546ZM218.954 154.342C219.484 154.342 219.931 154.238 220.295 154.029C220.662 153.821 220.939 153.552 221.124 153.222C221.314 152.893 221.408 152.546 221.408 152.183V150.955C221.351 151.024 221.226 151.086 221.033 151.143C220.844 151.196 220.624 151.243 220.374 151.285C220.128 151.323 219.887 151.357 219.653 151.387C219.422 151.414 219.234 151.436 219.09 151.455C218.742 151.501 218.416 151.575 218.113 151.677C217.814 151.776 217.571 151.925 217.386 152.126C217.204 152.323 217.113 152.592 217.113 152.933C217.113 153.399 217.285 153.751 217.63 153.99C217.978 154.224 218.42 154.342 218.954 154.342ZM224.317 155.342V146.615H225.612V147.933H225.703C225.862 147.501 226.15 147.151 226.567 146.882C226.983 146.613 227.453 146.478 227.976 146.478C228.074 146.478 228.197 146.48 228.345 146.484C228.493 146.488 228.605 146.493 228.68 146.501V147.865C228.635 147.853 228.531 147.836 228.368 147.813C228.209 147.787 228.04 147.774 227.862 147.774C227.438 147.774 227.059 147.863 226.726 148.041C226.396 148.215 226.135 148.457 225.942 148.768C225.752 149.075 225.658 149.425 225.658 149.819V155.342H224.317ZM233.732 146.615V147.751H229.209V146.615H233.732ZM230.528 144.524H231.868V152.842C231.868 153.221 231.923 153.505 232.033 153.694C232.147 153.88 232.291 154.005 232.465 154.069C232.643 154.13 232.831 154.16 233.028 154.16C233.175 154.16 233.297 154.152 233.391 154.137C233.486 154.118 233.562 154.103 233.618 154.092L233.891 155.296C233.8 155.33 233.673 155.365 233.511 155.399C233.348 155.436 233.141 155.455 232.891 155.455C232.512 155.455 232.141 155.374 231.778 155.211C231.418 155.048 231.118 154.8 230.88 154.467C230.645 154.133 230.528 153.713 230.528 153.205V144.524ZM235.733 158.615C235.506 158.615 235.303 158.596 235.125 158.558C234.947 158.524 234.824 158.49 234.756 158.455L235.096 157.274C235.422 157.357 235.71 157.387 235.96 157.365C236.21 157.342 236.432 157.23 236.625 157.029C236.822 156.832 237.002 156.512 237.165 156.069L237.415 155.387L234.187 146.615H235.642L238.051 153.569H238.142L240.551 146.615H242.006L238.301 156.615C238.134 157.065 237.928 157.438 237.682 157.734C237.435 158.033 237.149 158.255 236.824 158.399C236.502 158.543 236.138 158.615 235.733 158.615ZM43.2727 182.524C42.4545 182.524 41.75 182.33 41.1591 181.944C40.5682 181.558 40.1136 181.026 39.7955 180.347C39.4773 179.669 39.3182 178.895 39.3182 178.024C39.3182 177.137 39.4811 176.355 39.8068 175.677C40.1364 174.995 40.5947 174.463 41.1818 174.08C41.7727 173.694 42.4621 173.501 43.25 173.501C43.8636 173.501 44.4167 173.615 44.9091 173.842C45.4015 174.069 45.8049 174.387 46.1193 174.796C46.4337 175.205 46.6288 175.683 46.7045 176.228H45.3636C45.2614 175.83 45.0341 175.478 44.6818 175.171C44.3333 174.861 43.8636 174.705 43.2727 174.705C42.75 174.705 42.2917 174.842 41.8977 175.115C41.5076 175.383 41.2027 175.764 40.983 176.257C40.767 176.745 40.6591 177.319 40.6591 177.978C40.6591 178.652 40.7652 179.24 40.9773 179.74C41.1932 180.24 41.4962 180.628 41.8864 180.904C42.2803 181.181 42.7424 181.319 43.2727 181.319C43.6212 181.319 43.9375 181.258 44.2216 181.137C44.5057 181.016 44.7462 180.842 44.9432 180.615C45.1402 180.387 45.2803 180.115 45.3636 179.796H46.7045C46.6288 180.311 46.4413 180.776 46.142 181.188C45.8466 181.597 45.4545 181.923 44.9659 182.166C44.4811 182.404 43.9167 182.524 43.2727 182.524ZM51.3302 182.524C50.5423 182.524 49.8511 182.336 49.2564 181.961C48.6655 181.586 48.2033 181.061 47.87 180.387C47.5405 179.713 47.3757 178.925 47.3757 178.024C47.3757 177.115 47.5405 176.321 47.87 175.643C48.2033 174.965 48.6655 174.438 49.2564 174.063C49.8511 173.688 50.5423 173.501 51.3302 173.501C52.1181 173.501 52.8075 173.688 53.3984 174.063C53.9931 174.438 54.4552 174.965 54.7848 175.643C55.1181 176.321 55.2848 177.115 55.2848 178.024C55.2848 178.925 55.1181 179.713 54.7848 180.387C54.4552 181.061 53.9931 181.586 53.3984 181.961C52.8075 182.336 52.1181 182.524 51.3302 182.524ZM51.3302 181.319C51.9287 181.319 52.4211 181.166 52.8075 180.859C53.1939 180.552 53.4798 180.149 53.6655 179.649C53.8511 179.149 53.9439 178.607 53.9439 178.024C53.9439 177.44 53.8511 176.897 53.6655 176.393C53.4798 175.889 53.1939 175.482 52.8075 175.171C52.4211 174.861 51.9287 174.705 51.3302 174.705C50.7317 174.705 50.2393 174.861 49.853 175.171C49.4666 175.482 49.1806 175.889 48.995 176.393C48.8094 176.897 48.7166 177.44 48.7166 178.024C48.7166 178.607 48.8094 179.149 48.995 179.649C49.1806 180.149 49.4666 180.552 49.853 180.859C50.2393 181.166 50.7317 181.319 51.3302 181.319ZM59.9971 182.524C59.2092 182.524 58.5179 182.336 57.9232 181.961C57.3323 181.586 56.8702 181.061 56.5369 180.387C56.2073 179.713 56.0426 178.925 56.0426 178.024C56.0426 177.115 56.2073 176.321 56.5369 175.643C56.8702 174.965 57.3323 174.438 57.9232 174.063C58.5179 173.688 59.2092 173.501 59.9971 173.501C60.785 173.501 61.4744 173.688 62.0653 174.063C62.66 174.438 63.1221 174.965 63.4516 175.643C63.785 176.321 63.9516 177.115 63.9516 178.024C63.9516 178.925 63.785 179.713 63.4516 180.387C63.1221 181.061 62.66 181.586 62.0653 181.961C61.4744 182.336 60.785 182.524 59.9971 182.524ZM59.9971 181.319C60.5956 181.319 61.088 181.166 61.4744 180.859C61.8607 180.552 62.1467 180.149 62.3323 179.649C62.5179 179.149 62.6107 178.607 62.6107 178.024C62.6107 177.44 62.5179 176.897 62.3323 176.393C62.1467 175.889 61.8607 175.482 61.4744 175.171C61.088 174.861 60.5956 174.705 59.9971 174.705C59.3986 174.705 58.9062 174.861 58.5198 175.171C58.1335 175.482 57.8475 175.889 57.6619 176.393C57.4763 176.897 57.3835 177.44 57.3835 178.024C57.3835 178.607 57.4763 179.149 57.6619 179.649C57.8475 180.149 58.1335 180.552 58.5198 180.859C58.9062 181.166 59.3986 181.319 59.9971 181.319ZM66.3685 179.16L66.3458 177.501H66.6185L70.4367 173.615H72.0958L68.0276 177.728H67.914L66.3685 179.16ZM65.1185 182.342V170.705H66.4594V182.342H65.1185ZM70.664 182.342L67.2549 178.024L68.2094 177.092L72.3685 182.342H70.664ZM72.9416 182.342V173.615H74.2826V182.342H72.9416ZM73.6235 172.16C73.3621 172.16 73.1367 172.071 72.9473 171.893C72.7617 171.715 72.6689 171.501 72.6689 171.251C72.6689 171.001 72.7617 170.787 72.9473 170.609C73.1367 170.431 73.3621 170.342 73.6235 170.342C73.8848 170.342 74.1083 170.431 74.2939 170.609C74.4833 170.787 74.578 171.001 74.578 171.251C74.578 171.501 74.4833 171.715 74.2939 171.893C74.1083 172.071 73.8848 172.16 73.6235 172.16ZM79.5176 182.524C78.6767 182.524 77.9513 182.338 77.3415 181.967C76.7354 181.592 76.2676 181.069 75.9381 180.399C75.6123 179.724 75.4494 178.94 75.4494 178.046C75.4494 177.152 75.6123 176.365 75.9381 175.683C76.2676 174.997 76.7259 174.463 77.3131 174.08C77.904 173.694 78.5934 173.501 79.3812 173.501C79.8358 173.501 80.2847 173.577 80.7278 173.728C81.171 173.88 81.5744 174.126 81.9381 174.467C82.3017 174.804 82.5915 175.251 82.8074 175.808C83.0233 176.365 83.1312 177.05 83.1312 177.865V178.433H76.404V177.274H81.7676C81.7676 176.781 81.6691 176.342 81.4722 175.955C81.279 175.569 81.0025 175.264 80.6426 175.041C80.2866 174.817 79.8661 174.705 79.3812 174.705C78.8472 174.705 78.385 174.838 77.9949 175.103C77.6085 175.365 77.3112 175.705 77.1028 176.126C76.8945 176.546 76.7903 176.997 76.7903 177.478V178.251C76.7903 178.91 76.904 179.469 77.1312 179.927C77.3623 180.382 77.6824 180.728 78.0915 180.967C78.5006 181.202 78.9759 181.319 79.5176 181.319C79.8699 181.319 80.1881 181.27 80.4722 181.171C80.76 181.069 81.0081 180.918 81.2165 180.717C81.4248 180.512 81.5858 180.258 81.6994 179.955L82.9949 180.319C82.8585 180.758 82.6294 181.145 82.3074 181.478C81.9854 181.808 81.5877 182.065 81.1142 182.251C80.6407 182.433 80.1085 182.524 79.5176 182.524ZM90.4728 175.569L89.2683 175.91C89.1925 175.709 89.0808 175.514 88.9331 175.325C88.7891 175.132 88.5922 174.972 88.3422 174.847C88.0922 174.722 87.7721 174.66 87.3819 174.66C86.8478 174.66 86.4028 174.783 86.0467 175.029C85.6944 175.272 85.5183 175.58 85.5183 175.955C85.5183 176.289 85.6395 176.552 85.8819 176.745C86.1244 176.938 86.5031 177.099 87.0183 177.228L88.3138 177.546C89.0941 177.736 89.6755 178.026 90.0581 178.416C90.4406 178.802 90.6319 179.3 90.6319 179.91C90.6319 180.41 90.488 180.857 90.2001 181.251C89.916 181.645 89.5183 181.955 89.0069 182.183C88.4956 182.41 87.9009 182.524 87.2228 182.524C86.3327 182.524 85.5959 182.33 85.0126 181.944C84.4293 181.558 84.06 180.993 83.9047 180.251L85.1774 179.933C85.2986 180.402 85.5278 180.755 85.8649 180.99C86.2058 181.224 86.6509 181.342 87.2001 181.342C87.8251 181.342 88.3213 181.209 88.6888 180.944C89.06 180.675 89.2456 180.353 89.2456 179.978C89.2456 179.675 89.1395 179.421 88.9274 179.217C88.7153 179.008 88.3895 178.853 87.9501 178.751L86.4956 178.41C85.6963 178.221 85.1092 177.927 84.7342 177.529C84.363 177.128 84.1774 176.626 84.1774 176.024C84.1774 175.531 84.3156 175.096 84.5922 174.717C84.8725 174.338 85.2531 174.041 85.7342 173.825C86.2191 173.609 86.7683 173.501 87.3819 173.501C88.2456 173.501 88.9236 173.69 89.416 174.069C89.9122 174.448 90.2645 174.948 90.4728 175.569ZM95.3904 182.342V173.615H96.7313V182.342H95.3904ZM96.0722 172.16C95.8109 172.16 95.5855 172.071 95.3961 171.893C95.2105 171.715 95.1177 171.501 95.1177 171.251C95.1177 171.001 95.2105 170.787 95.3961 170.609C95.5855 170.431 95.8109 170.342 96.0722 170.342C96.3336 170.342 96.5571 170.431 96.7427 170.609C96.9321 170.787 97.0268 171.001 97.0268 171.251C97.0268 171.501 96.9321 171.715 96.7427 171.893C96.5571 172.071 96.3336 172.16 96.0722 172.16ZM99.6482 177.092V182.342H98.3073V173.615H99.6027V174.978H99.7164C99.9209 174.535 100.232 174.179 100.648 173.91C101.065 173.637 101.603 173.501 102.262 173.501C102.853 173.501 103.37 173.622 103.813 173.865C104.256 174.103 104.601 174.467 104.847 174.955C105.093 175.44 105.216 176.054 105.216 176.796V182.342H103.875V176.887C103.875 176.202 103.697 175.668 103.341 175.285C102.985 174.899 102.497 174.705 101.875 174.705C101.447 174.705 101.065 174.798 100.728 174.984C100.394 175.169 100.131 175.44 99.938 175.796C99.7448 176.152 99.6482 176.584 99.6482 177.092ZM116.952 173.615C116.884 173.039 116.607 172.592 116.123 172.274C115.638 171.955 115.043 171.796 114.338 171.796C113.823 171.796 113.373 171.88 112.986 172.046C112.604 172.213 112.304 172.442 112.088 172.734C111.876 173.026 111.77 173.357 111.77 173.728C111.77 174.039 111.844 174.306 111.992 174.529C112.143 174.749 112.337 174.933 112.571 175.08C112.806 175.224 113.052 175.344 113.31 175.438C113.568 175.529 113.804 175.603 114.02 175.66L115.202 175.978C115.505 176.058 115.842 176.168 116.213 176.308C116.588 176.448 116.946 176.639 117.287 176.882C117.632 177.12 117.916 177.427 118.14 177.802C118.363 178.177 118.475 178.637 118.475 179.183C118.475 179.811 118.31 180.38 117.981 180.887C117.655 181.395 117.177 181.798 116.549 182.097C115.924 182.397 115.164 182.546 114.27 182.546C113.437 182.546 112.715 182.412 112.106 182.143C111.499 181.874 111.022 181.499 110.674 181.018C110.329 180.537 110.134 179.978 110.088 179.342H111.543C111.581 179.781 111.729 180.145 111.986 180.433C112.248 180.717 112.577 180.929 112.975 181.069C113.376 181.205 113.808 181.274 114.27 181.274C114.808 181.274 115.291 181.186 115.719 181.012C116.147 180.834 116.486 180.588 116.736 180.274C116.986 179.955 117.111 179.584 117.111 179.16C117.111 178.774 117.003 178.459 116.787 178.217C116.571 177.974 116.287 177.777 115.935 177.626C115.583 177.474 115.202 177.342 114.793 177.228L113.361 176.819C112.452 176.558 111.732 176.185 111.202 175.7C110.672 175.215 110.407 174.58 110.407 173.796C110.407 173.145 110.583 172.577 110.935 172.092C111.291 171.603 111.768 171.224 112.367 170.955C112.969 170.683 113.641 170.546 114.384 170.546C115.134 170.546 115.801 170.681 116.384 170.95C116.967 171.215 117.429 171.579 117.77 172.041C118.115 172.503 118.297 173.027 118.316 173.615H116.952ZM122.298 182.546C121.745 182.546 121.243 182.442 120.792 182.234C120.342 182.022 119.984 181.717 119.718 181.319C119.453 180.918 119.321 180.433 119.321 179.865C119.321 179.365 119.419 178.959 119.616 178.649C119.813 178.334 120.076 178.088 120.406 177.91C120.735 177.732 121.099 177.599 121.497 177.512C121.898 177.421 122.302 177.349 122.707 177.296C123.237 177.228 123.667 177.177 123.997 177.143C124.33 177.105 124.573 177.043 124.724 176.955C124.879 176.868 124.957 176.717 124.957 176.501V176.455C124.957 175.895 124.804 175.459 124.497 175.149C124.194 174.838 123.734 174.683 123.116 174.683C122.476 174.683 121.974 174.823 121.61 175.103C121.247 175.383 120.991 175.683 120.843 176.001L119.571 175.546C119.798 175.016 120.101 174.603 120.48 174.308C120.862 174.008 121.279 173.8 121.73 173.683C122.184 173.561 122.631 173.501 123.071 173.501C123.351 173.501 123.673 173.535 124.037 173.603C124.404 173.668 124.758 173.802 125.099 174.007C125.444 174.211 125.73 174.52 125.957 174.933C126.184 175.346 126.298 175.899 126.298 176.592V182.342H124.957V181.16H124.889C124.798 181.349 124.646 181.552 124.434 181.768C124.222 181.984 123.94 182.168 123.588 182.319C123.235 182.471 122.806 182.546 122.298 182.546ZM122.503 181.342C123.033 181.342 123.48 181.238 123.843 181.029C124.211 180.821 124.487 180.552 124.673 180.222C124.862 179.893 124.957 179.546 124.957 179.183V177.955C124.9 178.024 124.775 178.086 124.582 178.143C124.393 178.196 124.173 178.243 123.923 178.285C123.677 178.323 123.436 178.357 123.201 178.387C122.97 178.414 122.783 178.436 122.639 178.455C122.29 178.501 121.965 178.575 121.662 178.677C121.362 178.776 121.12 178.925 120.934 179.126C120.753 179.323 120.662 179.592 120.662 179.933C120.662 180.399 120.834 180.751 121.179 180.99C121.527 181.224 121.968 181.342 122.503 181.342ZM131.752 173.615V174.751H127.047V173.615H131.752ZM128.456 182.342V172.41C128.456 171.91 128.574 171.493 128.809 171.16C129.043 170.827 129.348 170.577 129.723 170.41C130.098 170.243 130.494 170.16 130.911 170.16C131.24 170.16 131.509 170.186 131.718 170.24C131.926 170.293 132.081 170.342 132.184 170.387L131.797 171.546C131.729 171.524 131.634 171.495 131.513 171.461C131.396 171.427 131.24 171.41 131.047 171.41C130.604 171.41 130.284 171.522 130.087 171.745C129.894 171.969 129.797 172.296 129.797 172.728V182.342H128.456ZM135.069 182.546C134.516 182.546 134.014 182.442 133.564 182.234C133.113 182.022 132.755 181.717 132.49 181.319C132.225 180.918 132.092 180.433 132.092 179.865C132.092 179.365 132.19 178.959 132.387 178.649C132.584 178.334 132.848 178.088 133.177 177.91C133.507 177.732 133.87 177.599 134.268 177.512C134.67 177.421 135.073 177.349 135.478 177.296C136.009 177.228 136.439 177.177 136.768 177.143C137.101 177.105 137.344 177.043 137.495 176.955C137.651 176.868 137.728 176.717 137.728 176.501V176.455C137.728 175.895 137.575 175.459 137.268 175.149C136.965 174.838 136.505 174.683 135.887 174.683C135.247 174.683 134.745 174.823 134.382 175.103C134.018 175.383 133.762 175.683 133.615 176.001L132.342 175.546C132.569 175.016 132.872 174.603 133.251 174.308C133.634 174.008 134.05 173.8 134.501 173.683C134.956 173.561 135.403 173.501 135.842 173.501C136.122 173.501 136.444 173.535 136.808 173.603C137.175 173.668 137.529 173.802 137.87 174.007C138.215 174.211 138.501 174.52 138.728 174.933C138.956 175.346 139.069 175.899 139.069 176.592V182.342H137.728V181.16H137.66C137.569 181.349 137.418 181.552 137.206 181.768C136.993 181.984 136.711 182.168 136.359 182.319C136.007 182.471 135.577 182.546 135.069 182.546ZM135.274 181.342C135.804 181.342 136.251 181.238 136.615 181.029C136.982 180.821 137.259 180.552 137.444 180.222C137.634 179.893 137.728 179.546 137.728 179.183V177.955C137.671 178.024 137.546 178.086 137.353 178.143C137.164 178.196 136.944 178.243 136.694 178.285C136.448 178.323 136.207 178.357 135.973 178.387C135.742 178.414 135.554 178.436 135.41 178.455C135.062 178.501 134.736 178.575 134.433 178.677C134.134 178.776 133.891 178.925 133.706 179.126C133.524 179.323 133.433 179.592 133.433 179.933C133.433 180.399 133.605 180.751 133.95 180.99C134.298 181.224 134.74 181.342 135.274 181.342ZM140.637 182.342V173.615H141.932V174.933H142.023C142.182 174.501 142.47 174.151 142.887 173.882C143.303 173.613 143.773 173.478 144.296 173.478C144.394 173.478 144.517 173.48 144.665 173.484C144.813 173.488 144.925 173.493 145 173.501V174.865C144.955 174.853 144.851 174.836 144.688 174.813C144.529 174.787 144.36 174.774 144.182 174.774C143.758 174.774 143.379 174.863 143.046 175.041C142.716 175.215 142.455 175.457 142.262 175.768C142.072 176.075 141.978 176.425 141.978 176.819V182.342H140.637ZM145.71 182.342V173.615H147.051V182.342H145.71ZM146.392 172.16C146.13 172.16 145.905 172.071 145.715 171.893C145.53 171.715 145.437 171.501 145.437 171.251C145.437 171.001 145.53 170.787 145.715 170.609C145.905 170.431 146.13 170.342 146.392 170.342C146.653 170.342 146.876 170.431 147.062 170.609C147.251 170.787 147.346 171.001 147.346 171.251C147.346 171.501 147.251 171.715 147.062 171.893C146.876 172.071 146.653 172.16 146.392 172.16ZM152.428 182.342V170.705H153.769V175.001H153.883C153.981 174.849 154.118 174.656 154.292 174.421C154.47 174.183 154.724 173.971 155.053 173.785C155.387 173.596 155.838 173.501 156.406 173.501C157.141 173.501 157.788 173.685 158.349 174.052C158.91 174.419 159.347 174.94 159.661 175.615C159.976 176.289 160.133 177.084 160.133 178.001C160.133 178.925 159.976 179.726 159.661 180.404C159.347 181.079 158.911 181.601 158.355 181.972C157.798 182.34 157.156 182.524 156.428 182.524C155.868 182.524 155.419 182.431 155.082 182.245C154.745 182.056 154.485 181.842 154.303 181.603C154.122 181.361 153.981 181.16 153.883 181.001H153.724V182.342H152.428ZM153.747 177.978C153.747 178.637 153.843 179.219 154.036 179.722C154.23 180.222 154.512 180.615 154.883 180.899C155.254 181.179 155.709 181.319 156.247 181.319C156.807 181.319 157.275 181.171 157.65 180.876C158.029 180.577 158.313 180.175 158.502 179.671C158.696 179.164 158.792 178.599 158.792 177.978C158.792 177.365 158.697 176.811 158.508 176.319C158.322 175.823 158.04 175.431 157.661 175.143C157.286 174.851 156.815 174.705 156.247 174.705C155.701 174.705 155.243 174.844 154.872 175.12C154.5 175.393 154.22 175.776 154.031 176.268C153.841 176.757 153.747 177.327 153.747 177.978ZM161.855 185.615C161.628 185.615 161.425 185.596 161.247 185.558C161.069 185.524 160.946 185.49 160.878 185.455L161.219 184.274C161.545 184.357 161.833 184.387 162.083 184.365C162.333 184.342 162.554 184.23 162.747 184.029C162.944 183.832 163.124 183.512 163.287 183.069L163.537 182.387L160.31 173.615H161.764L164.173 180.569H164.264L166.673 173.615H168.128L164.423 183.615C164.257 184.065 164.05 184.438 163.804 184.734C163.558 185.033 163.272 185.255 162.946 185.399C162.624 185.543 162.261 185.615 161.855 185.615ZM175.933 182.524C175.206 182.524 174.564 182.34 174.007 181.972C173.45 181.601 173.015 181.079 172.7 180.404C172.386 179.726 172.229 178.925 172.229 178.001C172.229 177.084 172.386 176.289 172.7 175.615C173.015 174.94 173.452 174.419 174.013 174.052C174.574 173.685 175.221 173.501 175.956 173.501C176.524 173.501 176.973 173.596 177.303 173.785C177.636 173.971 177.89 174.183 178.064 174.421C178.242 174.656 178.38 174.849 178.479 175.001H178.592V170.705H179.933V182.342H178.638V181.001H178.479C178.38 181.16 178.24 181.361 178.058 181.603C177.877 181.842 177.617 182.056 177.28 182.245C176.943 182.431 176.494 182.524 175.933 182.524ZM176.115 181.319C176.653 181.319 177.108 181.179 177.479 180.899C177.85 180.615 178.132 180.222 178.325 179.722C178.519 179.219 178.615 178.637 178.615 177.978C178.615 177.327 178.52 176.757 178.331 176.268C178.142 175.776 177.861 175.393 177.49 175.12C177.119 174.844 176.661 174.705 176.115 174.705C175.547 174.705 175.074 174.851 174.695 175.143C174.32 175.431 174.038 175.823 173.848 176.319C173.663 176.811 173.57 177.365 173.57 177.978C173.57 178.599 173.664 179.164 173.854 179.671C174.047 180.175 174.331 180.577 174.706 180.876C175.085 181.171 175.555 181.319 176.115 181.319ZM185.354 182.524C184.514 182.524 183.788 182.338 183.178 181.967C182.572 181.592 182.104 181.069 181.775 180.399C181.449 179.724 181.286 178.94 181.286 178.046C181.286 177.152 181.449 176.365 181.775 175.683C182.104 174.997 182.563 174.463 183.15 174.08C183.741 173.694 184.43 173.501 185.218 173.501C185.673 173.501 186.122 173.577 186.565 173.728C187.008 173.88 187.411 174.126 187.775 174.467C188.139 174.804 188.428 175.251 188.644 175.808C188.86 176.365 188.968 177.05 188.968 177.865V178.433H182.241V177.274H187.604C187.604 176.781 187.506 176.342 187.309 175.955C187.116 175.569 186.839 175.264 186.479 175.041C186.123 174.817 185.703 174.705 185.218 174.705C184.684 174.705 184.222 174.838 183.832 175.103C183.445 175.365 183.148 175.705 182.94 176.126C182.731 176.546 182.627 176.997 182.627 177.478V178.251C182.627 178.91 182.741 179.469 182.968 179.927C183.199 180.382 183.519 180.728 183.928 180.967C184.337 181.202 184.813 181.319 185.354 181.319C185.707 181.319 186.025 181.27 186.309 181.171C186.597 181.069 186.845 180.918 187.053 180.717C187.262 180.512 187.423 180.258 187.536 179.955L188.832 180.319C188.695 180.758 188.466 181.145 188.144 181.478C187.822 181.808 187.425 182.065 186.951 182.251C186.478 182.433 185.945 182.524 185.354 182.524ZM194.014 173.615V174.751H189.31V173.615H194.014ZM190.719 182.342V172.41C190.719 171.91 190.836 171.493 191.071 171.16C191.306 170.827 191.611 170.577 191.986 170.41C192.361 170.243 192.757 170.16 193.173 170.16C193.503 170.16 193.772 170.186 193.98 170.24C194.188 170.293 194.344 170.342 194.446 170.387L194.06 171.546C193.992 171.524 193.897 171.495 193.776 171.461C193.658 171.427 193.503 171.41 193.31 171.41C192.867 171.41 192.546 171.522 192.349 171.745C192.156 171.969 192.06 172.296 192.06 172.728V182.342H190.719ZM197.332 182.546C196.779 182.546 196.277 182.442 195.826 182.234C195.375 182.022 195.017 181.717 194.752 181.319C194.487 180.918 194.354 180.433 194.354 179.865C194.354 179.365 194.453 178.959 194.65 178.649C194.847 178.334 195.11 178.088 195.44 177.91C195.769 177.732 196.133 177.599 196.531 177.512C196.932 177.421 197.335 177.349 197.741 177.296C198.271 177.228 198.701 177.177 199.031 177.143C199.364 177.105 199.606 177.043 199.758 176.955C199.913 176.868 199.991 176.717 199.991 176.501V176.455C199.991 175.895 199.837 175.459 199.531 175.149C199.228 174.838 198.767 174.683 198.15 174.683C197.51 174.683 197.008 174.823 196.644 175.103C196.281 175.383 196.025 175.683 195.877 176.001L194.604 175.546C194.832 175.016 195.135 174.603 195.514 174.308C195.896 174.008 196.313 173.8 196.764 173.683C197.218 173.561 197.665 173.501 198.104 173.501C198.385 173.501 198.707 173.535 199.07 173.603C199.438 173.668 199.792 173.802 200.133 174.007C200.478 174.211 200.764 174.52 200.991 174.933C201.218 175.346 201.332 175.899 201.332 176.592V182.342H199.991V181.16H199.923C199.832 181.349 199.68 181.552 199.468 181.768C199.256 181.984 198.974 182.168 198.621 182.319C198.269 182.471 197.839 182.546 197.332 182.546ZM197.536 181.342C198.067 181.342 198.514 181.238 198.877 181.029C199.245 180.821 199.521 180.552 199.707 180.222C199.896 179.893 199.991 179.546 199.991 179.183V177.955C199.934 178.024 199.809 178.086 199.616 178.143C199.426 178.196 199.207 178.243 198.957 178.285C198.71 178.323 198.47 178.357 198.235 178.387C198.004 178.414 197.817 178.436 197.673 178.455C197.324 178.501 196.998 178.575 196.695 178.677C196.396 178.776 196.154 178.925 195.968 179.126C195.786 179.323 195.695 179.592 195.695 179.933C195.695 180.399 195.868 180.751 196.212 180.99C196.561 181.224 197.002 181.342 197.536 181.342ZM208.399 178.774V173.615H209.74V182.342H208.399V180.865H208.308C208.104 181.308 207.786 181.685 207.354 181.995C206.922 182.302 206.376 182.455 205.717 182.455C205.172 182.455 204.687 182.336 204.263 182.097C203.839 181.855 203.505 181.491 203.263 181.007C203.02 180.518 202.899 179.902 202.899 179.16V173.615H204.24V179.069C204.24 179.705 204.418 180.213 204.774 180.592C205.134 180.971 205.592 181.16 206.149 181.16C206.482 181.16 206.821 181.075 207.166 180.904C207.515 180.734 207.806 180.472 208.041 180.12C208.28 179.768 208.399 179.319 208.399 178.774ZM212.657 170.705V182.342H211.316V170.705H212.657ZM218.028 173.615V174.751H213.506V173.615H218.028ZM214.824 171.524H216.165V179.842C216.165 180.221 216.22 180.505 216.329 180.694C216.443 180.88 216.587 181.005 216.761 181.069C216.939 181.13 217.127 181.16 217.324 181.16C217.472 181.16 217.593 181.152 217.687 181.137C217.782 181.118 217.858 181.103 217.915 181.092L218.187 182.296C218.097 182.33 217.97 182.365 217.807 182.399C217.644 182.436 217.437 182.455 217.187 182.455C216.809 182.455 216.437 182.374 216.074 182.211C215.714 182.048 215.415 181.8 215.176 181.467C214.941 181.133 214.824 180.713 214.824 180.205V171.524ZM220.143 182.433C219.862 182.433 219.622 182.332 219.421 182.132C219.22 181.931 219.12 181.69 219.12 181.41C219.12 181.13 219.22 180.889 219.421 180.688C219.622 180.488 219.862 180.387 220.143 180.387C220.423 180.387 220.664 180.488 220.864 180.688C221.065 180.889 221.165 181.13 221.165 181.41C221.165 181.596 221.118 181.766 221.023 181.921C220.932 182.077 220.809 182.202 220.654 182.296C220.503 182.387 220.332 182.433 220.143 182.433Z" fill="black"/>
<circle cx="6" cy="65.8418" r="5.5" fill="url(#paint1_linear_3_3003)"/>
<defs>
<linearGradient id="paint0_linear_3_3003" x1="146" y1="11.8418" x2="218.5" y2="46.3418" gradientUnits="userSpaceOnUse">
<stop stop-color="#00888F"/>
<stop offset="1" stop-color="#340031"/>
</linearGradient>
<linearGradient id="paint1_linear_3_3003" x1="4.9" y1="60.3418" x2="8.56667" y2="71.3418" gradientUnits="userSpaceOnUse">
<stop offset="0.077397" stop-color="#00888F"/>
<stop offset="1" stop-color="#770370"/>
</linearGradient>
</defs>
</svg>
