<svg width="231" height="179" viewBox="0 0 231 179" fill="none" xmlns="http://www.w3.org/2000/svg">
<line x1="225.5" y1="65.3418" x2="0.5" y2="65.3418" stroke="#DBDBDB" stroke-width="2"/>
<path d="M3.99787 46.3418V42.3645L16.3026 29.6159C17.6165 28.231 18.6996 27.0177 19.5518 25.976C20.416 24.9225 21.0611 23.9223 21.4872 22.9753C21.9134 22.0283 22.1264 21.0222 22.1264 19.9569C22.1264 18.7495 21.8423 17.7078 21.2741 16.8319C20.706 15.9441 19.9306 15.2634 18.9482 14.79C17.9657 14.3046 16.8589 14.062 15.6278 14.062C14.3258 14.062 13.1894 14.3283 12.2188 14.861C11.2481 15.3936 10.5024 16.1453 9.98153 17.1159C9.4607 18.0866 9.20028 19.223 9.20028 20.525H3.96236C3.96236 18.3115 4.47135 16.3761 5.48935 14.7189C6.50734 13.0617 7.90412 11.7774 9.67969 10.8659C11.4553 9.94265 13.4735 9.481 15.7344 9.481C18.0189 9.481 20.0313 9.93673 21.7713 10.8482C23.5232 11.7478 24.8904 12.9789 25.8729 14.5414C26.8554 16.092 27.3466 17.8439 27.3466 19.7971C27.3466 21.1465 27.0921 22.4663 26.5831 23.7566C26.0859 25.0468 25.2159 26.485 23.973 28.0712C22.7301 29.6455 21.0019 31.5572 18.7884 33.8063L11.5618 41.3702V41.6365H27.9325V46.3418H3.99787ZM44.5717 46.9455C41.7663 46.9337 39.3693 46.1938 37.3807 44.726C35.392 43.2582 33.871 41.1216 32.8175 38.3162C31.764 35.5108 31.2372 32.1313 31.2372 28.1777C31.2372 24.236 31.764 20.8683 32.8175 18.0748C33.8828 15.2812 35.4098 13.1505 37.3984 11.6827C39.3989 10.2149 41.79 9.481 44.5717 9.481C47.3535 9.481 49.7386 10.2208 51.7273 11.7005C53.7159 13.1683 55.237 15.2989 56.2905 18.0925C57.3558 20.8742 57.8885 24.236 57.8885 28.1777C57.8885 32.1432 57.3617 35.5286 56.3082 38.334C55.2547 41.1275 53.7337 43.2641 51.745 44.7438C49.7564 46.2116 47.3653 46.9455 44.5717 46.9455ZM44.5717 42.2047C47.0339 42.2047 48.9574 41.0033 50.3423 38.6003C51.7391 36.1974 52.4375 32.7232 52.4375 28.1777C52.4375 25.1593 52.1179 22.6084 51.4787 20.525C50.8513 18.4299 49.9458 16.8437 48.7621 15.7665C47.5902 14.6775 46.1934 14.133 44.5717 14.133C42.1214 14.133 40.1979 15.3404 38.8011 17.7551C37.4044 20.1699 36.7 23.6441 36.6882 28.1777C36.6882 31.208 37.0019 33.7708 37.6293 35.8659C38.2685 37.9493 39.174 39.5295 40.3459 40.6067C41.5178 41.6721 42.9264 42.2047 44.5717 42.2047ZM61.4373 46.3418V42.3645L73.742 29.6159C75.0559 28.231 76.139 27.0177 76.9913 25.976C77.8554 24.9225 78.5005 23.9223 78.9267 22.9753C79.3528 22.0283 79.5659 21.0222 79.5659 19.9569C79.5659 18.7495 79.2818 17.7078 78.7136 16.8319C78.1454 15.9441 77.3701 15.2634 76.3876 14.79C75.4051 14.3046 74.2984 14.062 73.0673 14.062C71.7652 14.062 70.6288 14.3283 69.6582 14.861C68.6876 15.3936 67.9418 16.1453 67.421 17.1159C66.9002 18.0866 66.6397 19.223 66.6397 20.525H61.4018C61.4018 18.3115 61.9108 16.3761 62.9288 14.7189C63.9468 13.0617 65.3436 11.7774 67.1191 10.8659C68.8947 9.94265 70.9129 9.481 73.1738 9.481C75.4584 9.481 77.4707 9.93673 79.2108 10.8482C80.9627 11.7478 82.3298 12.9789 83.3123 14.5414C84.2948 16.092 84.786 17.8439 84.786 19.7971C84.786 21.1465 84.5315 22.4663 84.0225 23.7566C83.5254 25.0468 82.6554 26.485 81.4125 28.0712C80.1696 29.6455 78.4413 31.5572 76.2278 33.8063L69.0012 41.3702V41.6365H85.372V46.3418H61.4373ZM102.011 46.9455C99.2058 46.9337 96.8088 46.1938 94.8201 44.726C92.8315 43.2582 91.3104 41.1216 90.2569 38.3162C89.2034 35.5108 88.6767 32.1313 88.6767 28.1777C88.6767 24.236 89.2034 20.8683 90.2569 18.0748C91.3223 15.2812 92.8493 13.1505 94.8379 11.6827C96.8384 10.2149 99.2295 9.481 102.011 9.481C104.793 9.481 107.178 10.2208 109.167 11.7005C111.155 13.1683 112.676 15.2989 113.73 18.0925C114.795 20.8742 115.328 24.236 115.328 28.1777C115.328 32.1432 114.801 35.5286 113.748 38.334C112.694 41.1275 111.173 43.2641 109.184 44.7438C107.196 46.2116 104.805 46.9455 102.011 46.9455ZM102.011 42.2047C104.473 42.2047 106.397 41.0033 107.782 38.6003C109.179 36.1974 109.877 32.7232 109.877 28.1777C109.877 25.1593 109.557 22.6084 108.918 20.525C108.291 18.4299 107.385 16.8437 106.202 15.7665C105.03 14.6775 103.633 14.133 102.011 14.133C99.5609 14.133 97.6374 15.3404 96.2406 17.7551C94.8438 20.1699 94.1395 23.6441 94.1277 28.1777C94.1277 31.208 94.4413 33.7708 95.0687 35.8659C95.7079 37.9493 96.6135 39.5295 97.7853 40.6067C98.9572 41.6721 100.366 42.2047 102.011 42.2047Z" fill="url(#paint0_linear_3_3004)"/>
<path d="M11.2727 105.342H9.86364C9.7803 104.936 9.63447 104.58 9.42614 104.274C9.22159 103.967 8.97159 103.709 8.67614 103.501C8.38447 103.289 8.06061 103.13 7.70455 103.024C7.34849 102.918 6.97727 102.865 6.59091 102.865C5.88636 102.865 5.24811 103.043 4.67614 103.399C4.10795 103.755 3.6553 104.279 3.31818 104.972C2.98485 105.666 2.81818 106.516 2.81818 107.524C2.81818 108.531 2.98485 109.382 3.31818 110.075C3.6553 110.768 4.10795 111.293 4.67614 111.649C5.24811 112.005 5.88636 112.183 6.59091 112.183C6.97727 112.183 7.34849 112.13 7.70455 112.024C8.06061 111.918 8.38447 111.76 8.67614 111.552C8.97159 111.34 9.22159 111.08 9.42614 110.774C9.63447 110.463 9.7803 110.107 9.86364 109.705H11.2727C11.1667 110.3 10.9735 110.832 10.6932 111.302C10.4129 111.772 10.0644 112.171 9.64773 112.501C9.23106 112.827 8.76326 113.075 8.24432 113.245C7.72917 113.416 7.17803 113.501 6.59091 113.501C5.59849 113.501 4.71591 113.258 3.94318 112.774C3.17045 112.289 2.5625 111.599 2.11932 110.705C1.67614 109.811 1.45455 108.751 1.45455 107.524C1.45455 106.296 1.67614 105.236 2.11932 104.342C2.5625 103.448 3.17045 102.758 3.94318 102.274C4.71591 101.789 5.59849 101.546 6.59091 101.546C7.17803 101.546 7.72917 101.632 8.24432 101.802C8.76326 101.972 9.23106 102.222 9.64773 102.552C10.0644 102.878 10.4129 103.276 10.6932 103.745C10.9735 104.211 11.1667 104.743 11.2727 105.342ZM15.0561 113.546C14.503 113.546 14.0012 113.442 13.5504 113.234C13.0996 113.022 12.7417 112.717 12.4765 112.319C12.2114 111.918 12.0788 111.433 12.0788 110.865C12.0788 110.365 12.1773 109.959 12.3743 109.649C12.5712 109.334 12.8345 109.088 13.164 108.91C13.4936 108.732 13.8572 108.599 14.2549 108.512C14.6565 108.421 15.0599 108.349 15.4652 108.296C15.9955 108.228 16.4254 108.177 16.7549 108.143C17.0883 108.105 17.3307 108.043 17.4822 107.955C17.6375 107.868 17.7152 107.717 17.7152 107.501V107.455C17.7152 106.895 17.5618 106.459 17.2549 106.149C16.9519 105.838 16.4917 105.683 15.8743 105.683C15.2341 105.683 14.7322 105.823 14.3686 106.103C14.0049 106.383 13.7493 106.683 13.6015 107.001L12.3288 106.546C12.5561 106.016 12.8591 105.603 13.2379 105.308C13.6205 105.008 14.0371 104.8 14.4879 104.683C14.9424 104.561 15.3894 104.501 15.8288 104.501C16.1091 104.501 16.4311 104.535 16.7947 104.603C17.1621 104.668 17.5163 104.802 17.8572 105.007C18.2019 105.211 18.4879 105.52 18.7152 105.933C18.9424 106.346 19.0561 106.899 19.0561 107.592V113.342H17.7152V112.16H17.647C17.5561 112.349 17.4046 112.552 17.1924 112.768C16.9803 112.984 16.6981 113.168 16.3459 113.319C15.9936 113.471 15.5637 113.546 15.0561 113.546ZM15.2606 112.342C15.7909 112.342 16.2379 112.238 16.6015 112.029C16.969 111.821 17.2455 111.552 17.4311 111.222C17.6205 110.893 17.7152 110.546 17.7152 110.183V108.955C17.6584 109.024 17.5334 109.086 17.3402 109.143C17.1508 109.196 16.9311 109.243 16.6811 109.285C16.4349 109.323 16.1943 109.357 15.9595 109.387C15.7284 109.414 15.5409 109.436 15.397 109.455C15.0485 109.501 14.7227 109.575 14.4197 109.677C14.1205 109.776 13.878 109.925 13.6924 110.126C13.5106 110.323 13.4197 110.592 13.4197 110.933C13.4197 111.399 13.5921 111.751 13.9368 111.99C14.2852 112.224 14.7265 112.342 15.2606 112.342ZM21.9644 101.705V113.342H20.6235V101.705H21.9644ZM23.5404 113.342V104.615H24.8813V113.342H23.5404ZM24.2222 103.16C23.9609 103.16 23.7355 103.071 23.5461 102.893C23.3605 102.715 23.2677 102.501 23.2677 102.251C23.2677 102.001 23.3605 101.787 23.5461 101.609C23.7355 101.431 23.9609 101.342 24.2222 101.342C24.4836 101.342 24.7071 101.431 24.8927 101.609C25.0821 101.787 25.1768 102.001 25.1768 102.251C25.1768 102.501 25.0821 102.715 24.8927 102.893C24.7071 103.071 24.4836 103.16 24.2222 103.16ZM30.3436 104.615V105.751H25.6391V104.615H30.3436ZM27.0482 113.342V103.41C27.0482 102.91 27.1656 102.493 27.4005 102.16C27.6353 101.827 27.9402 101.577 28.3152 101.41C28.6902 101.243 29.0861 101.16 29.5027 101.16C29.8323 101.16 30.1012 101.186 30.3095 101.24C30.5179 101.293 30.6732 101.342 30.7755 101.387L30.3891 102.546C30.3209 102.524 30.2262 102.495 30.105 102.461C29.9876 102.427 29.8323 102.41 29.6391 102.41C29.1959 102.41 28.8758 102.522 28.6789 102.745C28.4857 102.969 28.3891 103.296 28.3891 103.728V113.342H27.0482ZM34.529 113.524C33.7411 113.524 33.0498 113.336 32.4551 112.961C31.8642 112.586 31.4021 112.061 31.0688 111.387C30.7392 110.713 30.5744 109.925 30.5744 109.024C30.5744 108.115 30.7392 107.321 31.0688 106.643C31.4021 105.965 31.8642 105.438 32.4551 105.063C33.0498 104.688 33.7411 104.501 34.529 104.501C35.3169 104.501 36.0063 104.688 36.5972 105.063C37.1919 105.438 37.654 105.965 37.9835 106.643C38.3169 107.321 38.4835 108.115 38.4835 109.024C38.4835 109.925 38.3169 110.713 37.9835 111.387C37.654 112.061 37.1919 112.586 36.5972 112.961C36.0063 113.336 35.3169 113.524 34.529 113.524ZM34.529 112.319C35.1275 112.319 35.6199 112.166 36.0063 111.859C36.3926 111.552 36.6786 111.149 36.8642 110.649C37.0498 110.149 37.1426 109.607 37.1426 109.024C37.1426 108.44 37.0498 107.897 36.8642 107.393C36.6786 106.889 36.3926 106.482 36.0063 106.171C35.6199 105.861 35.1275 105.705 34.529 105.705C33.9305 105.705 33.4381 105.861 33.0517 106.171C32.6653 106.482 32.3794 106.889 32.1938 107.393C32.0081 107.897 31.9153 108.44 31.9153 109.024C31.9153 109.607 32.0081 110.149 32.1938 110.649C32.3794 111.149 32.6653 111.552 33.0517 111.859C33.4381 112.166 33.9305 112.319 34.529 112.319ZM39.6504 113.342V104.615H40.9459V105.933H41.0368C41.1959 105.501 41.4837 105.151 41.9004 104.882C42.3171 104.613 42.7868 104.478 43.3095 104.478C43.408 104.478 43.5311 104.48 43.6788 104.484C43.8265 104.488 43.9383 104.493 44.014 104.501V105.865C43.9686 105.853 43.8644 105.836 43.7015 105.813C43.5424 105.787 43.3739 105.774 43.1959 105.774C42.7716 105.774 42.3928 105.863 42.0595 106.041C41.7299 106.215 41.4686 106.457 41.2754 106.768C41.086 107.075 40.9913 107.425 40.9913 107.819V113.342H39.6504ZM46.0644 108.092V113.342H44.7235V104.615H46.019V105.978H46.1326C46.3372 105.535 46.6478 105.179 47.0644 104.91C47.4811 104.637 48.019 104.501 48.6781 104.501C49.269 104.501 49.786 104.622 50.2292 104.865C50.6724 105.103 51.0171 105.467 51.2633 105.955C51.5095 106.44 51.6326 107.054 51.6326 107.796V113.342H50.2917V107.887C50.2917 107.202 50.1137 106.668 49.7576 106.285C49.4016 105.899 48.9129 105.705 48.2917 105.705C47.8637 105.705 47.4811 105.798 47.144 105.984C46.8106 106.169 46.5474 106.44 46.3542 106.796C46.161 107.152 46.0644 107.584 46.0644 108.092ZM53.2029 113.342V104.615H54.5438V113.342H53.2029ZM53.8847 103.16C53.6234 103.16 53.398 103.071 53.2086 102.893C53.023 102.715 52.9302 102.501 52.9302 102.251C52.9302 102.001 53.023 101.787 53.2086 101.609C53.398 101.431 53.6234 101.342 53.8847 101.342C54.1461 101.342 54.3696 101.431 54.5552 101.609C54.7446 101.787 54.8393 102.001 54.8393 102.251C54.8393 102.501 54.7446 102.715 54.5552 102.893C54.3696 103.071 54.1461 103.16 53.8847 103.16ZM58.688 113.546C58.1349 113.546 57.633 113.442 57.1823 113.234C56.7315 113.022 56.3736 112.717 56.1084 112.319C55.8433 111.918 55.7107 111.433 55.7107 110.865C55.7107 110.365 55.8092 109.959 56.0061 109.649C56.2031 109.334 56.4664 109.088 56.7959 108.91C57.1255 108.732 57.4891 108.599 57.8868 108.512C58.2883 108.421 58.6917 108.349 59.097 108.296C59.6274 108.228 60.0573 108.177 60.3868 108.143C60.7202 108.105 60.9626 108.043 61.1141 107.955C61.2694 107.868 61.347 107.717 61.347 107.501V107.455C61.347 106.895 61.1936 106.459 60.8868 106.149C60.5838 105.838 60.1236 105.683 59.5061 105.683C58.866 105.683 58.3641 105.823 58.0005 106.103C57.6368 106.383 57.3811 106.683 57.2334 107.001L55.9607 106.546C56.188 106.016 56.491 105.603 56.8698 105.308C57.2524 105.008 57.669 104.8 58.1198 104.683C58.5743 104.561 59.0213 104.501 59.4607 104.501C59.741 104.501 60.063 104.535 60.4266 104.603C60.794 104.668 61.1482 104.802 61.4891 105.007C61.8338 105.211 62.1198 105.52 62.347 105.933C62.5743 106.346 62.688 106.899 62.688 107.592V113.342H61.347V112.16H61.2789C61.188 112.349 61.0364 112.552 60.8243 112.768C60.6122 112.984 60.33 113.168 59.9777 113.319C59.6255 113.471 59.1955 113.546 58.688 113.546ZM58.8925 112.342C59.4228 112.342 59.8698 112.238 60.2334 112.029C60.6008 111.821 60.8774 111.552 61.063 111.222C61.2524 110.893 61.347 110.546 61.347 110.183V108.955C61.2902 109.024 61.1652 109.086 60.972 109.143C60.7827 109.196 60.563 109.243 60.313 109.285C60.0667 109.323 59.8262 109.357 59.5914 109.387C59.3603 109.414 59.1728 109.436 59.0289 109.455C58.6804 109.501 58.3546 109.575 58.0516 109.677C57.7524 109.776 57.5099 109.925 57.3243 110.126C57.1425 110.323 57.0516 110.592 57.0516 110.933C57.0516 111.399 57.2239 111.751 57.5686 111.99C57.9171 112.224 58.3584 112.342 58.8925 112.342ZM77.4209 105.342H76.0118C75.9284 104.936 75.7826 104.58 75.5743 104.274C75.3697 103.967 75.1197 103.709 74.8243 103.501C74.5326 103.289 74.2087 103.13 73.8527 103.024C73.4966 102.918 73.1254 102.865 72.739 102.865C72.0345 102.865 71.3962 103.043 70.8243 103.399C70.2561 103.755 69.8034 104.279 69.4663 104.972C69.133 105.666 68.9663 106.516 68.9663 107.524C68.9663 108.531 69.133 109.382 69.4663 110.075C69.8034 110.768 70.2561 111.293 70.8243 111.649C71.3962 112.005 72.0345 112.183 72.739 112.183C73.1254 112.183 73.4966 112.13 73.8527 112.024C74.2087 111.918 74.5326 111.76 74.8243 111.552C75.1197 111.34 75.3697 111.08 75.5743 110.774C75.7826 110.463 75.9284 110.107 76.0118 109.705H77.4209C77.3148 110.3 77.1216 110.832 76.8413 111.302C76.561 111.772 76.2125 112.171 75.7959 112.501C75.3792 112.827 74.9114 113.075 74.3924 113.245C73.8773 113.416 73.3262 113.501 72.739 113.501C71.7466 113.501 70.864 113.258 70.0913 112.774C69.3186 112.289 68.7106 111.599 68.2674 110.705C67.8243 109.811 67.6027 108.751 67.6027 107.524C67.6027 106.296 67.8243 105.236 68.2674 104.342C68.7106 103.448 69.3186 102.758 70.0913 102.274C70.864 101.789 71.7466 101.546 72.739 101.546C73.3262 101.546 73.8773 101.632 74.3924 101.802C74.9114 101.972 75.3792 102.222 75.7959 102.552C76.2125 102.878 76.561 103.276 76.8413 103.745C77.1216 104.211 77.3148 104.743 77.4209 105.342ZM82.1815 113.524C81.3936 113.524 80.7023 113.336 80.1076 112.961C79.5167 112.586 79.0546 112.061 78.7213 111.387C78.3917 110.713 78.2269 109.925 78.2269 109.024C78.2269 108.115 78.3917 107.321 78.7213 106.643C79.0546 105.965 79.5167 105.438 80.1076 105.063C80.7023 104.688 81.3936 104.501 82.1815 104.501C82.9694 104.501 83.6588 104.688 84.2497 105.063C84.8444 105.438 85.3065 105.965 85.636 106.643C85.9694 107.321 86.136 108.115 86.136 109.024C86.136 109.925 85.9694 110.713 85.636 111.387C85.3065 112.061 84.8444 112.586 84.2497 112.961C83.6588 113.336 82.9694 113.524 82.1815 113.524ZM82.1815 112.319C82.78 112.319 83.2724 112.166 83.6588 111.859C84.0451 111.552 84.3311 111.149 84.5167 110.649C84.7023 110.149 84.7951 109.607 84.7951 109.024C84.7951 108.44 84.7023 107.897 84.5167 107.393C84.3311 106.889 84.0451 106.482 83.6588 106.171C83.2724 105.861 82.78 105.705 82.1815 105.705C81.583 105.705 81.0906 105.861 80.7042 106.171C80.3178 106.482 80.0319 106.889 79.8463 107.393C79.6606 107.897 79.5678 108.44 79.5678 109.024C79.5678 109.607 79.6606 110.149 79.8463 110.649C80.0319 111.149 80.3178 111.552 80.7042 111.859C81.0906 112.166 81.583 112.319 82.1815 112.319ZM88.6438 108.092V113.342H87.3029V104.615H88.5983V105.978H88.712C88.9165 105.535 89.2271 105.179 89.6438 104.91C90.0605 104.637 90.5984 104.501 91.2574 104.501C91.8484 104.501 92.3654 104.622 92.8086 104.865C93.2518 105.103 93.5965 105.467 93.8427 105.955C94.0889 106.44 94.212 107.054 94.212 107.796V113.342H92.8711V107.887C92.8711 107.202 92.693 106.668 92.337 106.285C91.9809 105.899 91.4923 105.705 90.8711 105.705C90.443 105.705 90.0605 105.798 89.7234 105.984C89.39 106.169 89.1268 106.44 88.9336 106.796C88.7404 107.152 88.6438 107.584 88.6438 108.092ZM101.964 106.569L100.76 106.91C100.684 106.709 100.572 106.514 100.424 106.325C100.28 106.132 100.083 105.972 99.8334 105.847C99.5834 105.722 99.2633 105.66 98.8732 105.66C98.3391 105.66 97.894 105.783 97.538 106.029C97.1857 106.272 97.0095 106.58 97.0095 106.955C97.0095 107.289 97.1308 107.552 97.3732 107.745C97.6156 107.938 97.9944 108.099 98.5095 108.228L99.805 108.546C100.585 108.736 101.167 109.026 101.549 109.416C101.932 109.802 102.123 110.3 102.123 110.91C102.123 111.41 101.979 111.857 101.691 112.251C101.407 112.645 101.01 112.955 100.498 113.183C99.9868 113.41 99.3921 113.524 98.7141 113.524C97.8239 113.524 97.0872 113.33 96.5039 112.944C95.9205 112.558 95.5512 111.993 95.3959 111.251L96.6686 110.933C96.7898 111.402 97.019 111.755 97.3561 111.99C97.697 112.224 98.1421 112.342 98.6914 112.342C99.3164 112.342 99.8126 112.209 100.18 111.944C100.551 111.675 100.737 111.353 100.737 110.978C100.737 110.675 100.631 110.421 100.419 110.217C100.207 110.008 99.8808 109.853 99.4414 109.751L97.9868 109.41C97.1876 109.221 96.6005 108.927 96.2255 108.529C95.8542 108.128 95.6686 107.626 95.6686 107.024C95.6686 106.531 95.8069 106.096 96.0834 105.717C96.3637 105.338 96.7444 105.041 97.2255 104.825C97.7103 104.609 98.2595 104.501 98.8732 104.501C99.7368 104.501 100.415 104.69 100.907 105.069C101.403 105.448 101.756 105.948 101.964 106.569ZM108.762 109.774V104.615H110.103V113.342H108.762V111.865H108.671C108.466 112.308 108.148 112.685 107.716 112.995C107.284 113.302 106.739 113.455 106.08 113.455C105.534 113.455 105.05 113.336 104.625 113.097C104.201 112.855 103.868 112.491 103.625 112.007C103.383 111.518 103.262 110.902 103.262 110.16V104.615H104.603V110.069C104.603 110.705 104.781 111.213 105.137 111.592C105.496 111.971 105.955 112.16 106.512 112.16C106.845 112.16 107.184 112.075 107.529 111.904C107.877 111.734 108.169 111.472 108.404 111.12C108.642 110.768 108.762 110.319 108.762 109.774ZM111.679 113.342V104.615H112.974V105.978H113.088C113.269 105.512 113.563 105.151 113.968 104.893C114.374 104.632 114.86 104.501 115.429 104.501C116.004 104.501 116.483 104.632 116.866 104.893C117.252 105.151 117.554 105.512 117.769 105.978H117.86C118.084 105.527 118.419 105.169 118.866 104.904C119.313 104.635 119.849 104.501 120.474 104.501C121.254 104.501 121.893 104.745 122.389 105.234C122.885 105.719 123.133 106.474 123.133 107.501V113.342H121.792V107.501C121.792 106.857 121.616 106.397 121.264 106.12C120.911 105.844 120.497 105.705 120.019 105.705C119.406 105.705 118.93 105.891 118.593 106.262C118.256 106.63 118.088 107.096 118.088 107.66V113.342H116.724V107.365C116.724 106.868 116.563 106.469 116.241 106.166C115.919 105.859 115.504 105.705 114.997 105.705C114.648 105.705 114.322 105.798 114.019 105.984C113.72 106.169 113.478 106.427 113.292 106.757C113.11 107.082 113.019 107.459 113.019 107.887V113.342H111.679ZM128.364 113.524C127.523 113.524 126.798 113.338 126.188 112.967C125.582 112.592 125.114 112.069 124.784 111.399C124.459 110.724 124.296 109.94 124.296 109.046C124.296 108.152 124.459 107.365 124.784 106.683C125.114 105.997 125.572 105.463 126.159 105.08C126.75 104.694 127.44 104.501 128.228 104.501C128.682 104.501 129.131 104.577 129.574 104.728C130.017 104.88 130.421 105.126 130.784 105.467C131.148 105.804 131.438 106.251 131.654 106.808C131.87 107.365 131.978 108.05 131.978 108.865V109.433H125.25V108.274H130.614C130.614 107.781 130.515 107.342 130.318 106.955C130.125 106.569 129.849 106.264 129.489 106.041C129.133 105.817 128.712 105.705 128.228 105.705C127.693 105.705 127.231 105.838 126.841 106.103C126.455 106.365 126.157 106.705 125.949 107.126C125.741 107.546 125.637 107.997 125.637 108.478V109.251C125.637 109.91 125.75 110.469 125.978 110.927C126.209 111.382 126.529 111.728 126.938 111.967C127.347 112.202 127.822 112.319 128.364 112.319C128.716 112.319 129.034 112.27 129.318 112.171C129.606 112.069 129.854 111.918 130.063 111.717C130.271 111.512 130.432 111.258 130.546 110.955L131.841 111.319C131.705 111.758 131.476 112.145 131.154 112.478C130.832 112.808 130.434 113.065 129.96 113.251C129.487 113.433 128.955 113.524 128.364 113.524ZM133.137 113.342V104.615H134.433V105.933H134.524C134.683 105.501 134.971 105.151 135.387 104.882C135.804 104.613 136.274 104.478 136.796 104.478C136.895 104.478 137.018 104.48 137.166 104.484C137.313 104.488 137.425 104.493 137.501 104.501V105.865C137.455 105.853 137.351 105.836 137.188 105.813C137.029 105.787 136.861 105.774 136.683 105.774C136.258 105.774 135.88 105.863 135.546 106.041C135.217 106.215 134.955 106.457 134.762 106.768C134.573 107.075 134.478 107.425 134.478 107.819V113.342H133.137ZM1.90909 140.342V128.705H5.84091C6.75379 128.705 7.5 128.87 8.07955 129.2C8.66288 129.526 9.0947 129.967 9.375 130.524C9.6553 131.08 9.79545 131.702 9.79545 132.387C9.79545 133.073 9.6553 133.696 9.375 134.257C9.09849 134.817 8.67046 135.264 8.09091 135.597C7.51136 135.927 6.76894 136.092 5.86364 136.092H3.04545V134.842H5.81818C6.44318 134.842 6.94508 134.734 7.32386 134.518C7.70265 134.302 7.97727 134.01 8.14773 133.643C8.32197 133.272 8.40909 132.853 8.40909 132.387C8.40909 131.921 8.32197 131.505 8.14773 131.137C7.97727 130.77 7.70076 130.482 7.31818 130.274C6.93561 130.061 6.42803 129.955 5.79545 129.955H3.31818V140.342H1.90909ZM11.0035 140.342V131.615H12.299V132.933H12.3899C12.549 132.501 12.8369 132.151 13.2535 131.882C13.6702 131.613 14.1399 131.478 14.6626 131.478C14.7611 131.478 14.8842 131.48 15.0319 131.484C15.1797 131.488 15.2914 131.493 15.3672 131.501V132.865C15.3217 132.853 15.2175 132.836 15.0547 132.813C14.8956 132.787 14.727 132.774 14.549 132.774C14.1247 132.774 13.7459 132.863 13.4126 133.041C13.0831 133.215 12.8217 133.457 12.6285 133.768C12.4391 134.075 12.3444 134.425 12.3444 134.819V140.342H11.0035ZM16.0766 140.342V131.615H17.4176V140.342H16.0766ZM16.7585 130.16C16.4971 130.16 16.2717 130.071 16.0823 129.893C15.8967 129.715 15.8039 129.501 15.8039 129.251C15.8039 129.001 15.8967 128.787 16.0823 128.609C16.2717 128.431 16.4971 128.342 16.7585 128.342C17.0198 128.342 17.2433 128.431 17.4289 128.609C17.6183 128.787 17.713 129.001 17.713 129.251C17.713 129.501 17.6183 129.715 17.4289 129.893C17.2433 130.071 17.0198 130.16 16.7585 130.16ZM26.1299 131.615L22.9026 140.342H21.539L18.3117 131.615H19.7663L22.1753 138.569H22.2663L24.6753 131.615H26.1299ZM29.3223 140.546C28.7693 140.546 28.2674 140.442 27.8166 140.234C27.3659 140.022 27.0079 139.717 26.7428 139.319C26.4776 138.918 26.3451 138.433 26.3451 137.865C26.3451 137.365 26.4435 136.959 26.6405 136.649C26.8375 136.334 27.1007 136.088 27.4303 135.91C27.7598 135.732 28.1235 135.599 28.5212 135.512C28.9227 135.421 29.3261 135.349 29.7314 135.296C30.2617 135.228 30.6916 135.177 31.0212 135.143C31.3545 135.105 31.597 135.043 31.7485 134.955C31.9038 134.868 31.9814 134.717 31.9814 134.501V134.455C31.9814 133.895 31.828 133.459 31.5212 133.149C31.2182 132.838 30.7579 132.683 30.1405 132.683C29.5004 132.683 28.9985 132.823 28.6348 133.103C28.2712 133.383 28.0155 133.683 27.8678 134.001L26.5951 133.546C26.8223 133.016 27.1254 132.603 27.5041 132.308C27.8867 132.008 28.3034 131.8 28.7541 131.683C29.2087 131.561 29.6557 131.501 30.0951 131.501C30.3754 131.501 30.6973 131.535 31.061 131.603C31.4284 131.668 31.7826 131.802 32.1235 132.007C32.4682 132.211 32.7541 132.52 32.9814 132.933C33.2087 133.346 33.3223 133.899 33.3223 134.592V140.342H31.9814V139.16H31.9132C31.8223 139.349 31.6708 139.552 31.4587 139.768C31.2466 139.984 30.9644 140.168 30.6121 140.319C30.2598 140.471 29.8299 140.546 29.3223 140.546ZM29.5269 139.342C30.0572 139.342 30.5041 139.238 30.8678 139.029C31.2352 138.821 31.5117 138.552 31.6973 138.222C31.8867 137.893 31.9814 137.546 31.9814 137.183V135.955C31.9246 136.024 31.7996 136.086 31.6064 136.143C31.417 136.196 31.1973 136.243 30.9473 136.285C30.7011 136.323 30.4606 136.357 30.2257 136.387C29.9947 136.414 29.8072 136.436 29.6632 136.455C29.3148 136.501 28.989 136.575 28.686 136.677C28.3867 136.776 28.1443 136.925 27.9587 137.126C27.7769 137.323 27.686 137.592 27.686 137.933C27.686 138.399 27.8583 138.751 28.203 138.99C28.5515 139.224 28.9928 139.342 29.5269 139.342ZM38.4352 140.524C37.617 140.524 36.9125 140.33 36.3216 139.944C35.7307 139.558 35.2761 139.026 34.958 138.347C34.6398 137.669 34.4807 136.895 34.4807 136.024C34.4807 135.137 34.6436 134.355 34.9693 133.677C35.2989 132.995 35.7572 132.463 36.3443 132.08C36.9352 131.694 37.6246 131.501 38.4125 131.501C39.0261 131.501 39.5792 131.615 40.0716 131.842C40.564 132.069 40.9674 132.387 41.2818 132.796C41.5962 133.205 41.7913 133.683 41.867 134.228H40.5261C40.4239 133.83 40.1966 133.478 39.8443 133.171C39.4958 132.861 39.0261 132.705 38.4352 132.705C37.9125 132.705 37.4542 132.842 37.0602 133.115C36.6701 133.383 36.3651 133.764 36.1455 134.257C35.9295 134.745 35.8216 135.319 35.8216 135.978C35.8216 136.652 35.9277 137.24 36.1398 137.74C36.3557 138.24 36.6587 138.628 37.0489 138.904C37.4428 139.181 37.9049 139.319 38.4352 139.319C38.7837 139.319 39.1 139.258 39.3841 139.137C39.6682 139.016 39.9087 138.842 40.1057 138.615C40.3027 138.387 40.4428 138.115 40.5261 137.796H41.867C41.7913 138.311 41.6038 138.776 41.3045 139.188C41.0091 139.597 40.617 139.923 40.1284 140.166C39.6436 140.404 39.0792 140.524 38.4352 140.524ZM43.8109 143.615C43.5836 143.615 43.381 143.596 43.203 143.558C43.0249 143.524 42.9018 143.49 42.8336 143.455L43.1745 142.274C43.5003 142.357 43.7882 142.387 44.0382 142.365C44.2882 142.342 44.5098 142.23 44.703 142.029C44.8999 141.832 45.0798 141.512 45.2427 141.069L45.4927 140.387L42.2655 131.615H43.72L46.1291 138.569H46.22L48.6291 131.615H50.0836L46.3791 141.615C46.2124 142.065 46.006 142.438 45.7598 142.734C45.5136 143.033 45.2276 143.255 44.9018 143.399C44.5798 143.543 44.2162 143.615 43.8109 143.615ZM55.2526 140.342H53.7753L58.0481 128.705H59.5026L63.7753 140.342H62.2981L58.8208 130.546H58.7299L55.2526 140.342ZM55.7981 135.796H61.7526V137.046H55.7981V135.796ZM68.0715 140.524C67.2533 140.524 66.5488 140.33 65.9578 139.944C65.3669 139.558 64.9124 139.026 64.5942 138.347C64.276 137.669 64.1169 136.895 64.1169 136.024C64.1169 135.137 64.2798 134.355 64.6056 133.677C64.9351 132.995 65.3934 132.463 65.9806 132.08C66.5715 131.694 67.2609 131.501 68.0488 131.501C68.6624 131.501 69.2154 131.615 69.7078 131.842C70.2003 132.069 70.6037 132.387 70.9181 132.796C71.2325 133.205 71.4275 133.683 71.5033 134.228H70.1624C70.0601 133.83 69.8328 133.478 69.4806 133.171C69.1321 132.861 68.6624 132.705 68.0715 132.705C67.5488 132.705 67.0904 132.842 66.6965 133.115C66.3063 133.383 66.0014 133.764 65.7817 134.257C65.5658 134.745 65.4578 135.319 65.4578 135.978C65.4578 136.652 65.5639 137.24 65.776 137.74C65.9919 138.24 66.295 138.628 66.6851 138.904C67.0791 139.181 67.5412 139.319 68.0715 139.319C68.42 139.319 68.7363 139.258 69.0203 139.137C69.3044 139.016 69.545 138.842 69.7419 138.615C69.9389 138.387 70.0791 138.115 70.1624 137.796H71.5033C71.4275 138.311 71.24 138.776 70.9408 139.188C70.6453 139.597 70.2533 139.923 69.7647 140.166C69.2798 140.404 68.7154 140.524 68.0715 140.524ZM76.379 131.615V132.751H71.8562V131.615H76.379ZM73.1744 129.524H74.5153V137.842C74.5153 138.221 74.5703 138.505 74.6801 138.694C74.7937 138.88 74.9377 139.005 75.1119 139.069C75.29 139.13 75.4775 139.16 75.6744 139.16C75.8222 139.16 75.9434 139.152 76.0381 139.137C76.1328 139.118 76.2085 139.103 76.2653 139.092L76.5381 140.296C76.4472 140.33 76.3203 140.365 76.1574 140.399C75.9945 140.436 75.7881 140.455 75.5381 140.455C75.1593 140.455 74.7881 140.374 74.4244 140.211C74.0646 140.048 73.7653 139.8 73.5267 139.467C73.2919 139.133 73.1744 138.713 73.1744 138.205V129.524ZM81.6133 134.524C81.6133 133.092 81.7989 131.776 82.1701 130.575C82.5451 129.37 83.0792 128.262 83.7724 127.251H84.9542C84.6815 127.626 84.4258 128.088 84.1872 128.637C83.9523 129.183 83.7459 129.783 83.5678 130.438C83.3898 131.09 83.2497 131.764 83.1474 132.461C83.0489 133.158 82.9997 133.846 82.9997 134.524C82.9997 135.425 83.0868 136.34 83.261 137.268C83.4353 138.196 83.6701 139.058 83.9656 139.853C84.261 140.649 84.5906 141.296 84.9542 141.796H83.7724C83.0792 140.785 82.5451 139.679 82.1701 138.478C81.7989 137.274 81.6133 135.955 81.6133 134.524ZM95.5984 132.342H94.1893C94.1059 131.936 93.9601 131.58 93.7518 131.274C93.5472 130.967 93.2972 130.709 93.0018 130.501C92.7101 130.289 92.3862 130.13 92.0302 130.024C91.6741 129.918 91.3029 129.865 90.9165 129.865C90.212 129.865 89.5737 130.043 89.0018 130.399C88.4336 130.755 87.9809 131.279 87.6438 131.972C87.3105 132.666 87.1438 133.516 87.1438 134.524C87.1438 135.531 87.3105 136.382 87.6438 137.075C87.9809 137.768 88.4336 138.293 89.0018 138.649C89.5737 139.005 90.212 139.183 90.9165 139.183C91.3029 139.183 91.6741 139.13 92.0302 139.024C92.3862 138.918 92.7101 138.76 93.0018 138.552C93.2972 138.34 93.5472 138.08 93.7518 137.774C93.9601 137.463 94.1059 137.107 94.1893 136.705H95.5984C95.4923 137.3 95.2991 137.832 95.0188 138.302C94.7385 138.772 94.39 139.171 93.9734 139.501C93.5567 139.827 93.0889 140.075 92.5699 140.245C92.0548 140.416 91.5037 140.501 90.9165 140.501C89.9241 140.501 89.0415 140.258 88.2688 139.774C87.4961 139.289 86.8881 138.599 86.4449 137.705C86.0018 136.811 85.7802 135.751 85.7802 134.524C85.7802 133.296 86.0018 132.236 86.4449 131.342C86.8881 130.448 87.4961 129.758 88.2688 129.274C89.0415 128.789 89.9241 128.546 90.9165 128.546C91.5037 128.546 92.0548 128.632 92.5699 128.802C93.0889 128.972 93.5567 129.222 93.9734 129.552C94.39 129.878 94.7385 130.276 95.0188 130.745C95.2991 131.211 95.4923 131.743 95.5984 132.342ZM106.359 132.342H104.95C104.867 131.936 104.721 131.58 104.512 131.274C104.308 130.967 104.058 130.709 103.762 130.501C103.471 130.289 103.147 130.13 102.791 130.024C102.435 129.918 102.064 129.865 101.677 129.865C100.973 129.865 100.334 130.043 99.7624 130.399C99.1942 130.755 98.7416 131.279 98.4044 131.972C98.0711 132.666 97.9044 133.516 97.9044 134.524C97.9044 135.531 98.0711 136.382 98.4044 137.075C98.7416 137.768 99.1942 138.293 99.7624 138.649C100.334 139.005 100.973 139.183 101.677 139.183C102.064 139.183 102.435 139.13 102.791 139.024C103.147 138.918 103.471 138.76 103.762 138.552C104.058 138.34 104.308 138.08 104.512 137.774C104.721 137.463 104.867 137.107 104.95 136.705H106.359C106.253 137.3 106.06 137.832 105.779 138.302C105.499 138.772 105.151 139.171 104.734 139.501C104.317 139.827 103.85 140.075 103.331 140.245C102.815 140.416 102.264 140.501 101.677 140.501C100.685 140.501 99.8022 140.258 99.0294 139.774C98.2567 139.289 97.6488 138.599 97.2056 137.705C96.7624 136.811 96.5408 135.751 96.5408 134.524C96.5408 133.296 96.7624 132.236 97.2056 131.342C97.6488 130.448 98.2567 129.758 99.0294 129.274C99.8022 128.789 100.685 128.546 101.677 128.546C102.264 128.546 102.815 128.632 103.331 128.802C103.85 128.972 104.317 129.222 104.734 129.552C105.151 129.878 105.499 130.276 105.779 130.745C106.06 131.211 106.253 131.743 106.359 132.342ZM107.756 140.342V128.705H111.688C112.601 128.705 113.347 128.87 113.926 129.2C114.51 129.526 114.942 129.967 115.222 130.524C115.502 131.08 115.642 131.702 115.642 132.387C115.642 133.073 115.502 133.696 115.222 134.257C114.945 134.817 114.517 135.264 113.938 135.597C113.358 135.927 112.616 136.092 111.711 136.092H108.892V134.842H111.665C112.29 134.842 112.792 134.734 113.171 134.518C113.55 134.302 113.824 134.01 113.995 133.643C114.169 133.272 114.256 132.853 114.256 132.387C114.256 131.921 114.169 131.505 113.995 131.137C113.824 130.77 113.548 130.482 113.165 130.274C112.782 130.061 112.275 129.955 111.642 129.955H109.165V140.342H107.756ZM116.322 140.342H114.845L119.117 128.705H120.572L124.845 140.342H123.367L119.89 130.546H119.799L116.322 140.342ZM116.867 135.796H122.822V137.046H116.867V135.796ZM128.459 134.524C128.459 135.955 128.272 137.274 127.897 138.478C127.525 139.679 126.993 140.785 126.3 141.796H125.118C125.391 141.421 125.645 140.959 125.879 140.41C126.118 139.865 126.326 139.266 126.504 138.615C126.683 137.959 126.821 137.283 126.919 136.586C127.022 135.885 127.073 135.198 127.073 134.524C127.073 133.622 126.986 132.707 126.811 131.779C126.637 130.851 126.402 129.99 126.107 129.194C125.811 128.399 125.482 127.751 125.118 127.251H126.3C126.993 128.262 127.525 129.37 127.897 130.575C128.272 131.776 128.459 133.092 128.459 134.524ZM137.678 140.524C136.86 140.524 136.155 140.33 135.564 139.944C134.973 139.558 134.519 139.026 134.2 138.347C133.882 137.669 133.723 136.895 133.723 136.024C133.723 135.137 133.886 134.355 134.212 133.677C134.541 132.995 135 132.463 135.587 132.08C136.178 131.694 136.867 131.501 137.655 131.501C138.269 131.501 138.822 131.615 139.314 131.842C139.807 132.069 140.21 132.387 140.524 132.796C140.839 133.205 141.034 133.683 141.11 134.228H139.769C139.666 133.83 139.439 133.478 139.087 133.171C138.738 132.861 138.269 132.705 137.678 132.705C137.155 132.705 136.697 132.842 136.303 133.115C135.913 133.383 135.608 133.764 135.388 134.257C135.172 134.745 135.064 135.319 135.064 135.978C135.064 136.652 135.17 137.24 135.382 137.74C135.598 138.24 135.901 138.628 136.291 138.904C136.685 139.181 137.147 139.319 137.678 139.319C138.026 139.319 138.342 139.258 138.627 139.137C138.911 139.016 139.151 138.842 139.348 138.615C139.545 138.387 139.685 138.115 139.769 137.796H141.11C141.034 138.311 140.846 138.776 140.547 139.188C140.252 139.597 139.86 139.923 139.371 140.166C138.886 140.404 138.322 140.524 137.678 140.524ZM145.735 140.524C144.947 140.524 144.256 140.336 143.661 139.961C143.07 139.586 142.608 139.061 142.275 138.387C141.945 137.713 141.781 136.925 141.781 136.024C141.781 135.115 141.945 134.321 142.275 133.643C142.608 132.965 143.07 132.438 143.661 132.063C144.256 131.688 144.947 131.501 145.735 131.501C146.523 131.501 147.212 131.688 147.803 132.063C148.398 132.438 148.86 132.965 149.19 133.643C149.523 134.321 149.69 135.115 149.69 136.024C149.69 136.925 149.523 137.713 149.19 138.387C148.86 139.061 148.398 139.586 147.803 139.961C147.212 140.336 146.523 140.524 145.735 140.524ZM145.735 139.319C146.334 139.319 146.826 139.166 147.212 138.859C147.599 138.552 147.885 138.149 148.07 137.649C148.256 137.149 148.349 136.607 148.349 136.024C148.349 135.44 148.256 134.897 148.07 134.393C147.885 133.889 147.599 133.482 147.212 133.171C146.826 132.861 146.334 132.705 145.735 132.705C145.137 132.705 144.644 132.861 144.258 133.171C143.872 133.482 143.586 133.889 143.4 134.393C143.214 134.897 143.122 135.44 143.122 136.024C143.122 136.607 143.214 137.149 143.4 137.649C143.586 138.149 143.872 138.552 144.258 138.859C144.644 139.166 145.137 139.319 145.735 139.319ZM150.857 140.342V131.615H152.152V132.978H152.266C152.448 132.512 152.741 132.151 153.146 131.893C153.552 131.632 154.038 131.501 154.607 131.501C155.182 131.501 155.662 131.632 156.044 131.893C156.431 132.151 156.732 132.512 156.948 132.978H157.038C157.262 132.527 157.597 132.169 158.044 131.904C158.491 131.635 159.027 131.501 159.652 131.501C160.432 131.501 161.071 131.745 161.567 132.234C162.063 132.719 162.311 133.474 162.311 134.501V140.342H160.97V134.501C160.97 133.857 160.794 133.397 160.442 133.12C160.09 132.844 159.675 132.705 159.198 132.705C158.584 132.705 158.109 132.891 157.771 133.262C157.434 133.63 157.266 134.096 157.266 134.66V140.342H155.902V134.365C155.902 133.868 155.741 133.469 155.419 133.166C155.097 132.859 154.682 132.705 154.175 132.705C153.826 132.705 153.501 132.798 153.198 132.984C152.898 133.169 152.656 133.427 152.47 133.757C152.288 134.082 152.198 134.459 152.198 134.887V140.342H150.857ZM167.542 140.524C166.701 140.524 165.976 140.338 165.366 139.967C164.76 139.592 164.292 139.069 163.962 138.399C163.637 137.724 163.474 136.94 163.474 136.046C163.474 135.152 163.637 134.365 163.962 133.683C164.292 132.997 164.75 132.463 165.337 132.08C165.928 131.694 166.618 131.501 167.406 131.501C167.86 131.501 168.309 131.577 168.752 131.728C169.195 131.88 169.599 132.126 169.962 132.467C170.326 132.804 170.616 133.251 170.832 133.808C171.048 134.365 171.156 135.05 171.156 135.865V136.433H164.428V135.274H169.792C169.792 134.781 169.694 134.342 169.497 133.955C169.303 133.569 169.027 133.264 168.667 133.041C168.311 132.817 167.89 132.705 167.406 132.705C166.872 132.705 166.409 132.838 166.019 133.103C165.633 133.365 165.336 133.705 165.127 134.126C164.919 134.546 164.815 134.997 164.815 135.478V136.251C164.815 136.91 164.928 137.469 165.156 137.927C165.387 138.382 165.707 138.728 166.116 138.967C166.525 139.202 167 139.319 167.542 139.319C167.894 139.319 168.212 139.27 168.497 139.171C168.784 139.069 169.033 138.918 169.241 138.717C169.449 138.512 169.61 138.258 169.724 137.955L171.019 138.319C170.883 138.758 170.654 139.145 170.332 139.478C170.01 139.808 169.612 140.065 169.139 140.251C168.665 140.433 168.133 140.524 167.542 140.524ZM178.497 133.569L177.293 133.91C177.217 133.709 177.105 133.514 176.957 133.325C176.813 133.132 176.617 132.972 176.367 132.847C176.117 132.722 175.796 132.66 175.406 132.66C174.872 132.66 174.427 132.783 174.071 133.029C173.719 133.272 173.543 133.58 173.543 133.955C173.543 134.289 173.664 134.552 173.906 134.745C174.149 134.938 174.528 135.099 175.043 135.228L176.338 135.546C177.118 135.736 177.7 136.026 178.082 136.416C178.465 136.802 178.656 137.3 178.656 137.91C178.656 138.41 178.512 138.857 178.224 139.251C177.94 139.645 177.543 139.955 177.031 140.183C176.52 140.41 175.925 140.524 175.247 140.524C174.357 140.524 173.62 140.33 173.037 139.944C172.454 139.558 172.084 138.993 171.929 138.251L173.202 137.933C173.323 138.402 173.552 138.755 173.889 138.99C174.23 139.224 174.675 139.342 175.224 139.342C175.849 139.342 176.346 139.209 176.713 138.944C177.084 138.675 177.27 138.353 177.27 137.978C177.27 137.675 177.164 137.421 176.952 137.217C176.74 137.008 176.414 136.853 175.974 136.751L174.52 136.41C173.721 136.221 173.134 135.927 172.759 135.529C172.387 135.128 172.202 134.626 172.202 134.024C172.202 133.531 172.34 133.096 172.617 132.717C172.897 132.338 173.278 132.041 173.759 131.825C174.243 131.609 174.793 131.501 175.406 131.501C176.27 131.501 176.948 131.69 177.44 132.069C177.937 132.448 178.289 132.948 178.497 133.569ZM1.72727 166.342V157.615H3.06818V166.342H1.72727ZM2.40909 156.16C2.14773 156.16 1.92235 156.071 1.73295 155.893C1.54735 155.715 1.45455 155.501 1.45455 155.251C1.45455 155.001 1.54735 154.787 1.73295 154.609C1.92235 154.431 2.14773 154.342 2.40909 154.342C2.67045 154.342 2.89394 154.431 3.07955 154.609C3.26894 154.787 3.36364 155.001 3.36364 155.251C3.36364 155.501 3.26894 155.715 3.07955 155.893C2.89394 156.071 2.67045 156.16 2.40909 156.16ZM5.98506 161.092V166.342H4.64415V157.615H5.9396V158.978H6.05324C6.25778 158.535 6.56839 158.179 6.98506 157.91C7.40172 157.637 7.9396 157.501 8.59869 157.501C9.1896 157.501 9.70665 157.622 10.1498 157.865C10.593 158.103 10.9377 158.467 11.1839 158.955C11.4301 159.44 11.5532 160.054 11.5532 160.796V166.342H10.2123V160.887C10.2123 160.202 10.0343 159.668 9.67824 159.285C9.32218 158.899 8.83354 158.705 8.21233 158.705C7.7843 158.705 7.40172 158.798 7.0646 158.984C6.73127 159.169 6.46801 159.44 6.27483 159.796C6.08165 160.152 5.98506 160.584 5.98506 161.092ZM16.919 157.615V158.751H12.3962V157.615H16.919ZM13.7144 155.524H15.0553V163.842C15.0553 164.221 15.1103 164.505 15.2201 164.694C15.3337 164.88 15.4777 165.005 15.6519 165.069C15.83 165.13 16.0175 165.16 16.2144 165.16C16.3622 165.16 16.4834 165.152 16.5781 165.137C16.6728 165.118 16.7485 165.103 16.8053 165.092L17.0781 166.296C16.9872 166.33 16.8603 166.365 16.6974 166.399C16.5345 166.436 16.3281 166.455 16.0781 166.455C15.6993 166.455 15.3281 166.374 14.9644 166.211C14.6046 166.048 14.3053 165.8 14.0667 165.467C13.8319 165.133 13.7144 164.713 13.7144 164.205V155.524ZM21.5077 166.524C20.7198 166.524 20.0286 166.336 19.4339 165.961C18.843 165.586 18.3808 165.061 18.0475 164.387C17.718 163.713 17.5532 162.925 17.5532 162.024C17.5532 161.115 17.718 160.321 18.0475 159.643C18.3808 158.965 18.843 158.438 19.4339 158.063C20.0286 157.688 20.7198 157.501 21.5077 157.501C22.2956 157.501 22.985 157.688 23.5759 158.063C24.1706 158.438 24.6327 158.965 24.9623 159.643C25.2956 160.321 25.4623 161.115 25.4623 162.024C25.4623 162.925 25.2956 163.713 24.9623 164.387C24.6327 165.061 24.1706 165.586 23.5759 165.961C22.985 166.336 22.2956 166.524 21.5077 166.524ZM21.5077 165.319C22.1062 165.319 22.5986 165.166 22.985 164.859C23.3714 164.552 23.6573 164.149 23.843 163.649C24.0286 163.149 24.1214 162.607 24.1214 162.024C24.1214 161.44 24.0286 160.897 23.843 160.393C23.6573 159.889 23.3714 159.482 22.985 159.171C22.5986 158.861 22.1062 158.705 21.5077 158.705C20.9092 158.705 20.4168 158.861 20.0305 159.171C19.6441 159.482 19.3581 159.889 19.1725 160.393C18.9869 160.897 18.8941 161.44 18.8941 162.024C18.8941 162.607 18.9869 163.149 19.1725 163.649C19.3581 164.149 19.6441 164.552 20.0305 164.859C20.4168 165.166 20.9092 165.319 21.5077 165.319ZM33.9082 166.524C33.0673 166.524 32.342 166.338 31.7321 165.967C31.126 165.592 30.6582 165.069 30.3287 164.399C30.0029 163.724 29.8401 162.94 29.8401 162.046C29.8401 161.152 30.0029 160.365 30.3287 159.683C30.6582 158.997 31.1166 158.463 31.7037 158.08C32.2946 157.694 32.984 157.501 33.7719 157.501C34.2264 157.501 34.6753 157.577 35.1185 157.728C35.5616 157.88 35.9651 158.126 36.3287 158.467C36.6923 158.804 36.9821 159.251 37.198 159.808C37.4139 160.365 37.5219 161.05 37.5219 161.865V162.433H30.7946V161.274H36.1582C36.1582 160.781 36.0598 160.342 35.8628 159.955C35.6696 159.569 35.3931 159.264 35.0332 159.041C34.6772 158.817 34.2567 158.705 33.7719 158.705C33.2378 158.705 32.7757 158.838 32.3855 159.103C31.9991 159.365 31.7018 159.705 31.4935 160.126C31.2851 160.546 31.181 160.997 31.181 161.478V162.251C31.181 162.91 31.2946 163.469 31.5219 163.927C31.7529 164.382 32.073 164.728 32.4821 164.967C32.8912 165.202 33.3666 165.319 33.9082 165.319C34.2605 165.319 34.5787 165.27 34.8628 165.171C35.1507 165.069 35.3988 164.918 35.6071 164.717C35.8154 164.512 35.9764 164.258 36.0901 163.955L37.3855 164.319C37.2491 164.758 37.02 165.145 36.698 165.478C36.376 165.808 35.9783 166.065 35.5048 166.251C35.0313 166.433 34.4991 166.524 33.9082 166.524ZM42.568 157.615V158.751H37.8635V157.615H42.568ZM39.2726 166.342V156.41C39.2726 155.91 39.39 155.493 39.6248 155.16C39.8597 154.827 40.1646 154.577 40.5396 154.41C40.9146 154.243 41.3104 154.16 41.7271 154.16C42.0566 154.16 42.3256 154.186 42.5339 154.24C42.7423 154.293 42.8976 154.342 42.9998 154.387L42.6135 155.546C42.5453 155.524 42.4506 155.495 42.3294 155.461C42.212 155.427 42.0566 155.41 41.8635 155.41C41.4203 155.41 41.1002 155.522 40.9032 155.745C40.7101 155.969 40.6135 156.296 40.6135 156.728V166.342H39.2726ZM47.4536 157.615V158.751H42.7491V157.615H47.4536ZM44.1582 166.342V156.41C44.1582 155.91 44.2756 155.493 44.5105 155.16C44.7453 154.827 45.0502 154.577 45.4252 154.41C45.8002 154.243 46.1961 154.16 46.6127 154.16C46.9423 154.16 47.2112 154.186 47.4195 154.24C47.6279 154.293 47.7832 154.342 47.8855 154.387L47.4991 155.546C47.4309 155.524 47.3362 155.495 47.215 155.461C47.0976 155.427 46.9423 155.41 46.7491 155.41C46.3059 155.41 45.9858 155.522 45.7889 155.745C45.5957 155.969 45.4991 156.296 45.4991 156.728V166.342H44.1582ZM51.7526 166.524C50.9117 166.524 50.1863 166.338 49.5765 165.967C48.9704 165.592 48.5026 165.069 48.1731 164.399C47.8473 163.724 47.6844 162.94 47.6844 162.046C47.6844 161.152 47.8473 160.365 48.1731 159.683C48.5026 158.997 48.9609 158.463 49.5481 158.08C50.139 157.694 50.8284 157.501 51.6162 157.501C52.0708 157.501 52.5197 157.577 52.9628 157.728C53.406 157.88 53.8094 158.126 54.1731 158.467C54.5367 158.804 54.8265 159.251 55.0424 159.808C55.2583 160.365 55.3662 161.05 55.3662 161.865V162.433H48.639V161.274H54.0026C54.0026 160.781 53.9041 160.342 53.7072 159.955C53.514 159.569 53.2375 159.264 52.8776 159.041C52.5216 158.817 52.1011 158.705 51.6162 158.705C51.0822 158.705 50.62 158.838 50.2299 159.103C49.8435 159.365 49.5462 159.705 49.3378 160.126C49.1295 160.546 49.0253 160.997 49.0253 161.478V162.251C49.0253 162.91 49.139 163.469 49.3662 163.927C49.5973 164.382 49.9174 164.728 50.3265 164.967C50.7356 165.202 51.2109 165.319 51.7526 165.319C52.1049 165.319 52.4231 165.27 52.7072 165.171C52.995 165.069 53.2431 164.918 53.4515 164.717C53.6598 164.512 53.8208 164.258 53.9344 163.955L55.2299 164.319C55.0935 164.758 54.8644 165.145 54.5424 165.478C54.2204 165.808 53.8227 166.065 53.3492 166.251C52.8757 166.433 52.3435 166.524 51.7526 166.524ZM60.0715 166.524C59.2533 166.524 58.5488 166.33 57.9578 165.944C57.3669 165.558 56.9124 165.026 56.5942 164.347C56.276 163.669 56.1169 162.895 56.1169 162.024C56.1169 161.137 56.2798 160.355 56.6056 159.677C56.9351 158.995 57.3934 158.463 57.9806 158.08C58.5715 157.694 59.2609 157.501 60.0488 157.501C60.6624 157.501 61.2154 157.615 61.7078 157.842C62.2003 158.069 62.6037 158.387 62.9181 158.796C63.2325 159.205 63.4275 159.683 63.5033 160.228H62.1624C62.0601 159.83 61.8328 159.478 61.4806 159.171C61.1321 158.861 60.6624 158.705 60.0715 158.705C59.5488 158.705 59.0904 158.842 58.6965 159.115C58.3063 159.383 58.0014 159.764 57.7817 160.257C57.5658 160.745 57.4578 161.319 57.4578 161.978C57.4578 162.652 57.5639 163.24 57.776 163.74C57.9919 164.24 58.295 164.628 58.6851 164.904C59.0791 165.181 59.5412 165.319 60.0715 165.319C60.42 165.319 60.7363 165.258 61.0203 165.137C61.3044 165.016 61.545 164.842 61.7419 164.615C61.9389 164.387 62.0791 164.115 62.1624 163.796H63.5033C63.4275 164.311 63.24 164.776 62.9408 165.188C62.6453 165.597 62.2533 165.923 61.7647 166.166C61.2798 166.404 60.7154 166.524 60.0715 166.524ZM68.379 157.615V158.751H63.8563V157.615H68.379ZM65.1744 155.524H66.5153V163.842C66.5153 164.221 66.5703 164.505 66.6801 164.694C66.7938 164.88 66.9377 165.005 67.1119 165.069C67.29 165.13 67.4775 165.16 67.6744 165.16C67.8222 165.16 67.9434 165.152 68.0381 165.137C68.1328 165.118 68.2085 165.103 68.2653 165.092L68.5381 166.296C68.4472 166.33 68.3203 166.365 68.1574 166.399C67.9945 166.436 67.7881 166.455 67.5381 166.455C67.1593 166.455 66.7881 166.374 66.4244 166.211C66.0646 166.048 65.7653 165.8 65.5267 165.467C65.2919 165.133 65.1744 164.713 65.1744 164.205V155.524ZM70.4933 166.433C70.213 166.433 69.9725 166.332 69.7717 166.132C69.5709 165.931 69.4706 165.69 69.4706 165.41C69.4706 165.13 69.5709 164.889 69.7717 164.688C69.9725 164.488 70.213 164.387 70.4933 164.387C70.7736 164.387 71.0141 164.488 71.2149 164.688C71.4156 164.889 71.516 165.13 71.516 165.41C71.516 165.596 71.4687 165.766 71.374 165.921C71.2831 166.077 71.16 166.202 71.0047 166.296C70.8531 166.387 70.6827 166.433 70.4933 166.433Z" fill="black"/>
<path d="M231 65.3418C231 68.3794 228.538 70.8418 225.5 70.8418C222.462 70.8418 220 68.3794 220 65.3418C220 62.3042 222.462 59.8418 225.5 59.8418C228.538 59.8418 231 62.3042 231 65.3418Z" fill="url(#paint1_linear_3_3004)"/>
<defs>
<linearGradient id="paint0_linear_3_3004" x1="21.8106" y1="11.8418" x2="93.9053" y2="45.8467" gradientUnits="userSpaceOnUse">
<stop stop-color="#00888F"/>
<stop offset="1" stop-color="#340031"/>
</linearGradient>
<linearGradient id="paint1_linear_3_3004" x1="222.9" y1="58.3418" x2="226.567" y2="69.3418" gradientUnits="userSpaceOnUse">
<stop offset="0.077397" stop-color="#00888F"/>
<stop offset="1" stop-color="#770370"/>
</linearGradient>
</defs>
</svg>
