<svg width="262" height="175" viewBox="0 0 262 175" fill="none" xmlns="http://www.w3.org/2000/svg">
<line x1="236.5" y1="65.3418" x2="9.5" y2="65.3418" stroke="#DBDBDB" stroke-width="2"/>
<path d="M129.998 46.3418V42.3645L142.303 29.6159C143.616 28.231 144.7 27.0177 145.552 25.976C146.416 24.9225 147.061 23.9223 147.487 22.9753C147.913 22.0283 148.126 21.0222 148.126 19.9569C148.126 18.7495 147.842 17.7078 147.274 16.8319C146.706 15.9441 145.931 15.2634 144.948 14.79C143.966 14.3046 142.859 14.062 141.628 14.062C140.326 14.062 139.189 14.3283 138.219 14.861C137.248 15.3936 136.502 16.1453 135.982 17.1159C135.461 18.0866 135.2 19.223 135.2 20.525H129.962C129.962 18.3115 130.471 16.3761 131.489 14.7189C132.507 13.0617 133.904 11.7774 135.68 10.8659C137.455 9.94265 139.473 9.481 141.734 9.481C144.019 9.481 146.031 9.93673 147.771 10.8482C149.523 11.7478 150.89 12.9789 151.873 14.5414C152.855 16.092 153.347 17.8439 153.347 19.7971C153.347 21.1465 153.092 22.4663 152.583 23.7566C152.086 25.0468 151.216 26.485 149.973 28.0712C148.73 29.6455 147.002 31.5572 144.788 33.8063L137.562 41.3702V41.6365H153.933V46.3418H129.998ZM170.572 46.9455C167.766 46.9337 165.369 46.1938 163.381 44.726C161.392 43.2582 159.871 41.1216 158.817 38.3162C157.764 35.5108 157.237 32.1313 157.237 28.1777C157.237 24.236 157.764 20.8683 158.817 18.0748C159.883 15.2812 161.41 13.1505 163.398 11.6827C165.399 10.2149 167.79 9.481 170.572 9.481C173.353 9.481 175.739 10.2208 177.727 11.7005C179.716 13.1683 181.237 15.2989 182.29 18.0925C183.356 20.8742 183.888 24.236 183.888 28.1777C183.888 32.1432 183.362 35.5286 182.308 38.334C181.255 41.1275 179.734 43.2641 177.745 44.7438C175.756 46.2116 173.365 46.9455 170.572 46.9455ZM170.572 42.2047C173.034 42.2047 174.957 41.0033 176.342 38.6003C177.739 36.1974 178.438 32.7232 178.438 28.1777C178.438 25.1593 178.118 22.6084 177.479 20.525C176.851 18.4299 175.946 16.8437 174.762 15.7665C173.59 14.6775 172.193 14.133 170.572 14.133C168.121 14.133 166.198 15.3404 164.801 17.7551C163.404 20.1699 162.7 23.6441 162.688 28.1777C162.688 31.208 163.002 33.7708 163.629 35.8659C164.268 37.9493 165.174 39.5295 166.346 40.6067C167.518 41.6721 168.926 42.2047 170.572 42.2047ZM187.437 46.3418V42.3645L199.742 29.6159C201.056 28.231 202.139 27.0177 202.991 25.976C203.855 24.9225 204.501 23.9223 204.927 22.9753C205.353 22.0283 205.566 21.0222 205.566 19.9569C205.566 18.7495 205.282 17.7078 204.714 16.8319C204.145 15.9441 203.37 15.2634 202.388 14.79C201.405 14.3046 200.298 14.062 199.067 14.062C197.765 14.062 196.629 14.3283 195.658 14.861C194.688 15.3936 193.942 16.1453 193.421 17.1159C192.9 18.0866 192.64 19.223 192.64 20.525H187.402C187.402 18.3115 187.911 16.3761 188.929 14.7189C189.947 13.0617 191.344 11.7774 193.119 10.8659C194.895 9.94265 196.913 9.481 199.174 9.481C201.458 9.481 203.471 9.93673 205.211 10.8482C206.963 11.7478 208.33 12.9789 209.312 14.5414C210.295 16.092 210.786 17.8439 210.786 19.7971C210.786 21.1465 210.532 22.4663 210.023 23.7566C209.525 25.0468 208.655 26.485 207.412 28.0712C206.17 29.6455 204.441 31.5572 202.228 33.8063L195.001 41.3702V41.6365H211.372V46.3418H187.437ZM229.148 9.97816V46.3418H223.643V15.4824H223.43L214.73 21.1642V15.9086L223.803 9.97816H229.148Z" fill="url(#paint0_linear_3_3005)"/>
<path d="M42.3864 102.342H40.9091L45.1818 90.7054H46.6364L50.9091 102.342H49.4318L45.9545 92.5463H45.8636L42.3864 102.342ZM42.9318 97.7963H48.8864V99.0463H42.9318V97.7963ZM51.6598 105.615V93.6145H52.9552V95.0009H53.1143C53.2128 94.8494 53.3492 94.6562 53.5234 94.4213C53.7014 94.1827 53.9552 93.9706 54.2848 93.785C54.6181 93.5956 55.0689 93.5009 55.637 93.5009C56.3719 93.5009 57.0196 93.6846 57.5802 94.052C58.1408 94.4194 58.5783 94.9403 58.8927 95.6145C59.2071 96.2888 59.3643 97.0842 59.3643 98.0009C59.3643 98.9251 59.2071 99.7263 58.8927 100.404C58.5783 101.079 58.1427 101.601 57.5859 101.972C57.0291 102.34 56.387 102.524 55.6598 102.524C55.0992 102.524 54.6503 102.431 54.3132 102.245C53.9761 102.056 53.7166 101.842 53.5348 101.603C53.353 101.361 53.2128 101.16 53.1143 101.001H53.0007V105.615H51.6598ZM52.978 97.9782C52.978 98.6373 53.0745 99.2187 53.2677 99.7225C53.4609 100.222 53.7431 100.615 54.1143 100.899C54.4855 101.179 54.9401 101.319 55.478 101.319C56.0386 101.319 56.5064 101.171 56.8814 100.876C57.2602 100.577 57.5442 100.175 57.7336 99.6713C57.9268 99.1638 58.0234 98.5994 58.0234 97.9782C58.0234 97.3645 57.9287 96.8115 57.7393 96.3191C57.5537 95.8229 57.2715 95.4308 56.8927 95.1429C56.5177 94.8513 56.0461 94.7054 55.478 94.7054C54.9325 94.7054 54.4742 94.8437 54.103 95.1202C53.7317 95.3929 53.4514 95.7755 53.262 96.2679C53.0727 96.7566 52.978 97.3266 52.978 97.9782ZM60.5298 105.615V93.6145H61.8252V95.0009H61.9843C62.0828 94.8494 62.2192 94.6562 62.3934 94.4213C62.5714 94.1827 62.8252 93.9706 63.1548 93.785C63.4881 93.5956 63.9389 93.5009 64.507 93.5009C65.2419 93.5009 65.8896 93.6846 66.4502 94.052C67.0108 94.4194 67.4483 94.9403 67.7627 95.6145C68.0771 96.2888 68.2343 97.0842 68.2343 98.0009C68.2343 98.9251 68.0771 99.7263 67.7627 100.404C67.4483 101.079 67.0127 101.601 66.4559 101.972C65.8991 102.34 65.257 102.524 64.5298 102.524C63.9692 102.524 63.5203 102.431 63.1832 102.245C62.8461 102.056 62.5866 101.842 62.4048 101.603C62.223 101.361 62.0828 101.16 61.9843 101.001H61.8707V105.615H60.5298ZM61.848 97.9782C61.848 98.6373 61.9445 99.2187 62.1377 99.7225C62.3309 100.222 62.6131 100.615 62.9843 100.899C63.3555 101.179 63.8101 101.319 64.348 101.319C64.9086 101.319 65.3764 101.171 65.7514 100.876C66.1302 100.577 66.4142 100.175 66.6036 99.6713C66.7968 99.1638 66.8934 98.5994 66.8934 97.9782C66.8934 97.3645 66.7987 96.8115 66.6093 96.3191C66.4237 95.8229 66.1415 95.4308 65.7627 95.1429C65.3877 94.8513 64.9161 94.7054 64.348 94.7054C63.8025 94.7054 63.3442 94.8437 62.973 95.1202C62.6017 95.3929 62.3214 95.7755 62.132 96.2679C61.9427 96.7566 61.848 97.3266 61.848 97.9782ZM70.7407 90.7054V102.342H69.3998V90.7054H70.7407ZM75.9757 102.524C75.1348 102.524 74.4095 102.338 73.7996 101.967C73.1935 101.592 72.7257 101.069 72.3962 100.399C72.0704 99.7244 71.9076 98.9403 71.9076 98.0463C71.9076 97.1524 72.0704 96.3645 72.3962 95.6827C72.7257 94.9971 73.1841 94.463 73.7712 94.0804C74.3621 93.6941 75.0515 93.5009 75.8394 93.5009C76.2939 93.5009 76.7428 93.5766 77.186 93.7282C77.6291 93.8797 78.0326 94.1259 78.3962 94.4668C78.7598 94.8039 79.0496 95.2509 79.2655 95.8077C79.4814 96.3645 79.5894 97.0501 79.5894 97.8645V98.4327H72.8621V97.2736H78.2257C78.2257 96.7812 78.1273 96.3418 77.9303 95.9554C77.7371 95.5691 77.4606 95.2641 77.1007 95.0407C76.7447 94.8172 76.3242 94.7054 75.8394 94.7054C75.3053 94.7054 74.8432 94.838 74.453 95.1032C74.0666 95.3645 73.7693 95.7054 73.561 96.1259C73.3526 96.5463 73.2485 96.9971 73.2485 97.4782V98.2509C73.2485 98.91 73.3621 99.4687 73.5894 99.927C73.8204 100.382 74.1405 100.728 74.5496 100.967C74.9587 101.202 75.4341 101.319 75.9757 101.319C76.328 101.319 76.6462 101.27 76.9303 101.171C77.2182 101.069 77.4663 100.918 77.6746 100.717C77.8829 100.512 78.0439 100.258 78.1576 99.9554L79.453 100.319C79.3166 100.758 79.0875 101.145 78.7655 101.478C78.4435 101.808 78.0458 102.065 77.5723 102.251C77.0988 102.433 76.5666 102.524 75.9757 102.524ZM84.3691 102.342V93.6145H85.7101V102.342H84.3691ZM85.051 92.16C84.7896 92.16 84.5642 92.071 84.3748 91.8929C84.1892 91.7149 84.0964 91.5009 84.0964 91.2509C84.0964 91.0009 84.1892 90.7869 84.3748 90.6088C84.5642 90.4308 84.7896 90.3418 85.051 90.3418C85.3123 90.3418 85.5358 90.4308 85.7214 90.6088C85.9108 90.7869 86.0055 91.0009 86.0055 91.2509C86.0055 91.5009 85.9108 91.7149 85.7214 91.8929C85.5358 92.071 85.3123 92.16 85.051 92.16ZM97.286 96.5236C97.286 97.7509 97.0644 98.8115 96.6213 99.7054C96.1781 100.599 95.5701 101.289 94.7974 101.774C94.0247 102.258 93.1421 102.501 92.1497 102.501C91.1572 102.501 90.2747 102.258 89.5019 101.774C88.7292 101.289 88.1213 100.599 87.6781 99.7054C87.2349 98.8115 87.0133 97.7509 87.0133 96.5236C87.0133 95.2963 87.2349 94.2357 87.6781 93.3418C88.1213 92.4479 88.7292 91.7585 89.5019 91.2736C90.2747 90.7888 91.1572 90.5463 92.1497 90.5463C93.1421 90.5463 94.0247 90.7888 94.7974 91.2736C95.5701 91.7585 96.1781 92.4479 96.6213 93.3418C97.0644 94.2357 97.286 95.2963 97.286 96.5236ZM95.9224 96.5236C95.9224 95.516 95.7538 94.6657 95.4167 93.9725C95.0834 93.2793 94.6307 92.7547 94.0588 92.3986C93.4906 92.0426 92.8542 91.8645 92.1497 91.8645C91.4451 91.8645 90.8069 92.0426 90.2349 92.3986C89.6667 92.7547 89.2141 93.2793 88.8769 93.9725C88.5436 94.6657 88.3769 95.516 88.3769 96.5236C88.3769 97.5312 88.5436 98.3816 88.8769 99.0748C89.2141 99.7679 89.6667 100.293 90.2349 100.649C90.8069 101.005 91.4451 101.183 92.1497 101.183C92.8542 101.183 93.4906 101.005 94.0588 100.649C94.6307 100.293 95.0834 99.7679 95.4167 99.0748C95.7538 98.3816 95.9224 97.5312 95.9224 96.5236ZM105.139 93.6145C105.071 93.0388 104.794 92.5918 104.309 92.2736C103.825 91.9554 103.23 91.7963 102.525 91.7963C102.01 91.7963 101.559 91.8797 101.173 92.0463C100.79 92.213 100.491 92.4422 100.275 92.7338C100.063 93.0255 99.9572 93.3569 99.9572 93.7282C99.9572 94.0388 100.031 94.3058 100.179 94.5293C100.33 94.749 100.523 94.9327 100.758 95.0804C100.993 95.2244 101.239 95.3437 101.497 95.4384C101.755 95.5293 101.991 95.6032 102.207 95.66L103.389 95.9782C103.692 96.0577 104.029 96.1676 104.4 96.3077C104.775 96.4479 105.133 96.6391 105.474 96.8816C105.819 97.1202 106.103 97.427 106.326 97.802C106.55 98.177 106.662 98.6373 106.662 99.1827C106.662 99.8115 106.497 100.38 106.167 100.887C105.842 101.395 105.364 101.798 104.736 102.097C104.111 102.397 103.351 102.546 102.457 102.546C101.624 102.546 100.902 102.412 100.292 102.143C99.6863 101.874 99.2091 101.499 98.8606 101.018C98.5159 100.537 98.3208 99.9782 98.2753 99.3418H99.7299C99.7678 99.7812 99.9155 100.145 100.173 100.433C100.434 100.717 100.764 100.929 101.162 101.069C101.563 101.205 101.995 101.274 102.457 101.274C102.995 101.274 103.478 101.186 103.906 101.012C104.334 100.834 104.673 100.588 104.923 100.274C105.173 99.9554 105.298 99.5842 105.298 99.16C105.298 98.7736 105.19 98.4592 104.974 98.2168C104.758 97.9744 104.474 97.7774 104.122 97.6259C103.77 97.4744 103.389 97.3418 102.98 97.2282L101.548 96.8191C100.639 96.5577 99.9193 96.1846 99.389 95.6998C98.8587 95.2149 98.5935 94.5804 98.5935 93.7963C98.5935 93.1448 98.7697 92.5766 99.1219 92.0918C99.478 91.6032 99.9553 91.2244 100.554 90.9554C101.156 90.6827 101.828 90.5463 102.571 90.5463C103.321 90.5463 103.987 90.6808 104.571 90.9498C105.154 91.2149 105.616 91.5785 105.957 92.0407C106.302 92.5028 106.484 93.0274 106.503 93.6145H105.139ZM111.985 90.7054V102.342H110.576V92.1827H110.508L107.667 94.0691V92.6373L110.576 90.7054H111.985ZM114.179 99.9554V98.7963L119.292 90.7054H120.133V92.5009H119.565L115.701 98.6145V98.7054H122.588V99.9554H114.179ZM119.656 102.342V99.6032V99.0634V90.7054H120.997V102.342H119.656ZM127.48 105.615V93.6145H128.775V95.0009H128.934C129.033 94.8494 129.169 94.6562 129.343 94.4213C129.521 94.1827 129.775 93.9706 130.105 93.785C130.438 93.5956 130.889 93.5009 131.457 93.5009C132.192 93.5009 132.84 93.6846 133.4 94.052C133.961 94.4194 134.398 94.9403 134.713 95.6145C135.027 96.2888 135.184 97.0842 135.184 98.0009C135.184 98.9251 135.027 99.7263 134.713 100.404C134.398 101.079 133.963 101.601 133.406 101.972C132.849 102.34 132.207 102.524 131.48 102.524C130.919 102.524 130.47 102.431 130.133 102.245C129.796 102.056 129.537 101.842 129.355 101.603C129.173 101.361 129.033 101.16 128.934 101.001H128.821V105.615H127.48ZM128.798 97.9782C128.798 98.6373 128.895 99.2187 129.088 99.7225C129.281 100.222 129.563 100.615 129.934 100.899C130.306 101.179 130.76 101.319 131.298 101.319C131.859 101.319 132.326 101.171 132.701 100.876C133.08 100.577 133.364 100.175 133.554 99.6713C133.747 99.1638 133.843 98.5994 133.843 97.9782C133.843 97.3645 133.749 96.8115 133.559 96.3191C133.374 95.8229 133.092 95.4308 132.713 95.1429C132.338 94.8513 131.866 94.7054 131.298 94.7054C130.753 94.7054 130.294 94.8437 129.923 95.1202C129.552 95.3929 129.271 95.7755 129.082 96.2679C128.893 96.7566 128.798 97.3266 128.798 97.9782ZM136.35 102.342V93.6145H137.645V94.9327H137.736C137.895 94.5009 138.183 94.1505 138.6 93.8816C139.016 93.6126 139.486 93.4782 140.009 93.4782C140.107 93.4782 140.23 93.4801 140.378 93.4838C140.526 93.4876 140.638 93.4933 140.713 93.5009V94.8645C140.668 94.8532 140.564 94.8361 140.401 94.8134C140.242 94.7869 140.073 94.7736 139.895 94.7736C139.471 94.7736 139.092 94.8626 138.759 95.0407C138.429 95.2149 138.168 95.4573 137.975 95.7679C137.785 96.0748 137.691 96.4251 137.691 96.8191V102.342H136.35ZM144.703 102.524C143.915 102.524 143.224 102.336 142.629 101.961C142.038 101.586 141.576 101.061 141.243 100.387C140.913 99.713 140.748 98.9251 140.748 98.0236C140.748 97.1145 140.913 96.321 141.243 95.6429C141.576 94.9649 142.038 94.4384 142.629 94.0634C143.224 93.6884 143.915 93.5009 144.703 93.5009C145.491 93.5009 146.18 93.6884 146.771 94.0634C147.366 94.4384 147.828 94.9649 148.157 95.6429C148.491 96.321 148.657 97.1145 148.657 98.0236C148.657 98.9251 148.491 99.713 148.157 100.387C147.828 101.061 147.366 101.586 146.771 101.961C146.18 102.336 145.491 102.524 144.703 102.524ZM144.703 101.319C145.301 101.319 145.794 101.166 146.18 100.859C146.566 100.552 146.852 100.149 147.038 99.6486C147.224 99.1486 147.316 98.6069 147.316 98.0236C147.316 97.4403 147.224 96.8967 147.038 96.3929C146.852 95.8891 146.566 95.4819 146.18 95.1713C145.794 94.8607 145.301 94.7054 144.703 94.7054C144.104 94.7054 143.612 94.8607 143.225 95.1713C142.839 95.4819 142.553 95.8891 142.368 96.3929C142.182 96.8967 142.089 97.4403 142.089 98.0236C142.089 98.6069 142.182 99.1486 142.368 99.6486C142.553 100.149 142.839 100.552 143.225 100.859C143.612 101.166 144.104 101.319 144.703 101.319ZM149.824 102.342V93.6145H151.12V94.9782H151.233C151.415 94.5123 151.709 94.1505 152.114 93.8929C152.519 93.6316 153.006 93.5009 153.574 93.5009C154.15 93.5009 154.629 93.6316 155.012 93.8929C155.398 94.1505 155.699 94.5123 155.915 94.9782H156.006C156.229 94.5274 156.565 94.1694 157.012 93.9043C157.459 93.6354 157.995 93.5009 158.62 93.5009C159.4 93.5009 160.038 93.7452 160.534 94.2338C161.031 94.7187 161.279 95.4744 161.279 96.5009V102.342H159.938V96.5009C159.938 95.8569 159.762 95.3967 159.409 95.1202C159.057 94.8437 158.642 94.7054 158.165 94.7054C157.551 94.7054 157.076 94.891 156.739 95.2623C156.402 95.6297 156.233 96.0956 156.233 96.66V102.342H154.87V96.3645C154.87 95.8683 154.709 95.4687 154.387 95.1657C154.065 94.8588 153.65 94.7054 153.142 94.7054C152.794 94.7054 152.468 94.7982 152.165 94.9838C151.866 95.1694 151.623 95.427 151.438 95.7566C151.256 96.0823 151.165 96.4592 151.165 96.8873V102.342H149.824ZM162.85 105.615V93.6145H164.146V95.0009H164.305C164.403 94.8494 164.54 94.6562 164.714 94.4213C164.892 94.1827 165.146 93.9706 165.475 93.785C165.809 93.5956 166.259 93.5009 166.828 93.5009C167.563 93.5009 168.21 93.6846 168.771 94.052C169.331 94.4194 169.769 94.9403 170.083 95.6145C170.398 96.2888 170.555 97.0842 170.555 98.0009C170.555 98.9251 170.398 99.7263 170.083 100.404C169.769 101.079 169.333 101.601 168.777 101.972C168.22 102.34 167.578 102.524 166.85 102.524C166.29 102.524 165.841 102.431 165.504 102.245C165.167 102.056 164.907 101.842 164.725 101.603C164.544 101.361 164.403 101.16 164.305 101.001H164.191V105.615H162.85ZM164.169 97.9782C164.169 98.6373 164.265 99.2187 164.458 99.7225C164.652 100.222 164.934 100.615 165.305 100.899C165.676 101.179 166.131 101.319 166.669 101.319C167.229 101.319 167.697 101.171 168.072 100.876C168.451 100.577 168.735 100.175 168.924 99.6713C169.117 99.1638 169.214 98.5994 169.214 97.9782C169.214 97.3645 169.119 96.8115 168.93 96.3191C168.744 95.8229 168.462 95.4308 168.083 95.1429C167.708 94.8513 167.237 94.7054 166.669 94.7054C166.123 94.7054 165.665 94.8437 165.294 95.1202C164.922 95.3929 164.642 95.7755 164.453 96.2679C164.263 96.7566 164.169 97.3266 164.169 97.9782ZM175.516 93.6145V94.7509H170.993V93.6145H175.516ZM172.311 91.5236H173.652V99.8418C173.652 100.221 173.707 100.505 173.817 100.694C173.931 100.88 174.075 101.005 174.249 101.069C174.427 101.13 174.614 101.16 174.811 101.16C174.959 101.16 175.08 101.152 175.175 101.137C175.27 101.118 175.345 101.103 175.402 101.092L175.675 102.296C175.584 102.33 175.457 102.365 175.294 102.399C175.131 102.436 174.925 102.455 174.675 102.455C174.296 102.455 173.925 102.374 173.561 102.211C173.201 102.048 172.902 101.8 172.664 101.467C172.429 101.133 172.311 100.713 172.311 100.205V91.5236ZM182.678 95.5691L181.474 95.91C181.398 95.7092 181.286 95.5141 181.139 95.3248C180.995 95.1316 180.798 94.9725 180.548 94.8475C180.298 94.7225 179.978 94.66 179.588 94.66C179.053 94.66 178.608 94.7831 178.252 95.0293C177.9 95.2717 177.724 95.5804 177.724 95.9554C177.724 96.2888 177.845 96.552 178.088 96.7452C178.33 96.9384 178.709 97.0994 179.224 97.2282L180.519 97.5463C181.3 97.7357 181.881 98.0255 182.264 98.4157C182.646 98.802 182.838 99.3001 182.838 99.91C182.838 100.41 182.694 100.857 182.406 101.251C182.122 101.645 181.724 101.955 181.213 102.183C180.701 102.41 180.106 102.524 179.428 102.524C178.538 102.524 177.802 102.33 177.218 101.944C176.635 101.558 176.266 100.993 176.11 100.251L177.383 99.9327C177.504 100.402 177.733 100.755 178.071 100.99C178.411 101.224 178.856 101.342 179.406 101.342C180.031 101.342 180.527 101.209 180.894 100.944C181.266 100.675 181.451 100.353 181.451 99.9782C181.451 99.6751 181.345 99.4213 181.133 99.2168C180.921 99.0085 180.595 98.8532 180.156 98.7509L178.701 98.41C177.902 98.2206 177.315 97.927 176.94 97.5293C176.569 97.1278 176.383 96.6259 176.383 96.0236C176.383 95.5312 176.521 95.0956 176.798 94.7168C177.078 94.338 177.459 94.0407 177.94 93.8248C178.425 93.6088 178.974 93.5009 179.588 93.5009C180.451 93.5009 181.129 93.6903 181.622 94.0691C182.118 94.4479 182.47 94.9479 182.678 95.5691ZM193.096 98.7736V93.6145H194.437V102.342H193.096V100.865H193.005C192.801 101.308 192.482 101.685 192.051 101.995C191.619 102.302 191.073 102.455 190.414 102.455C189.869 102.455 189.384 102.336 188.96 102.097C188.535 101.855 188.202 101.491 187.96 101.007C187.717 100.518 187.596 99.9024 187.596 99.16V93.6145H188.937V99.0691C188.937 99.7054 189.115 100.213 189.471 100.592C189.831 100.971 190.289 101.16 190.846 101.16C191.179 101.16 191.518 101.075 191.863 100.904C192.212 100.734 192.503 100.472 192.738 100.12C192.977 99.7679 193.096 99.3191 193.096 98.7736ZM202.195 95.5691L200.99 95.91C200.914 95.7092 200.803 95.5141 200.655 95.3248C200.511 95.1316 200.314 94.9725 200.064 94.8475C199.814 94.7225 199.494 94.66 199.104 94.66C198.57 94.66 198.125 94.7831 197.769 95.0293C197.416 95.2717 197.24 95.5804 197.24 95.9554C197.24 96.2888 197.361 96.552 197.604 96.7452C197.846 96.9384 198.225 97.0994 198.74 97.2282L200.036 97.5463C200.816 97.7357 201.397 98.0255 201.78 98.4157C202.163 98.802 202.354 99.3001 202.354 99.91C202.354 100.41 202.21 100.857 201.922 101.251C201.638 101.645 201.24 101.955 200.729 102.183C200.217 102.41 199.623 102.524 198.945 102.524C198.055 102.524 197.318 102.33 196.734 101.944C196.151 101.558 195.782 100.993 195.627 100.251L196.899 99.9327C197.02 100.402 197.25 100.755 197.587 100.99C197.928 101.224 198.373 101.342 198.922 101.342C199.547 101.342 200.043 101.209 200.411 100.944C200.782 100.675 200.967 100.353 200.967 99.9782C200.967 99.6751 200.861 99.4213 200.649 99.2168C200.437 99.0085 200.111 98.8532 199.672 98.7509L198.217 98.41C197.418 98.2206 196.831 97.927 196.456 97.5293C196.085 97.1278 195.899 96.6259 195.899 96.0236C195.899 95.5312 196.038 95.0956 196.314 94.7168C196.594 94.338 196.975 94.0407 197.456 93.8248C197.941 93.6088 198.49 93.5009 199.104 93.5009C199.967 93.5009 200.645 93.6903 201.138 94.0691C201.634 94.4479 201.986 94.9479 202.195 95.5691ZM207.151 102.524C206.31 102.524 205.585 102.338 204.975 101.967C204.369 101.592 203.901 101.069 203.572 100.399C203.246 99.7244 203.083 98.9403 203.083 98.0463C203.083 97.1524 203.246 96.3645 203.572 95.6827C203.901 94.9971 204.36 94.463 204.947 94.0804C205.538 93.6941 206.227 93.5009 207.015 93.5009C207.47 93.5009 207.918 93.5766 208.362 93.7282C208.805 93.8797 209.208 94.1259 209.572 94.4668C209.935 94.8039 210.225 95.2509 210.441 95.8077C210.657 96.3645 210.765 97.0501 210.765 97.8645V98.4327H204.038V97.2736H209.401C209.401 96.7812 209.303 96.3418 209.106 95.9554C208.913 95.5691 208.636 95.2641 208.276 95.0407C207.92 94.8172 207.5 94.7054 207.015 94.7054C206.481 94.7054 206.019 94.838 205.629 95.1032C205.242 95.3645 204.945 95.7054 204.737 96.1259C204.528 96.5463 204.424 96.9971 204.424 97.4782V98.2509C204.424 98.91 204.538 99.4687 204.765 99.927C204.996 100.382 205.316 100.728 205.725 100.967C206.134 101.202 206.61 101.319 207.151 101.319C207.504 101.319 207.822 101.27 208.106 101.171C208.394 101.069 208.642 100.918 208.85 100.717C209.059 100.512 209.22 100.258 209.333 99.9554L210.629 100.319C210.492 100.758 210.263 101.145 209.941 101.478C209.619 101.808 209.221 102.065 208.748 102.251C208.274 102.433 207.742 102.524 207.151 102.524ZM211.925 102.342V93.6145H213.22V94.9327H213.311C213.47 94.5009 213.758 94.1505 214.175 93.8816C214.591 93.6126 215.061 93.4782 215.584 93.4782C215.682 93.4782 215.805 93.4801 215.953 93.4838C216.101 93.4876 216.213 93.4933 216.288 93.5009V94.8645C216.243 94.8532 216.139 94.8361 215.976 94.8134C215.817 94.7869 215.648 94.7736 215.47 94.7736C215.046 94.7736 214.667 94.8626 214.334 95.0407C214.004 95.2149 213.743 95.4573 213.55 95.7679C213.36 96.0748 213.266 96.4251 213.266 96.8191V102.342H211.925ZM223.18 95.5691L221.975 95.91C221.899 95.7092 221.788 95.5141 221.64 95.3248C221.496 95.1316 221.299 94.9725 221.049 94.8475C220.799 94.7225 220.479 94.66 220.089 94.66C219.555 94.66 219.11 94.7831 218.754 95.0293C218.401 95.2717 218.225 95.5804 218.225 95.9554C218.225 96.2888 218.346 96.552 218.589 96.7452C218.831 96.9384 219.21 97.0994 219.725 97.2282L221.021 97.5463C221.801 97.7357 222.382 98.0255 222.765 98.4157C223.148 98.802 223.339 99.3001 223.339 99.91C223.339 100.41 223.195 100.857 222.907 101.251C222.623 101.645 222.225 101.955 221.714 102.183C221.202 102.41 220.608 102.524 219.93 102.524C219.04 102.524 218.303 102.33 217.719 101.944C217.136 101.558 216.767 100.993 216.612 100.251L217.884 99.9327C218.005 100.402 218.235 100.755 218.572 100.99C218.913 101.224 219.358 101.342 219.907 101.342C220.532 101.342 221.028 101.209 221.396 100.944C221.767 100.675 221.952 100.353 221.952 99.9782C221.952 99.6751 221.846 99.4213 221.634 99.2168C221.422 99.0085 221.096 98.8532 220.657 98.7509L219.202 98.41C218.403 98.2206 217.816 97.927 217.441 97.5293C217.07 97.1278 216.884 96.6259 216.884 96.0236C216.884 95.5312 217.023 95.0956 217.299 94.7168C217.579 94.338 217.96 94.0407 218.441 93.8248C218.926 93.6088 219.475 93.5009 220.089 93.5009C220.952 93.5009 221.63 93.6903 222.123 94.0691C222.619 94.4479 222.971 94.9479 223.18 95.5691ZM231.893 93.6145V94.7509H227.37V93.6145H231.893ZM228.688 91.5236H230.029V99.8418C230.029 100.221 230.084 100.505 230.194 100.694C230.307 100.88 230.451 101.005 230.626 101.069C230.804 101.13 230.991 101.16 231.188 101.16C231.336 101.16 231.457 101.152 231.552 101.137C231.647 101.118 231.722 101.103 231.779 101.092L232.052 102.296C231.961 102.33 231.834 102.365 231.671 102.399C231.508 102.436 231.302 102.455 231.052 102.455C230.673 102.455 230.302 102.374 229.938 102.211C229.578 102.048 229.279 101.8 229.04 101.467C228.806 101.133 228.688 100.713 228.688 100.205V91.5236ZM236.481 102.524C235.694 102.524 235.002 102.336 234.408 101.961C233.817 101.586 233.355 101.061 233.021 100.387C232.692 99.713 232.527 98.9251 232.527 98.0236C232.527 97.1145 232.692 96.321 233.021 95.6429C233.355 94.9649 233.817 94.4384 234.408 94.0634C235.002 93.6884 235.694 93.5009 236.481 93.5009C237.269 93.5009 237.959 93.6884 238.55 94.0634C239.144 94.4384 239.606 94.9649 239.936 95.6429C240.269 96.321 240.436 97.1145 240.436 98.0236C240.436 98.9251 240.269 99.713 239.936 100.387C239.606 101.061 239.144 101.586 238.55 101.961C237.959 102.336 237.269 102.524 236.481 102.524ZM236.481 101.319C237.08 101.319 237.572 101.166 237.959 100.859C238.345 100.552 238.631 100.149 238.817 99.6486C239.002 99.1486 239.095 98.6069 239.095 98.0236C239.095 97.4403 239.002 96.8967 238.817 96.3929C238.631 95.8891 238.345 95.4819 237.959 95.1713C237.572 94.8607 237.08 94.7054 236.481 94.7054C235.883 94.7054 235.391 94.8607 235.004 95.1713C234.618 95.4819 234.332 95.8891 234.146 96.3929C233.961 96.8967 233.868 97.4403 233.868 98.0236C233.868 98.6069 233.961 99.1486 234.146 99.6486C234.332 100.149 234.618 100.552 235.004 100.859C235.391 101.166 235.883 101.319 236.481 101.319ZM45.2727 129.524C44.4848 129.524 43.7936 129.336 43.1989 128.961C42.608 128.586 42.1458 128.061 41.8125 127.387C41.483 126.713 41.3182 125.925 41.3182 125.024C41.3182 124.115 41.483 123.321 41.8125 122.643C42.1458 121.965 42.608 121.438 43.1989 121.063C43.7936 120.688 44.4848 120.501 45.2727 120.501C46.0606 120.501 46.75 120.688 47.3409 121.063C47.9356 121.438 48.3977 121.965 48.7273 122.643C49.0606 123.321 49.2273 124.115 49.2273 125.024C49.2273 125.925 49.0606 126.713 48.7273 127.387C48.3977 128.061 47.9356 128.586 47.3409 128.961C46.75 129.336 46.0606 129.524 45.2727 129.524ZM45.2727 128.319C45.8712 128.319 46.3636 128.166 46.75 127.859C47.1364 127.552 47.4223 127.149 47.608 126.649C47.7936 126.149 47.8864 125.607 47.8864 125.024C47.8864 124.44 47.7936 123.897 47.608 123.393C47.4223 122.889 47.1364 122.482 46.75 122.171C46.3636 121.861 45.8712 121.705 45.2727 121.705C44.6742 121.705 44.1818 121.861 43.7955 122.171C43.4091 122.482 43.1231 122.889 42.9375 123.393C42.7519 123.897 42.6591 124.44 42.6591 125.024C42.6591 125.607 42.7519 126.149 42.9375 126.649C43.1231 127.149 43.4091 127.552 43.7955 127.859C44.1818 128.166 44.6742 128.319 45.2727 128.319ZM50.3941 132.615V120.615H51.6896V122.001H51.8487C51.9472 121.849 52.0835 121.656 52.2578 121.421C52.4358 121.183 52.6896 120.971 53.0191 120.785C53.3525 120.596 53.8032 120.501 54.3714 120.501C55.1063 120.501 55.754 120.685 56.3146 121.052C56.8752 121.419 57.3127 121.94 57.6271 122.615C57.9415 123.289 58.0987 124.084 58.0987 125.001C58.0987 125.925 57.9415 126.726 57.6271 127.404C57.3127 128.079 56.8771 128.601 56.3203 128.972C55.7635 129.34 55.1214 129.524 54.3941 129.524C53.8335 129.524 53.3847 129.431 53.0476 129.245C52.7104 129.056 52.451 128.842 52.2691 128.603C52.0873 128.361 51.9472 128.16 51.8487 128.001H51.7351V132.615H50.3941ZM51.7123 124.978C51.7123 125.637 51.8089 126.219 52.0021 126.722C52.1953 127.222 52.4775 127.615 52.8487 127.899C53.2199 128.179 53.6745 128.319 54.2123 128.319C54.7729 128.319 55.2407 128.171 55.6157 127.876C55.9945 127.577 56.2786 127.175 56.468 126.671C56.6612 126.164 56.7578 125.599 56.7578 124.978C56.7578 124.365 56.6631 123.811 56.4737 123.319C56.2881 122.823 56.0059 122.431 55.6271 122.143C55.2521 121.851 54.7805 121.705 54.2123 121.705C53.6669 121.705 53.2085 121.844 52.8373 122.12C52.4661 122.393 52.1858 122.776 51.9964 123.268C51.807 123.757 51.7123 124.327 51.7123 124.978ZM63.0596 120.615V121.751H58.5369V120.615H63.0596ZM59.8551 118.524H61.196V126.842C61.196 127.221 61.2509 127.505 61.3607 127.694C61.4744 127.88 61.6183 128.005 61.7926 128.069C61.9706 128.13 62.1581 128.16 62.3551 128.16C62.5028 128.16 62.624 128.152 62.7187 128.137C62.8134 128.118 62.8891 128.103 62.946 128.092L63.2187 129.296C63.1278 129.33 63.0009 129.365 62.838 129.399C62.6751 129.436 62.4687 129.455 62.2187 129.455C61.8399 129.455 61.4687 129.374 61.1051 129.211C60.7452 129.048 60.446 128.8 60.2073 128.467C59.9725 128.133 59.8551 127.713 59.8551 127.205V118.524ZM68.8841 123.728V124.978H63.7932V123.728H68.8841ZM73.909 129.524C73.1211 129.524 72.4298 129.336 71.8351 128.961C71.2442 128.586 70.7821 128.061 70.4487 127.387C70.1192 126.713 69.9544 125.925 69.9544 125.024C69.9544 124.115 70.1192 123.321 70.4487 122.643C70.7821 121.965 71.2442 121.438 71.8351 121.063C72.4298 120.688 73.1211 120.501 73.909 120.501C74.6969 120.501 75.3862 120.688 75.9772 121.063C76.5719 121.438 77.034 121.965 77.3635 122.643C77.6969 123.321 77.8635 124.115 77.8635 125.024C77.8635 125.925 77.6969 126.713 77.3635 127.387C77.034 128.061 76.5719 128.586 75.9772 128.961C75.3862 129.336 74.6969 129.524 73.909 129.524ZM73.909 128.319C74.5075 128.319 74.9999 128.166 75.3862 127.859C75.7726 127.552 76.0586 127.149 76.2442 126.649C76.4298 126.149 76.5226 125.607 76.5226 125.024C76.5226 124.44 76.4298 123.897 76.2442 123.393C76.0586 122.889 75.7726 122.482 75.3862 122.171C74.9999 121.861 74.5075 121.705 73.909 121.705C73.3105 121.705 72.8181 121.861 72.4317 122.171C72.0453 122.482 71.7594 122.889 71.5737 123.393C71.3881 123.897 71.2953 124.44 71.2953 125.024C71.2953 125.607 71.3881 126.149 71.5737 126.649C71.7594 127.149 72.0453 127.552 72.4317 127.859C72.8181 128.166 73.3105 128.319 73.909 128.319ZM84.5304 125.774V120.615H85.8713V129.342H84.5304V127.865H84.4395C84.2349 128.308 83.9168 128.685 83.4849 128.995C83.0531 129.302 82.5077 129.455 81.8486 129.455C81.3031 129.455 80.8183 129.336 80.394 129.097C79.9698 128.855 79.6365 128.491 79.394 128.007C79.1516 127.518 79.0304 126.902 79.0304 126.16V120.615H80.3713V126.069C80.3713 126.705 80.5493 127.213 80.9054 127.592C81.2652 127.971 81.7236 128.16 82.2804 128.16C82.6137 128.16 82.9527 128.075 83.2974 127.904C83.6459 127.734 83.9376 127.472 84.1724 127.12C84.4111 126.768 84.5304 126.319 84.5304 125.774ZM91.2427 120.615V121.751H86.72V120.615H91.2427ZM88.0382 118.524H89.3791V126.842C89.3791 127.221 89.434 127.505 89.5439 127.694C89.6575 127.88 89.8014 128.005 89.9757 128.069C90.1537 128.13 90.3412 128.16 90.5382 128.16C90.6859 128.16 90.8071 128.152 90.9018 128.137C90.9965 128.118 91.0723 128.103 91.1291 128.092L91.4018 129.296C91.3109 129.33 91.184 129.365 91.0211 129.399C90.8583 129.436 90.6518 129.455 90.4018 129.455C90.023 129.455 89.6518 129.374 89.2882 129.211C88.9283 129.048 88.6291 128.8 88.3905 128.467C88.1556 128.133 88.0382 127.713 88.0382 127.205V118.524ZM99.5452 129.524C98.7573 129.524 98.0661 129.336 97.4714 128.961C96.8805 128.586 96.4183 128.061 96.085 127.387C95.7555 126.713 95.5907 125.925 95.5907 125.024C95.5907 124.115 95.7555 123.321 96.085 122.643C96.4183 121.965 96.8805 121.438 97.4714 121.063C98.0661 120.688 98.7573 120.501 99.5452 120.501C100.333 120.501 101.022 120.688 101.613 121.063C102.208 121.438 102.67 121.965 103 122.643C103.333 123.321 103.5 124.115 103.5 125.024C103.5 125.925 103.333 126.713 103 127.387C102.67 128.061 102.208 128.586 101.613 128.961C101.022 129.336 100.333 129.524 99.5452 129.524ZM99.5452 128.319C100.144 128.319 100.636 128.166 101.022 127.859C101.409 127.552 101.695 127.149 101.88 126.649C102.066 126.149 102.159 125.607 102.159 125.024C102.159 124.44 102.066 123.897 101.88 123.393C101.695 122.889 101.409 122.482 101.022 122.171C100.636 121.861 100.144 121.705 99.5452 121.705C98.9467 121.705 98.4543 121.861 98.068 122.171C97.6816 122.482 97.3956 122.889 97.21 123.393C97.0244 123.897 96.9316 124.44 96.9316 125.024C96.9316 125.607 97.0244 126.149 97.21 126.649C97.3956 127.149 97.6816 127.552 98.068 127.859C98.4543 128.166 98.9467 128.319 99.5452 128.319ZM108.553 120.615V121.751H103.848V120.615H108.553ZM105.258 129.342V119.41C105.258 118.91 105.375 118.493 105.61 118.16C105.845 117.827 106.15 117.577 106.525 117.41C106.9 117.243 107.295 117.16 107.712 117.16C108.042 117.16 108.311 117.186 108.519 117.24C108.727 117.293 108.883 117.342 108.985 117.387L108.598 118.546C108.53 118.524 108.436 118.495 108.314 118.461C108.197 118.427 108.042 118.41 107.848 118.41C107.405 118.41 107.085 118.522 106.888 118.745C106.695 118.969 106.598 119.296 106.598 119.728V129.342H105.258ZM116.968 120.615V121.751H112.445V120.615H116.968ZM113.763 118.524H115.104V126.842C115.104 127.221 115.159 127.505 115.269 127.694C115.382 127.88 115.526 128.005 115.701 128.069C115.879 128.13 116.066 128.16 116.263 128.16C116.411 128.16 116.532 128.152 116.627 128.137C116.722 128.118 116.797 128.103 116.854 128.092L117.127 129.296C117.036 129.33 116.909 129.365 116.746 129.399C116.583 129.436 116.377 129.455 116.127 129.455C115.748 129.455 115.377 129.374 115.013 129.211C114.653 129.048 114.354 128.8 114.115 128.467C113.881 128.133 113.763 127.713 113.763 127.205V118.524ZM118.105 129.342V120.615H119.4V121.933H119.491C119.65 121.501 119.938 121.151 120.355 120.882C120.771 120.613 121.241 120.478 121.764 120.478C121.862 120.478 121.985 120.48 122.133 120.484C122.281 120.488 122.393 120.493 122.468 120.501V121.865C122.423 121.853 122.319 121.836 122.156 121.813C121.997 121.787 121.828 121.774 121.65 121.774C121.226 121.774 120.847 121.863 120.514 122.041C120.184 122.215 119.923 122.457 119.73 122.768C119.54 123.075 119.446 123.425 119.446 123.819V129.342H118.105ZM125.746 129.546C125.193 129.546 124.691 129.442 124.24 129.234C123.79 129.022 123.432 128.717 123.167 128.319C122.901 127.918 122.769 127.433 122.769 126.865C122.769 126.365 122.867 125.959 123.064 125.649C123.261 125.334 123.524 125.088 123.854 124.91C124.184 124.732 124.547 124.599 124.945 124.512C125.346 124.421 125.75 124.349 126.155 124.296C126.685 124.228 127.115 124.177 127.445 124.143C127.778 124.105 128.021 124.043 128.172 123.955C128.328 123.868 128.405 123.717 128.405 123.501V123.455C128.405 122.895 128.252 122.459 127.945 122.149C127.642 121.838 127.182 121.683 126.564 121.683C125.924 121.683 125.422 121.823 125.059 122.103C124.695 122.383 124.439 122.683 124.292 123.001L123.019 122.546C123.246 122.016 123.549 121.603 123.928 121.308C124.31 121.008 124.727 120.8 125.178 120.683C125.632 120.561 126.079 120.501 126.519 120.501C126.799 120.501 127.121 120.535 127.485 120.603C127.852 120.668 128.206 120.802 128.547 121.007C128.892 121.211 129.178 121.52 129.405 121.933C129.632 122.346 129.746 122.899 129.746 123.592V129.342H128.405V128.16H128.337C128.246 128.349 128.095 128.552 127.882 128.768C127.67 128.984 127.388 129.168 127.036 129.319C126.684 129.471 126.254 129.546 125.746 129.546ZM125.951 128.342C126.481 128.342 126.928 128.238 127.292 128.029C127.659 127.821 127.935 127.552 128.121 127.222C128.31 126.893 128.405 126.546 128.405 126.183V124.955C128.348 125.024 128.223 125.086 128.03 125.143C127.841 125.196 127.621 125.243 127.371 125.285C127.125 125.323 126.884 125.357 126.649 125.387C126.418 125.414 126.231 125.436 126.087 125.455C125.739 125.501 125.413 125.575 125.11 125.677C124.81 125.776 124.568 125.925 124.382 126.126C124.201 126.323 124.11 126.592 124.11 126.933C124.11 127.399 124.282 127.751 124.627 127.99C124.975 128.224 125.417 128.342 125.951 128.342ZM134.859 129.524C134.041 129.524 133.336 129.33 132.745 128.944C132.154 128.558 131.7 128.026 131.382 127.347C131.064 126.669 130.904 125.895 130.904 125.024C130.904 124.137 131.067 123.355 131.393 122.677C131.723 121.995 132.181 121.463 132.768 121.08C133.359 120.694 134.048 120.501 134.836 120.501C135.45 120.501 136.003 120.615 136.495 120.842C136.988 121.069 137.391 121.387 137.706 121.796C138.02 122.205 138.215 122.683 138.291 123.228H136.95C136.848 122.83 136.62 122.478 136.268 122.171C135.92 121.861 135.45 121.705 134.859 121.705C134.336 121.705 133.878 121.842 133.484 122.115C133.094 122.383 132.789 122.764 132.569 123.257C132.353 123.745 132.245 124.319 132.245 124.978C132.245 125.652 132.351 126.24 132.564 126.74C132.779 127.24 133.082 127.628 133.473 127.904C133.867 128.181 134.329 128.319 134.859 128.319C135.207 128.319 135.524 128.258 135.808 128.137C136.092 128.016 136.332 127.842 136.529 127.615C136.726 127.387 136.867 127.115 136.95 126.796H138.291C138.215 127.311 138.028 127.776 137.728 128.188C137.433 128.597 137.041 128.923 136.552 129.166C136.067 129.404 135.503 129.524 134.859 129.524ZM140.621 126.16L140.598 124.501H140.871L144.689 120.615H146.348L142.28 124.728H142.166L140.621 126.16ZM139.371 129.342V117.705H140.712V129.342H139.371ZM144.916 129.342L141.507 125.024L142.462 124.092L146.621 129.342H144.916ZM147.194 129.342V120.615H148.535V129.342H147.194ZM147.876 119.16C147.615 119.16 147.389 119.071 147.2 118.893C147.014 118.715 146.921 118.501 146.921 118.251C146.921 118.001 147.014 117.787 147.2 117.609C147.389 117.431 147.615 117.342 147.876 117.342C148.137 117.342 148.361 117.431 148.546 117.609C148.736 117.787 148.831 118.001 148.831 118.251C148.831 118.501 148.736 118.715 148.546 118.893C148.361 119.071 148.137 119.16 147.876 119.16ZM151.452 124.092V129.342H150.111V120.615H151.406V121.978H151.52C151.725 121.535 152.035 121.179 152.452 120.91C152.869 120.637 153.406 120.501 154.066 120.501C154.656 120.501 155.174 120.622 155.617 120.865C156.06 121.103 156.405 121.467 156.651 121.955C156.897 122.44 157.02 123.054 157.02 123.796V129.342H155.679V123.887C155.679 123.202 155.501 122.668 155.145 122.285C154.789 121.899 154.3 121.705 153.679 121.705C153.251 121.705 152.869 121.798 152.531 121.984C152.198 122.169 151.935 122.44 151.742 122.796C151.549 123.152 151.452 123.584 151.452 124.092ZM162.113 132.796C161.465 132.796 160.909 132.713 160.443 132.546C159.977 132.383 159.589 132.168 159.278 131.899C158.971 131.633 158.727 131.349 158.545 131.046L159.613 130.296C159.734 130.455 159.888 130.637 160.073 130.842C160.259 131.05 160.513 131.23 160.835 131.382C161.16 131.537 161.587 131.615 162.113 131.615C162.818 131.615 163.399 131.444 163.857 131.103C164.316 130.762 164.545 130.228 164.545 129.501V127.728H164.431C164.333 127.887 164.193 128.084 164.011 128.319C163.833 128.55 163.575 128.757 163.238 128.938C162.905 129.116 162.454 129.205 161.886 129.205C161.181 129.205 160.549 129.039 159.988 128.705C159.431 128.372 158.99 127.887 158.664 127.251C158.342 126.615 158.181 125.842 158.181 124.933C158.181 124.039 158.339 123.26 158.653 122.597C158.967 121.931 159.405 121.416 159.965 121.052C160.526 120.685 161.174 120.501 161.909 120.501C162.477 120.501 162.928 120.596 163.261 120.785C163.598 120.971 163.856 121.183 164.034 121.421C164.215 121.656 164.356 121.849 164.454 122.001H164.59V120.615H165.886V129.592C165.886 130.342 165.715 130.952 165.374 131.421C165.037 131.895 164.583 132.241 164.011 132.461C163.443 132.685 162.81 132.796 162.113 132.796ZM162.068 128.001C162.606 128.001 163.06 127.878 163.431 127.632C163.803 127.385 164.085 127.031 164.278 126.569C164.471 126.107 164.568 125.554 164.568 124.91C164.568 124.281 164.473 123.726 164.284 123.245C164.094 122.764 163.814 122.387 163.443 122.115C163.071 121.842 162.613 121.705 162.068 121.705C161.499 121.705 161.026 121.849 160.647 122.137C160.272 122.425 159.99 122.811 159.801 123.296C159.615 123.781 159.522 124.319 159.522 124.91C159.522 125.516 159.617 126.052 159.806 126.518C159.999 126.98 160.284 127.344 160.659 127.609C161.037 127.87 161.507 128.001 162.068 128.001ZM169.46 127.751L169.369 128.365C169.305 128.796 169.207 129.258 169.074 129.751C168.945 130.243 168.811 130.707 168.671 131.143C168.53 131.579 168.415 131.925 168.324 132.183H167.301C167.351 131.94 167.415 131.62 167.494 131.222C167.574 130.825 167.654 130.38 167.733 129.887C167.816 129.399 167.885 128.899 167.938 128.387L168.006 127.751H169.46ZM174.685 129.342V120.615H175.98V121.933H176.071C176.23 121.501 176.518 121.151 176.935 120.882C177.351 120.613 177.821 120.478 178.344 120.478C178.442 120.478 178.565 120.48 178.713 120.484C178.861 120.488 178.973 120.493 179.048 120.501V121.865C179.003 121.853 178.899 121.836 178.736 121.813C178.577 121.787 178.408 121.774 178.23 121.774C177.806 121.774 177.427 121.863 177.094 122.041C176.764 122.215 176.503 122.457 176.31 122.768C176.12 123.075 176.026 123.425 176.026 123.819V129.342H174.685ZM183.151 129.524C182.31 129.524 181.585 129.338 180.975 128.967C180.369 128.592 179.901 128.069 179.572 127.399C179.246 126.724 179.083 125.94 179.083 125.046C179.083 124.152 179.246 123.365 179.572 122.683C179.901 121.997 180.36 121.463 180.947 121.08C181.538 120.694 182.227 120.501 183.015 120.501C183.47 120.501 183.918 120.577 184.362 120.728C184.805 120.88 185.208 121.126 185.572 121.467C185.935 121.804 186.225 122.251 186.441 122.808C186.657 123.365 186.765 124.05 186.765 124.865V125.433H180.038V124.274H185.401C185.401 123.781 185.303 123.342 185.106 122.955C184.913 122.569 184.636 122.264 184.276 122.041C183.92 121.817 183.5 121.705 183.015 121.705C182.481 121.705 182.019 121.838 181.629 122.103C181.242 122.365 180.945 122.705 180.737 123.126C180.528 123.546 180.424 123.997 180.424 124.478V125.251C180.424 125.91 180.538 126.469 180.765 126.927C180.996 127.382 181.316 127.728 181.725 127.967C182.134 128.202 182.61 128.319 183.151 128.319C183.504 128.319 183.822 128.27 184.106 128.171C184.394 128.069 184.642 127.918 184.85 127.717C185.059 127.512 185.22 127.258 185.333 126.955L186.629 127.319C186.492 127.758 186.263 128.145 185.941 128.478C185.619 128.808 185.221 129.065 184.748 129.251C184.274 129.433 183.742 129.524 183.151 129.524ZM191.22 129.524C190.493 129.524 189.851 129.34 189.294 128.972C188.737 128.601 188.302 128.079 187.987 127.404C187.673 126.726 187.516 125.925 187.516 125.001C187.516 124.084 187.673 123.289 187.987 122.615C188.302 121.94 188.739 121.419 189.3 121.052C189.86 120.685 190.508 120.501 191.243 120.501C191.811 120.501 192.26 120.596 192.59 120.785C192.923 120.971 193.177 121.183 193.351 121.421C193.529 121.656 193.667 121.849 193.766 122.001H193.879V117.705H195.22V129.342H193.925V128.001H193.766C193.667 128.16 193.527 128.361 193.345 128.603C193.163 128.842 192.904 129.056 192.567 129.245C192.23 129.431 191.781 129.524 191.22 129.524ZM191.402 128.319C191.94 128.319 192.394 128.179 192.766 127.899C193.137 127.615 193.419 127.222 193.612 126.722C193.805 126.219 193.902 125.637 193.902 124.978C193.902 124.327 193.807 123.757 193.618 123.268C193.429 122.776 193.148 122.393 192.777 122.12C192.406 121.844 191.947 121.705 191.402 121.705C190.834 121.705 190.36 121.851 189.982 122.143C189.607 122.431 189.324 122.823 189.135 123.319C188.949 123.811 188.857 124.365 188.857 124.978C188.857 125.599 188.951 126.164 189.141 126.671C189.334 127.175 189.618 127.577 189.993 127.876C190.372 128.171 190.841 128.319 191.402 128.319ZM202.482 125.774V120.615H203.823V129.342H202.482V127.865H202.391C202.187 128.308 201.869 128.685 201.437 128.995C201.005 129.302 200.46 129.455 199.8 129.455C199.255 129.455 198.77 129.336 198.346 129.097C197.922 128.855 197.588 128.491 197.346 128.007C197.103 127.518 196.982 126.902 196.982 126.16V120.615H198.323V126.069C198.323 126.705 198.501 127.213 198.857 127.592C199.217 127.971 199.675 128.16 200.232 128.16C200.566 128.16 200.905 128.075 201.249 127.904C201.598 127.734 201.889 127.472 202.124 127.12C202.363 126.768 202.482 126.319 202.482 125.774ZM208.945 129.524C208.126 129.524 207.422 129.33 206.831 128.944C206.24 128.558 205.786 128.026 205.467 127.347C205.149 126.669 204.99 125.895 204.99 125.024C204.99 124.137 205.153 123.355 205.479 122.677C205.808 121.995 206.267 121.463 206.854 121.08C207.445 120.694 208.134 120.501 208.922 120.501C209.536 120.501 210.089 120.615 210.581 120.842C211.073 121.069 211.477 121.387 211.791 121.796C212.106 122.205 212.301 122.683 212.376 123.228H211.036C210.933 122.83 210.706 122.478 210.354 122.171C210.005 121.861 209.536 121.705 208.945 121.705C208.422 121.705 207.964 121.842 207.57 122.115C207.179 122.383 206.875 122.764 206.655 123.257C206.439 123.745 206.331 124.319 206.331 124.978C206.331 125.652 206.437 126.24 206.649 126.74C206.865 127.24 207.168 127.628 207.558 127.904C207.952 128.181 208.414 128.319 208.945 128.319C209.293 128.319 209.609 128.258 209.893 128.137C210.178 128.016 210.418 127.842 210.615 127.615C210.812 127.387 210.952 127.115 211.036 126.796H212.376C212.301 127.311 212.113 127.776 211.814 128.188C211.518 128.597 211.126 128.923 210.638 129.166C210.153 129.404 209.589 129.524 208.945 129.524ZM213.457 129.342V120.615H214.798V129.342H213.457ZM214.138 119.16C213.877 119.16 213.652 119.071 213.462 118.893C213.277 118.715 213.184 118.501 213.184 118.251C213.184 118.001 213.277 117.787 213.462 117.609C213.652 117.431 213.877 117.342 214.138 117.342C214.4 117.342 214.623 117.431 214.809 117.609C214.998 117.787 215.093 118.001 215.093 118.251C215.093 118.501 214.998 118.715 214.809 118.893C214.623 119.071 214.4 119.16 214.138 119.16ZM217.714 124.092V129.342H216.374V120.615H217.669V121.978H217.783C217.987 121.535 218.298 121.179 218.714 120.91C219.131 120.637 219.669 120.501 220.328 120.501C220.919 120.501 221.436 120.622 221.879 120.865C222.322 121.103 222.667 121.467 222.913 121.955C223.16 122.44 223.283 123.054 223.283 123.796V129.342H221.942V123.887C221.942 123.202 221.764 122.668 221.408 122.285C221.052 121.899 220.563 121.705 219.942 121.705C219.514 121.705 219.131 121.798 218.794 121.984C218.461 122.169 218.197 122.44 218.004 122.796C217.811 123.152 217.714 123.584 217.714 124.092ZM228.376 132.796C227.728 132.796 227.171 132.713 226.705 132.546C226.239 132.383 225.851 132.168 225.54 131.899C225.234 131.633 224.989 131.349 224.807 131.046L225.876 130.296C225.997 130.455 226.15 130.637 226.336 130.842C226.521 131.05 226.775 131.23 227.097 131.382C227.423 131.537 227.849 131.615 228.376 131.615C229.08 131.615 229.662 131.444 230.12 131.103C230.578 130.762 230.807 130.228 230.807 129.501V127.728H230.694C230.595 127.887 230.455 128.084 230.273 128.319C230.095 128.55 229.838 128.757 229.501 128.938C229.167 129.116 228.717 129.205 228.148 129.205C227.444 129.205 226.811 129.039 226.251 128.705C225.694 128.372 225.253 127.887 224.927 127.251C224.605 126.615 224.444 125.842 224.444 124.933C224.444 124.039 224.601 123.26 224.915 122.597C225.23 121.931 225.667 121.416 226.228 121.052C226.789 120.685 227.436 120.501 228.171 120.501C228.739 120.501 229.19 120.596 229.523 120.785C229.86 120.971 230.118 121.183 230.296 121.421C230.478 121.656 230.618 121.849 230.717 122.001H230.853V120.615H232.148V129.592C232.148 130.342 231.978 130.952 231.637 131.421C231.3 131.895 230.845 132.241 230.273 132.461C229.705 132.685 229.073 132.796 228.376 132.796ZM228.33 128.001C228.868 128.001 229.323 127.878 229.694 127.632C230.065 127.385 230.347 127.031 230.54 126.569C230.734 126.107 230.83 125.554 230.83 124.91C230.83 124.281 230.735 123.726 230.546 123.245C230.357 122.764 230.076 122.387 229.705 122.115C229.334 121.842 228.876 121.705 228.33 121.705C227.762 121.705 227.289 121.849 226.91 122.137C226.535 122.425 226.253 122.811 226.063 123.296C225.878 123.781 225.785 124.319 225.785 124.91C225.785 125.516 225.879 126.052 226.069 126.518C226.262 126.98 226.546 127.344 226.921 127.609C227.3 127.87 227.77 128.001 228.33 128.001ZM45.5227 146.615V147.751H41V146.615H45.5227ZM42.3182 144.524H43.6591V152.842C43.6591 153.221 43.714 153.505 43.8239 153.694C43.9375 153.88 44.0814 154.005 44.2557 154.069C44.4337 154.13 44.6212 154.16 44.8182 154.16C44.9659 154.16 45.0871 154.152 45.1818 154.137C45.2765 154.118 45.3523 154.103 45.4091 154.092L45.6818 155.296C45.5909 155.33 45.464 155.365 45.3011 155.399C45.1383 155.436 44.9318 155.455 44.6818 155.455C44.303 155.455 43.9318 155.374 43.5682 155.211C43.2083 155.048 42.9091 154.8 42.6705 154.467C42.4356 154.133 42.3182 153.713 42.3182 153.205V144.524ZM48.1882 150.092V155.342H46.8473V143.705H48.1882V147.978H48.3018C48.5064 147.527 48.8132 147.169 49.2223 146.904C49.6352 146.635 50.1844 146.501 50.87 146.501C51.4647 146.501 51.9855 146.62 52.4325 146.859C52.8795 147.094 53.2261 147.455 53.4723 147.944C53.7223 148.429 53.8473 149.046 53.8473 149.796V155.342H52.5064V149.887C52.5064 149.194 52.3264 148.658 51.9666 148.279C51.6105 147.897 51.1162 147.705 50.4836 147.705C50.0442 147.705 49.6503 147.798 49.3018 147.984C48.9571 148.169 48.6844 148.44 48.4836 148.796C48.2867 149.152 48.1882 149.584 48.1882 150.092ZM59.0795 155.524C58.2386 155.524 57.5132 155.338 56.9034 154.967C56.2973 154.592 55.8295 154.069 55.4999 153.399C55.1742 152.724 55.0113 151.94 55.0113 151.046C55.0113 150.152 55.1742 149.365 55.4999 148.683C55.8295 147.997 56.2878 147.463 56.8749 147.08C57.4659 146.694 58.1552 146.501 58.9431 146.501C59.3977 146.501 59.8465 146.577 60.2897 146.728C60.7329 146.88 61.1363 147.126 61.4999 147.467C61.8636 147.804 62.1534 148.251 62.3693 148.808C62.5852 149.365 62.6931 150.05 62.6931 150.865V151.433H55.9659V150.274H61.3295C61.3295 149.781 61.231 149.342 61.034 148.955C60.8409 148.569 60.5643 148.264 60.2045 148.041C59.8484 147.817 59.428 147.705 58.9431 147.705C58.409 147.705 57.9469 147.838 57.5568 148.103C57.1704 148.365 56.873 148.705 56.6647 149.126C56.4564 149.546 56.3522 149.997 56.3522 150.478V151.251C56.3522 151.91 56.4659 152.469 56.6931 152.927C56.9242 153.382 57.2443 153.728 57.6534 153.967C58.0624 154.202 58.5378 154.319 59.0795 154.319C59.4318 154.319 59.7499 154.27 60.034 154.171C60.3219 154.069 60.57 153.918 60.7784 153.717C60.9867 153.512 61.1477 153.258 61.2613 152.955L62.5568 153.319C62.4204 153.758 62.1912 154.145 61.8693 154.478C61.5473 154.808 61.1496 155.065 60.6761 155.251C60.2026 155.433 59.6704 155.524 59.0795 155.524ZM70.0411 155.546C69.488 155.546 68.9862 155.442 68.5354 155.234C68.0846 155.022 67.7267 154.717 67.4615 154.319C67.1964 153.918 67.0638 153.433 67.0638 152.865C67.0638 152.365 67.1623 151.959 67.3593 151.649C67.5562 151.334 67.8195 151.088 68.149 150.91C68.4786 150.732 68.8422 150.599 69.2399 150.512C69.6415 150.421 70.0449 150.349 70.4502 150.296C70.9805 150.228 71.4104 150.177 71.7399 150.143C72.0733 150.105 72.3157 150.043 72.4672 149.955C72.6225 149.868 72.7002 149.717 72.7002 149.501V149.455C72.7002 148.895 72.5468 148.459 72.2399 148.149C71.9369 147.838 71.4767 147.683 70.8593 147.683C70.2191 147.683 69.7172 147.823 69.3536 148.103C68.9899 148.383 68.7343 148.683 68.5865 149.001L67.3138 148.546C67.5411 148.016 67.8441 147.603 68.2229 147.308C68.6055 147.008 69.0221 146.8 69.4729 146.683C69.9274 146.561 70.3744 146.501 70.8138 146.501C71.0941 146.501 71.4161 146.535 71.7797 146.603C72.1471 146.668 72.5013 146.802 72.8422 147.007C73.1869 147.211 73.4729 147.52 73.7002 147.933C73.9274 148.346 74.0411 148.899 74.0411 149.592V155.342H72.7002V154.16H72.632C72.5411 154.349 72.3896 154.552 72.1774 154.768C71.9653 154.984 71.6831 155.168 71.3309 155.319C70.9786 155.471 70.5487 155.546 70.0411 155.546ZM70.2456 154.342C70.7759 154.342 71.2229 154.238 71.5865 154.029C71.954 153.821 72.2305 153.552 72.4161 153.222C72.6055 152.893 72.7002 152.546 72.7002 152.183V150.955C72.6434 151.024 72.5184 151.086 72.3252 151.143C72.1358 151.196 71.9161 151.243 71.6661 151.285C71.4199 151.323 71.1793 151.357 70.9445 151.387C70.7134 151.414 70.5259 151.436 70.382 151.455C70.0335 151.501 69.7077 151.575 69.4047 151.677C69.1055 151.776 68.863 151.925 68.6774 152.126C68.4956 152.323 68.4047 152.592 68.4047 152.933C68.4047 153.399 68.5771 153.751 68.9218 153.99C69.2702 154.224 69.7115 154.342 70.2456 154.342ZM82.4324 146.615L79.2051 155.342H77.8415L74.6142 146.615H76.0687L78.4778 153.569H78.5687L80.9778 146.615H82.4324ZM85.6248 155.546C85.0718 155.546 84.5699 155.442 84.1191 155.234C83.6684 155.022 83.3104 154.717 83.0453 154.319C82.7801 153.918 82.6476 153.433 82.6476 152.865C82.6476 152.365 82.746 151.959 82.943 151.649C83.14 151.334 83.4032 151.088 83.7328 150.91C84.0623 150.732 84.426 150.599 84.8237 150.512C85.2252 150.421 85.6286 150.349 86.0339 150.296C86.5642 150.228 86.9941 150.177 87.3237 150.143C87.657 150.105 87.8995 150.043 88.051 149.955C88.2063 149.868 88.2839 149.717 88.2839 149.501V149.455C88.2839 148.895 88.1305 148.459 87.8237 148.149C87.5207 147.838 87.0604 147.683 86.443 147.683C85.8029 147.683 85.301 147.823 84.9373 148.103C84.5737 148.383 84.318 148.683 84.1703 149.001L82.8976 148.546C83.1248 148.016 83.4279 147.603 83.8066 147.308C84.1892 147.008 84.6059 146.8 85.0566 146.683C85.5112 146.561 85.9582 146.501 86.3976 146.501C86.6779 146.501 86.9998 146.535 87.3635 146.603C87.7309 146.668 88.0851 146.802 88.426 147.007C88.7707 147.211 89.0566 147.52 89.2839 147.933C89.5112 148.346 89.6248 148.899 89.6248 149.592V155.342H88.2839V154.16H88.2157C88.1248 154.349 87.9733 154.552 87.7612 154.768C87.5491 154.984 87.2669 155.168 86.9146 155.319C86.5623 155.471 86.1324 155.546 85.6248 155.546ZM85.8294 154.342C86.3597 154.342 86.8066 154.238 87.1703 154.029C87.5377 153.821 87.8142 153.552 87.9998 153.222C88.1892 152.893 88.2839 152.546 88.2839 152.183V150.955C88.2271 151.024 88.1021 151.086 87.9089 151.143C87.7195 151.196 87.4998 151.243 87.2498 151.285C87.0036 151.323 86.7631 151.357 86.5282 151.387C86.2972 151.414 86.1097 151.436 85.9657 151.455C85.6173 151.501 85.2915 151.575 84.9885 151.677C84.6892 151.776 84.4468 151.925 84.2612 152.126C84.0794 152.323 83.9885 152.592 83.9885 152.933C83.9885 153.399 84.1608 153.751 84.5055 153.99C84.854 154.224 85.2953 154.342 85.8294 154.342ZM91.1923 155.342V146.615H92.5332V155.342H91.1923ZM91.8741 145.16C91.6127 145.16 91.3873 145.071 91.198 144.893C91.0123 144.715 90.9195 144.501 90.9195 144.251C90.9195 144.001 91.0123 143.787 91.198 143.609C91.3873 143.431 91.6127 143.342 91.8741 143.342C92.1355 143.342 92.3589 143.431 92.5445 143.609C92.7339 143.787 92.8286 144.001 92.8286 144.251C92.8286 144.501 92.7339 144.715 92.5445 144.893C92.3589 145.071 92.1355 145.16 91.8741 145.16ZM95.4501 143.705V155.342H94.1091V143.705H95.4501ZM99.5942 155.546C99.0412 155.546 98.5393 155.442 98.0885 155.234C97.6378 155.022 97.2798 154.717 97.0147 154.319C96.7495 153.918 96.6169 153.433 96.6169 152.865C96.6169 152.365 96.7154 151.959 96.9124 151.649C97.1094 151.334 97.3726 151.088 97.7022 150.91C98.0317 150.732 98.3953 150.599 98.7931 150.512C99.1946 150.421 99.598 150.349 100.003 150.296C100.534 150.228 100.964 150.177 101.293 150.143C101.626 150.105 101.869 150.043 102.02 149.955C102.176 149.868 102.253 149.717 102.253 149.501V149.455C102.253 148.895 102.1 148.459 101.793 148.149C101.49 147.838 101.03 147.683 100.412 147.683C99.7722 147.683 99.2703 147.823 98.9067 148.103C98.5431 148.383 98.2874 148.683 98.1397 149.001L96.8669 148.546C97.0942 148.016 97.3972 147.603 97.776 147.308C98.1586 147.008 98.5753 146.8 99.026 146.683C99.4806 146.561 99.9275 146.501 100.367 146.501C100.647 146.501 100.969 146.535 101.333 146.603C101.7 146.668 102.054 146.802 102.395 147.007C102.74 147.211 103.026 147.52 103.253 147.933C103.481 148.346 103.594 148.899 103.594 149.592V155.342H102.253V154.16H102.185C102.094 154.349 101.943 154.552 101.731 154.768C101.518 154.984 101.236 155.168 100.884 155.319C100.532 155.471 100.102 155.546 99.5942 155.546ZM99.7988 154.342C100.329 154.342 100.776 154.238 101.14 154.029C101.507 153.821 101.784 153.552 101.969 153.222C102.159 152.893 102.253 152.546 102.253 152.183V150.955C102.196 151.024 102.071 151.086 101.878 151.143C101.689 151.196 101.469 151.243 101.219 151.285C100.973 151.323 100.732 151.357 100.498 151.387C100.267 151.414 100.079 151.436 99.9351 151.455C99.5866 151.501 99.2609 151.575 98.9578 151.677C98.6586 151.776 98.4162 151.925 98.2306 152.126C98.0488 152.323 97.9578 152.592 97.9578 152.933C97.9578 153.399 98.1302 153.751 98.4749 153.99C98.8234 154.224 99.2647 154.342 99.7988 154.342ZM105.343 155.342V143.705H106.684V148.001H106.798C106.896 147.849 107.033 147.656 107.207 147.421C107.385 147.183 107.639 146.971 107.968 146.785C108.302 146.596 108.753 146.501 109.321 146.501C110.056 146.501 110.703 146.685 111.264 147.052C111.825 147.419 112.262 147.94 112.576 148.615C112.891 149.289 113.048 150.084 113.048 151.001C113.048 151.925 112.891 152.726 112.576 153.404C112.262 154.079 111.826 154.601 111.27 154.972C110.713 155.34 110.071 155.524 109.343 155.524C108.783 155.524 108.334 155.431 107.997 155.245C107.66 155.056 107.4 154.842 107.218 154.603C107.037 154.361 106.896 154.16 106.798 154.001H106.639V155.342H105.343ZM106.662 150.978C106.662 151.637 106.758 152.219 106.951 152.722C107.145 153.222 107.427 153.615 107.798 153.899C108.169 154.179 108.624 154.319 109.162 154.319C109.722 154.319 110.19 154.171 110.565 153.876C110.944 153.577 111.228 153.175 111.417 152.671C111.611 152.164 111.707 151.599 111.707 150.978C111.707 150.365 111.612 149.811 111.423 149.319C111.237 148.823 110.955 148.431 110.576 148.143C110.201 147.851 109.73 147.705 109.162 147.705C108.616 147.705 108.158 147.844 107.787 148.12C107.415 148.393 107.135 148.776 106.946 149.268C106.756 149.757 106.662 150.327 106.662 150.978ZM114.219 155.342V146.615H115.56V155.342H114.219ZM114.901 145.16C114.64 145.16 114.414 145.071 114.225 144.893C114.039 144.715 113.946 144.501 113.946 144.251C113.946 144.001 114.039 143.787 114.225 143.609C114.414 143.431 114.64 143.342 114.901 143.342C115.162 143.342 115.386 143.431 115.571 143.609C115.761 143.787 115.856 144.001 115.856 144.251C115.856 144.501 115.761 144.715 115.571 144.893C115.386 145.071 115.162 145.16 114.901 145.16ZM118.477 143.705V155.342H117.136V143.705H118.477ZM120.053 155.342V146.615H121.394V155.342H120.053ZM120.735 145.16C120.473 145.16 120.248 145.071 120.059 144.893C119.873 144.715 119.78 144.501 119.78 144.251C119.78 144.001 119.873 143.787 120.059 143.609C120.248 143.431 120.473 143.342 120.735 143.342C120.996 143.342 121.22 143.431 121.405 143.609C121.595 143.787 121.689 144.001 121.689 144.251C121.689 144.501 121.595 144.715 121.405 144.893C121.22 145.071 120.996 145.16 120.735 145.16ZM126.765 146.615V147.751H122.243V146.615H126.765ZM123.561 144.524H124.902V152.842C124.902 153.221 124.957 153.505 125.066 153.694C125.18 153.88 125.324 154.005 125.498 154.069C125.676 154.13 125.864 154.16 126.061 154.16C126.208 154.16 126.33 154.152 126.424 154.137C126.519 154.118 126.595 154.103 126.652 154.092L126.924 155.296C126.833 155.33 126.707 155.365 126.544 155.399C126.381 155.436 126.174 155.455 125.924 155.455C125.546 155.455 125.174 155.374 124.811 155.211C124.451 155.048 124.152 154.8 123.913 154.467C123.678 154.133 123.561 153.713 123.561 153.205V144.524ZM128.766 158.615C128.539 158.615 128.336 158.596 128.158 158.558C127.98 158.524 127.857 158.49 127.789 158.455L128.13 157.274C128.455 157.357 128.743 157.387 128.993 157.365C129.243 157.342 129.465 157.23 129.658 157.029C129.855 156.832 130.035 156.512 130.198 156.069L130.448 155.387L127.22 146.615H128.675L131.084 153.569H131.175L133.584 146.615H135.039L131.334 156.615C131.167 157.065 130.961 157.438 130.715 157.734C130.469 158.033 130.183 158.255 129.857 158.399C129.535 158.543 129.171 158.615 128.766 158.615ZM143.094 155.524C142.306 155.524 141.615 155.336 141.02 154.961C140.429 154.586 139.967 154.061 139.634 153.387C139.304 152.713 139.139 151.925 139.139 151.024C139.139 150.115 139.304 149.321 139.634 148.643C139.967 147.965 140.429 147.438 141.02 147.063C141.615 146.688 142.306 146.501 143.094 146.501C143.882 146.501 144.571 146.688 145.162 147.063C145.757 147.438 146.219 147.965 146.549 148.643C146.882 149.321 147.049 150.115 147.049 151.024C147.049 151.925 146.882 152.713 146.549 153.387C146.219 154.061 145.757 154.586 145.162 154.961C144.571 155.336 143.882 155.524 143.094 155.524ZM143.094 154.319C143.692 154.319 144.185 154.166 144.571 153.859C144.958 153.552 145.244 153.149 145.429 152.649C145.615 152.149 145.708 151.607 145.708 151.024C145.708 150.44 145.615 149.897 145.429 149.393C145.244 148.889 144.958 148.482 144.571 148.171C144.185 147.861 143.692 147.705 143.094 147.705C142.495 147.705 142.003 147.861 141.617 148.171C141.23 148.482 140.944 148.889 140.759 149.393C140.573 149.897 140.48 150.44 140.48 151.024C140.48 151.607 140.573 152.149 140.759 152.649C140.944 153.149 141.23 153.552 141.617 153.859C142.003 154.166 142.495 154.319 143.094 154.319ZM152.102 146.615V147.751H147.397V146.615H152.102ZM148.806 155.342V145.41C148.806 144.91 148.924 144.493 149.159 144.16C149.393 143.827 149.698 143.577 150.073 143.41C150.448 143.243 150.844 143.16 151.261 143.16C151.59 143.16 151.859 143.186 152.068 143.24C152.276 143.293 152.431 143.342 152.534 143.387L152.147 144.546C152.079 144.524 151.984 144.495 151.863 144.461C151.746 144.427 151.59 144.41 151.397 144.41C150.954 144.41 150.634 144.522 150.437 144.745C150.244 144.969 150.147 145.296 150.147 145.728V155.342H148.806ZM158.312 143.705V155.342H156.903V143.705H158.312ZM163.848 155.342H160.257V143.705H164.007C165.136 143.705 166.102 143.938 166.905 144.404C167.708 144.866 168.324 145.531 168.752 146.399C169.18 147.262 169.394 148.296 169.394 149.501C169.394 150.713 169.178 151.757 168.746 152.632C168.314 153.503 167.685 154.173 166.859 154.643C166.034 155.109 165.03 155.342 163.848 155.342ZM161.666 154.092H163.757C164.719 154.092 165.517 153.906 166.149 153.535C166.782 153.164 167.253 152.635 167.564 151.95C167.875 151.264 168.03 150.448 168.03 149.501C168.03 148.561 167.877 147.753 167.57 147.075C167.263 146.393 166.805 145.87 166.195 145.507C165.585 145.139 164.825 144.955 163.916 144.955H161.666V154.092ZM170.877 155.342V143.705H177.854V144.955H172.286V148.887H177.332V150.137H172.286V155.342H170.877ZM178.412 155.342H176.935L181.207 143.705H182.662L186.935 155.342H185.457L181.98 145.546H181.889L178.412 155.342ZM178.957 150.796H184.912V152.046H178.957V150.796ZM193.867 148.569L192.663 148.91C192.587 148.709 192.475 148.514 192.327 148.325C192.184 148.132 191.987 147.972 191.737 147.847C191.487 147.722 191.166 147.66 190.776 147.66C190.242 147.66 189.797 147.783 189.441 148.029C189.089 148.272 188.913 148.58 188.913 148.955C188.913 149.289 189.034 149.552 189.276 149.745C189.519 149.938 189.898 150.099 190.413 150.228L191.708 150.546C192.488 150.736 193.07 151.026 193.452 151.416C193.835 151.802 194.026 152.3 194.026 152.91C194.026 153.41 193.882 153.857 193.594 154.251C193.31 154.645 192.913 154.955 192.401 155.183C191.89 155.41 191.295 155.524 190.617 155.524C189.727 155.524 188.99 155.33 188.407 154.944C187.824 154.558 187.454 153.993 187.299 153.251L188.572 152.933C188.693 153.402 188.922 153.755 189.259 153.99C189.6 154.224 190.045 154.342 190.594 154.342C191.219 154.342 191.716 154.209 192.083 153.944C192.454 153.675 192.64 153.353 192.64 152.978C192.64 152.675 192.534 152.421 192.322 152.217C192.11 152.008 191.784 151.853 191.344 151.751L189.89 151.41C189.091 151.221 188.504 150.927 188.129 150.529C187.757 150.128 187.572 149.626 187.572 149.024C187.572 148.531 187.71 148.096 187.987 147.717C188.267 147.338 188.648 147.041 189.129 146.825C189.613 146.609 190.163 146.501 190.776 146.501C191.64 146.501 192.318 146.69 192.81 147.069C193.307 147.448 193.659 147.948 193.867 148.569ZM196.142 155.433C195.862 155.433 195.621 155.332 195.42 155.132C195.22 154.931 195.119 154.69 195.119 154.41C195.119 154.13 195.22 153.889 195.42 153.688C195.621 153.488 195.862 153.387 196.142 153.387C196.422 153.387 196.663 153.488 196.864 153.688C197.064 153.889 197.165 154.13 197.165 154.41C197.165 154.596 197.117 154.766 197.023 154.921C196.932 155.077 196.809 155.202 196.653 155.296C196.502 155.387 196.331 155.433 196.142 155.433Z" fill="black"/>
<path d="M11 65.5847C11 68.6223 8.53757 71.0847 5.5 71.0847C2.46243 71.0847 0 68.6223 0 65.5847C0 62.5472 2.46243 60.0847 5.5 60.0847C8.53757 60.0847 11 62.5472 11 65.5847Z" fill="url(#paint1_linear_3_3005)"/>
<defs>
<linearGradient id="paint0_linear_3_3005" x1="148" y1="11.8418" x2="220.5" y2="46.3418" gradientUnits="userSpaceOnUse">
<stop stop-color="#00888F"/>
<stop offset="1" stop-color="#340031"/>
</linearGradient>
<linearGradient id="paint1_linear_3_3005" x1="0.9" y1="61.3418" x2="4.56667" y2="72.3418" gradientUnits="userSpaceOnUse">
<stop offset="0.077397" stop-color="#00888F"/>
<stop offset="1" stop-color="#770370"/>
</linearGradient>
</defs>
</svg>
