<svg width="231" height="179" viewBox="0 0 231 179" fill="none" xmlns="http://www.w3.org/2000/svg">
<line x1="221.5" y1="65.3418" x2="0.5" y2="65.3418" stroke="#DBDBDB" stroke-width="2"/>
<path d="M3.99787 46.3418V42.3645L16.3026 29.6159C17.6165 28.231 18.6996 27.0177 19.5518 25.976C20.416 24.9225 21.0611 23.9223 21.4872 22.9753C21.9134 22.0283 22.1264 21.0222 22.1264 19.9569C22.1264 18.7495 21.8423 17.7078 21.2741 16.8319C20.706 15.9441 19.9306 15.2634 18.9482 14.79C17.9657 14.3046 16.8589 14.062 15.6278 14.062C14.3258 14.062 13.1894 14.3283 12.2188 14.861C11.2481 15.3936 10.5024 16.1453 9.98153 17.1159C9.4607 18.0866 9.20028 19.223 9.20028 20.525H3.96236C3.96236 18.3115 4.47135 16.3761 5.48935 14.7189C6.50734 13.0617 7.90412 11.7774 9.67969 10.8659C11.4553 9.94265 13.4735 9.481 15.7344 9.481C18.0189 9.481 20.0313 9.93673 21.7713 10.8482C23.5232 11.7478 24.8904 12.9789 25.8729 14.5414C26.8554 16.092 27.3466 17.8439 27.3466 19.7971C27.3466 21.1465 27.0921 22.4663 26.5831 23.7566C26.0859 25.0468 25.2159 26.485 23.973 28.0712C22.7301 29.6455 21.0019 31.5572 18.7884 33.8063L11.5618 41.3702V41.6365H27.9325V46.3418H3.99787ZM44.5717 46.9455C41.7663 46.9337 39.3693 46.1938 37.3807 44.726C35.392 43.2582 33.871 41.1216 32.8175 38.3162C31.764 35.5108 31.2372 32.1313 31.2372 28.1777C31.2372 24.236 31.764 20.8683 32.8175 18.0748C33.8828 15.2812 35.4098 13.1505 37.3984 11.6827C39.3989 10.2149 41.79 9.481 44.5717 9.481C47.3535 9.481 49.7386 10.2208 51.7273 11.7005C53.7159 13.1683 55.237 15.2989 56.2905 18.0925C57.3558 20.8742 57.8885 24.236 57.8885 28.1777C57.8885 32.1432 57.3617 35.5286 56.3082 38.334C55.2547 41.1275 53.7337 43.2641 51.745 44.7438C49.7564 46.2116 47.3653 46.9455 44.5717 46.9455ZM44.5717 42.2047C47.0339 42.2047 48.9574 41.0033 50.3423 38.6003C51.7391 36.1974 52.4375 32.7232 52.4375 28.1777C52.4375 25.1593 52.1179 22.6084 51.4787 20.525C50.8513 18.4299 49.9458 16.8437 48.7621 15.7665C47.5902 14.6775 46.1934 14.133 44.5717 14.133C42.1214 14.133 40.1979 15.3404 38.8011 17.7551C37.4044 20.1699 36.7 23.6441 36.6882 28.1777C36.6882 31.208 37.0019 33.7708 37.6293 35.8659C38.2685 37.9493 39.174 39.5295 40.3459 40.6067C41.5178 41.6721 42.9264 42.2047 44.5717 42.2047ZM61.4373 46.3418V42.3645L73.742 29.6159C75.0559 28.231 76.139 27.0177 76.9913 25.976C77.8554 24.9225 78.5005 23.9223 78.9267 22.9753C79.3528 22.0283 79.5659 21.0222 79.5659 19.9569C79.5659 18.7495 79.2818 17.7078 78.7136 16.8319C78.1454 15.9441 77.3701 15.2634 76.3876 14.79C75.4051 14.3046 74.2984 14.062 73.0673 14.062C71.7652 14.062 70.6288 14.3283 69.6582 14.861C68.6876 15.3936 67.9418 16.1453 67.421 17.1159C66.9002 18.0866 66.6397 19.223 66.6397 20.525H61.4018C61.4018 18.3115 61.9108 16.3761 62.9288 14.7189C63.9468 13.0617 65.3436 11.7774 67.1191 10.8659C68.8947 9.94265 70.9129 9.481 73.1738 9.481C75.4584 9.481 77.4707 9.93673 79.2108 10.8482C80.9627 11.7478 82.3298 12.9789 83.3123 14.5414C84.2948 16.092 84.786 17.8439 84.786 19.7971C84.786 21.1465 84.5315 22.4663 84.0225 23.7566C83.5254 25.0468 82.6554 26.485 81.4125 28.0712C80.1696 29.6455 78.4413 31.5572 76.2278 33.8063L69.0012 41.3702V41.6365H85.372V46.3418H61.4373ZM87.8066 39.2395V34.8006L103.52 9.97816H107.018V16.5123H104.799L93.5595 34.3034V34.5875H115.097V39.2395H87.8066ZM105.047 46.3418V37.8901L105.083 35.8659V9.97816H110.285V46.3418H105.047Z" fill="url(#paint0_linear_3_3006)"/>
<path d="M9.86364 105.342C9.73864 104.959 9.57386 104.616 9.36932 104.313C9.16856 104.007 8.92803 103.745 8.64773 103.529C8.37121 103.313 8.05682 103.149 7.70455 103.035C7.35227 102.921 6.96591 102.865 6.54545 102.865C5.85606 102.865 5.22917 103.043 4.66477 103.399C4.10038 103.755 3.65152 104.279 3.31818 104.972C2.98485 105.666 2.81818 106.516 2.81818 107.524C2.81818 108.531 2.98674 109.382 3.32386 110.075C3.66098 110.768 4.11742 111.293 4.69318 111.649C5.26894 112.005 5.91667 112.183 6.63636 112.183C7.30303 112.183 7.89015 112.041 8.39773 111.757C8.90909 111.469 9.30682 111.063 9.59091 110.541C9.87879 110.014 10.0227 109.395 10.0227 108.683L10.4545 108.774H6.95455V107.524H11.3864V108.774C11.3864 109.732 11.1818 110.565 10.7727 111.274C10.3674 111.982 9.80682 112.531 9.09091 112.921C8.37879 113.308 7.56061 113.501 6.63636 113.501C5.60606 113.501 4.70076 113.258 3.92045 112.774C3.14394 112.289 2.53788 111.599 2.10227 110.705C1.67045 109.811 1.45455 108.751 1.45455 107.524C1.45455 106.603 1.57765 105.776 1.82386 105.041C2.07386 104.302 2.42614 103.673 2.88068 103.154C3.33523 102.635 3.87311 102.238 4.49432 101.961C5.11553 101.685 5.79924 101.546 6.54545 101.546C7.15909 101.546 7.73106 101.639 8.26136 101.825C8.79545 102.007 9.27083 102.266 9.6875 102.603C10.108 102.936 10.4583 103.336 10.7386 103.802C11.0189 104.264 11.2121 104.777 11.3182 105.342H9.86364ZM16.2834 113.524C15.4955 113.524 14.8042 113.336 14.2095 112.961C13.6186 112.586 13.1565 112.061 12.8231 111.387C12.4936 110.713 12.3288 109.925 12.3288 109.024C12.3288 108.115 12.4936 107.321 12.8231 106.643C13.1565 105.965 13.6186 105.438 14.2095 105.063C14.8042 104.688 15.4955 104.501 16.2834 104.501C17.0712 104.501 17.7606 104.688 18.3515 105.063C18.9462 105.438 19.4084 105.965 19.7379 106.643C20.0712 107.321 20.2379 108.115 20.2379 109.024C20.2379 109.925 20.0712 110.713 19.7379 111.387C19.4084 112.061 18.9462 112.586 18.3515 112.961C17.7606 113.336 17.0712 113.524 16.2834 113.524ZM16.2834 112.319C16.8818 112.319 17.3743 112.166 17.7606 111.859C18.147 111.552 18.433 111.149 18.6186 110.649C18.8042 110.149 18.897 109.607 18.897 109.024C18.897 108.44 18.8042 107.897 18.6186 107.393C18.433 106.889 18.147 106.482 17.7606 106.171C17.3743 105.861 16.8818 105.705 16.2834 105.705C15.6849 105.705 15.1924 105.861 14.8061 106.171C14.4197 106.482 14.1337 106.889 13.9481 107.393C13.7625 107.897 13.6697 108.44 13.6697 109.024C13.6697 109.607 13.7625 110.149 13.9481 110.649C14.1337 111.149 14.4197 111.552 14.8061 111.859C15.1924 112.166 15.6849 112.319 16.2834 112.319ZM24.9502 113.524C24.1623 113.524 23.4711 113.336 22.8764 112.961C22.2855 112.586 21.8233 112.061 21.49 111.387C21.1605 110.713 20.9957 109.925 20.9957 109.024C20.9957 108.115 21.1605 107.321 21.49 106.643C21.8233 105.965 22.2855 105.438 22.8764 105.063C23.4711 104.688 24.1623 104.501 24.9502 104.501C25.7381 104.501 26.4275 104.688 27.0184 105.063C27.6131 105.438 28.0752 105.965 28.4048 106.643C28.7381 107.321 28.9048 108.115 28.9048 109.024C28.9048 109.925 28.7381 110.713 28.4048 111.387C28.0752 112.061 27.6131 112.586 27.0184 112.961C26.4275 113.336 25.7381 113.524 24.9502 113.524ZM24.9502 112.319C25.5487 112.319 26.0411 112.166 26.4275 111.859C26.8139 111.552 27.0998 111.149 27.2855 110.649C27.4711 110.149 27.5639 109.607 27.5639 109.024C27.5639 108.44 27.4711 107.897 27.2855 107.393C27.0998 106.889 26.8139 106.482 26.4275 106.171C26.0411 105.861 25.5487 105.705 24.9502 105.705C24.3517 105.705 23.8593 105.861 23.473 106.171C23.0866 106.482 22.8006 106.889 22.615 107.393C22.4294 107.897 22.3366 108.44 22.3366 109.024C22.3366 109.607 22.4294 110.149 22.615 110.649C22.8006 111.149 23.0866 111.552 23.473 111.859C23.8593 112.166 24.3517 112.319 24.9502 112.319ZM33.5944 116.796C32.9466 116.796 32.3898 116.713 31.9239 116.546C31.458 116.383 31.0698 116.168 30.7591 115.899C30.4523 115.633 30.208 115.349 30.0262 115.046L31.0944 114.296C31.2156 114.455 31.369 114.637 31.5546 114.842C31.7402 115.05 31.994 115.23 32.316 115.382C32.6417 115.537 33.0679 115.615 33.5944 115.615C34.2989 115.615 34.8804 115.444 35.3387 115.103C35.797 114.762 36.0262 114.228 36.0262 113.501V111.728H35.9126C35.8141 111.887 35.6739 112.084 35.4921 112.319C35.3141 112.55 35.0565 112.757 34.7194 112.938C34.386 113.116 33.9353 113.205 33.3671 113.205C32.6626 113.205 32.03 113.039 31.4694 112.705C30.9126 112.372 30.4713 111.887 30.1455 111.251C29.8235 110.615 29.6626 109.842 29.6626 108.933C29.6626 108.039 29.8198 107.26 30.1341 106.597C30.4485 105.931 30.886 105.416 31.4466 105.052C32.0073 104.685 32.655 104.501 33.3898 104.501C33.958 104.501 34.4088 104.596 34.7421 104.785C35.0792 104.971 35.3368 105.183 35.5148 105.421C35.6966 105.656 35.8368 105.849 35.9353 106.001H36.0716V104.615H37.3671V113.592C37.3671 114.342 37.1966 114.952 36.8557 115.421C36.5186 115.895 36.0641 116.241 35.4921 116.461C34.9239 116.685 34.2913 116.796 33.5944 116.796ZM33.5489 112.001C34.0868 112.001 34.5413 111.878 34.9126 111.632C35.2838 111.385 35.566 111.031 35.7591 110.569C35.9523 110.107 36.0489 109.554 36.0489 108.91C36.0489 108.281 35.9542 107.726 35.7648 107.245C35.5754 106.764 35.2951 106.387 34.9239 106.115C34.5527 105.842 34.0944 105.705 33.5489 105.705C32.9807 105.705 32.5073 105.849 32.1285 106.137C31.7535 106.425 31.4713 106.811 31.2819 107.296C31.0963 107.781 31.0035 108.319 31.0035 108.91C31.0035 109.516 31.0982 110.052 31.2876 110.518C31.4807 110.98 31.7648 111.344 32.1398 111.609C32.5186 111.87 32.9883 112.001 33.5489 112.001ZM40.2826 101.705V113.342H38.9416V101.705H40.2826ZM45.5176 113.524C44.6767 113.524 43.9513 113.338 43.3415 112.967C42.7354 112.592 42.2676 112.069 41.9381 111.399C41.6123 110.724 41.4494 109.94 41.4494 109.046C41.4494 108.152 41.6123 107.365 41.9381 106.683C42.2676 105.997 42.7259 105.463 43.3131 105.08C43.904 104.694 44.5934 104.501 45.3812 104.501C45.8358 104.501 46.2847 104.577 46.7278 104.728C47.171 104.88 47.5744 105.126 47.9381 105.467C48.3017 105.804 48.5915 106.251 48.8074 106.808C49.0233 107.365 49.1312 108.05 49.1312 108.865V109.433H42.404V108.274H47.7676C47.7676 107.781 47.6691 107.342 47.4722 106.955C47.279 106.569 47.0025 106.264 46.6426 106.041C46.2866 105.817 45.8661 105.705 45.3812 105.705C44.8472 105.705 44.385 105.838 43.9949 106.103C43.6085 106.365 43.3112 106.705 43.1028 107.126C42.8945 107.546 42.7903 107.997 42.7903 108.478V109.251C42.7903 109.91 42.904 110.469 43.1312 110.927C43.3623 111.382 43.6824 111.728 44.0915 111.967C44.5006 112.202 44.9759 112.319 45.5176 112.319C45.8699 112.319 46.1881 112.27 46.4722 112.171C46.76 112.069 47.0081 111.918 47.2165 111.717C47.4248 111.512 47.5858 111.258 47.6994 110.955L48.9949 111.319C48.8585 111.758 48.6294 112.145 48.3074 112.478C47.9854 112.808 47.5877 113.065 47.1142 113.251C46.6407 113.433 46.1085 113.524 45.5176 113.524ZM63.4565 105.342H62.0474C61.9641 104.936 61.8182 104.58 61.6099 104.274C61.4053 103.967 61.1553 103.709 60.8599 103.501C60.5682 103.289 60.2444 103.13 59.8883 103.024C59.5322 102.918 59.161 102.865 58.7747 102.865C58.0701 102.865 57.4319 103.043 56.8599 103.399C56.2917 103.755 55.8391 104.279 55.5019 104.972C55.1686 105.666 55.0019 106.516 55.0019 107.524C55.0019 108.531 55.1686 109.382 55.5019 110.075C55.8391 110.768 56.2917 111.293 56.8599 111.649C57.4319 112.005 58.0701 112.183 58.7747 112.183C59.161 112.183 59.5322 112.13 59.8883 112.024C60.2444 111.918 60.5682 111.76 60.8599 111.552C61.1553 111.34 61.4053 111.08 61.6099 110.774C61.8182 110.463 61.9641 110.107 62.0474 109.705H63.4565C63.3504 110.3 63.1572 110.832 62.8769 111.302C62.5966 111.772 62.2481 112.171 61.8315 112.501C61.4148 112.827 60.947 113.075 60.4281 113.245C59.9129 113.416 59.3618 113.501 58.7747 113.501C57.7822 113.501 56.8997 113.258 56.1269 112.774C55.3542 112.289 54.7463 111.599 54.3031 110.705C53.8599 109.811 53.6383 108.751 53.6383 107.524C53.6383 106.296 53.8599 105.236 54.3031 104.342C54.7463 103.448 55.3542 102.758 56.1269 102.274C56.8997 101.789 57.7822 101.546 58.7747 101.546C59.3618 101.546 59.9129 101.632 60.4281 101.802C60.947 101.972 61.4148 102.222 61.8315 102.552C62.2481 102.878 62.5966 103.276 62.8769 103.745C63.1572 104.211 63.3504 104.743 63.4565 105.342ZM66.0126 108.092V113.342H64.6716V101.705H66.0126V105.978H66.1262C66.3307 105.527 66.6376 105.169 67.0466 104.904C67.4595 104.635 68.0088 104.501 68.6944 104.501C69.2891 104.501 69.8099 104.62 70.2569 104.859C70.7038 105.094 71.0504 105.455 71.2966 105.944C71.5466 106.429 71.6716 107.046 71.6716 107.796V113.342H70.3307V107.887C70.3307 107.194 70.1508 106.658 69.791 106.279C69.4349 105.897 68.9406 105.705 68.308 105.705C67.8686 105.705 67.4747 105.798 67.1262 105.984C66.7815 106.169 66.5088 106.44 66.308 106.796C66.111 107.152 66.0126 107.584 66.0126 108.092ZM73.2448 113.342V104.615H74.5402V105.933H74.6311C74.7902 105.501 75.0781 105.151 75.4948 104.882C75.9114 104.613 76.3811 104.478 76.9039 104.478C77.0024 104.478 77.1255 104.48 77.2732 104.484C77.4209 104.488 77.5327 104.493 77.6084 104.501V105.865C77.563 105.853 77.4588 105.836 77.2959 105.813C77.1368 105.787 76.9683 105.774 76.7902 105.774C76.366 105.774 75.9872 105.863 75.6539 106.041C75.3243 106.215 75.063 106.457 74.8698 106.768C74.6804 107.075 74.5857 107.425 74.5857 107.819V113.342H73.2448ZM81.5977 113.524C80.8098 113.524 80.1186 113.336 79.5239 112.961C78.933 112.586 78.4708 112.061 78.1375 111.387C77.808 110.713 77.6432 109.925 77.6432 109.024C77.6432 108.115 77.808 107.321 78.1375 106.643C78.4708 105.965 78.933 105.438 79.5239 105.063C80.1186 104.688 80.8098 104.501 81.5977 104.501C82.3856 104.501 83.075 104.688 83.6659 105.063C84.2606 105.438 84.7227 105.965 85.0523 106.643C85.3856 107.321 85.5523 108.115 85.5523 109.024C85.5523 109.925 85.3856 110.713 85.0523 111.387C84.7227 112.061 84.2606 112.586 83.6659 112.961C83.075 113.336 82.3856 113.524 81.5977 113.524ZM81.5977 112.319C82.1962 112.319 82.6886 112.166 83.075 111.859C83.4614 111.552 83.7473 111.149 83.933 110.649C84.1186 110.149 84.2114 109.607 84.2114 109.024C84.2114 108.44 84.1186 107.897 83.933 107.393C83.7473 106.889 83.4614 106.482 83.075 106.171C82.6886 105.861 82.1962 105.705 81.5977 105.705C80.9992 105.705 80.5068 105.861 80.1205 106.171C79.7341 106.482 79.4481 106.889 79.2625 107.393C79.0769 107.897 78.9841 108.44 78.9841 109.024C78.9841 109.607 79.0769 110.149 79.2625 110.649C79.4481 111.149 79.7341 111.552 80.1205 111.859C80.5068 112.166 80.9992 112.319 81.5977 112.319ZM86.7191 113.342V104.615H88.0146V105.978H88.1282C88.3101 105.512 88.6036 105.151 89.0089 104.893C89.4142 104.632 89.901 104.501 90.4691 104.501C91.0449 104.501 91.5241 104.632 91.9066 104.893C92.293 105.151 92.5941 105.512 92.8101 105.978H92.901C93.1245 105.527 93.4597 105.169 93.9066 104.904C94.3536 104.635 94.8896 104.501 95.5146 104.501C96.2949 104.501 96.9332 104.745 97.4294 105.234C97.9256 105.719 98.1737 106.474 98.1737 107.501V113.342H96.8328V107.501C96.8328 106.857 96.6566 106.397 96.3044 106.12C95.9521 105.844 95.5373 105.705 95.0601 105.705C94.4464 105.705 93.971 105.891 93.6339 106.262C93.2968 106.63 93.1282 107.096 93.1282 107.66V113.342H91.7646V107.365C91.7646 106.868 91.6036 106.469 91.2816 106.166C90.9597 105.859 90.5449 105.705 90.0373 105.705C89.6888 105.705 89.3631 105.798 89.0601 105.984C88.7608 106.169 88.5184 106.427 88.3328 106.757C88.151 107.082 88.0601 107.459 88.0601 107.887V113.342H86.7191ZM103.404 113.524C102.564 113.524 101.838 113.338 101.228 112.967C100.622 112.592 100.154 112.069 99.8249 111.399C99.4992 110.724 99.3363 109.94 99.3363 109.046C99.3363 108.152 99.4992 107.365 99.8249 106.683C100.154 105.997 100.613 105.463 101.2 105.08C101.791 104.694 102.48 104.501 103.268 104.501C103.723 104.501 104.172 104.577 104.615 104.728C105.058 104.88 105.461 105.126 105.825 105.467C106.189 105.804 106.478 106.251 106.694 106.808C106.91 107.365 107.018 108.05 107.018 108.865V109.433H100.291V108.274H105.654C105.654 107.781 105.556 107.342 105.359 106.955C105.166 106.569 104.889 106.264 104.529 106.041C104.173 105.817 103.753 105.705 103.268 105.705C102.734 105.705 102.272 105.838 101.882 106.103C101.495 106.365 101.198 106.705 100.99 107.126C100.781 107.546 100.677 107.997 100.677 108.478V109.251C100.677 109.91 100.791 110.469 101.018 110.927C101.249 111.382 101.569 111.728 101.978 111.967C102.387 112.202 102.863 112.319 103.404 112.319C103.757 112.319 104.075 112.27 104.359 112.171C104.647 112.069 104.895 111.918 105.103 111.717C105.312 111.512 105.473 111.258 105.586 110.955L106.882 111.319C106.745 111.758 106.516 112.145 106.194 112.478C105.872 112.808 105.475 113.065 105.001 113.251C104.528 113.433 103.995 113.524 103.404 113.524ZM115.593 104.615V105.751H111.071V104.615H115.593ZM112.389 102.524H113.73V110.842C113.73 111.221 113.785 111.505 113.894 111.694C114.008 111.88 114.152 112.005 114.326 112.069C114.504 112.13 114.692 112.16 114.889 112.16C115.037 112.16 115.158 112.152 115.252 112.137C115.347 112.118 115.423 112.103 115.48 112.092L115.752 113.296C115.662 113.33 115.535 113.365 115.372 113.399C115.209 113.436 115.002 113.455 114.752 113.455C114.374 113.455 114.002 113.374 113.639 113.211C113.279 113.048 112.98 112.8 112.741 112.467C112.506 112.133 112.389 111.713 112.389 111.205V102.524ZM120.182 113.524C119.394 113.524 118.703 113.336 118.108 112.961C117.517 112.586 117.055 112.061 116.722 111.387C116.392 110.713 116.228 109.925 116.228 109.024C116.228 108.115 116.392 107.321 116.722 106.643C117.055 105.965 117.517 105.438 118.108 105.063C118.703 104.688 119.394 104.501 120.182 104.501C120.97 104.501 121.659 104.688 122.25 105.063C122.845 105.438 123.307 105.965 123.637 106.643C123.97 107.321 124.137 108.115 124.137 109.024C124.137 109.925 123.97 110.713 123.637 111.387C123.307 112.061 122.845 112.586 122.25 112.961C121.659 113.336 120.97 113.524 120.182 113.524ZM120.182 112.319C120.781 112.319 121.273 112.166 121.659 111.859C122.046 111.552 122.332 111.149 122.517 110.649C122.703 110.149 122.796 109.607 122.796 109.024C122.796 108.44 122.703 107.897 122.517 107.393C122.332 106.889 122.046 106.482 121.659 106.171C121.273 105.861 120.781 105.705 120.182 105.705C119.584 105.705 119.091 105.861 118.705 106.171C118.318 106.482 118.032 106.889 117.847 107.393C117.661 107.897 117.568 108.44 117.568 109.024C117.568 109.607 117.661 110.149 117.847 110.649C118.032 111.149 118.318 111.552 118.705 111.859C119.091 112.166 119.584 112.319 120.182 112.319ZM129.105 113.342V101.705H130.446V106.001H130.56C130.658 105.849 130.795 105.656 130.969 105.421C131.147 105.183 131.401 104.971 131.73 104.785C132.064 104.596 132.514 104.501 133.083 104.501C133.817 104.501 134.465 104.685 135.026 105.052C135.586 105.419 136.024 105.94 136.338 106.615C136.653 107.289 136.81 108.084 136.81 109.001C136.81 109.925 136.653 110.726 136.338 111.404C136.024 112.079 135.588 112.601 135.031 112.972C134.475 113.34 133.833 113.524 133.105 113.524C132.545 113.524 132.096 113.431 131.759 113.245C131.422 113.056 131.162 112.842 130.98 112.603C130.799 112.361 130.658 112.16 130.56 112.001H130.401V113.342H129.105ZM130.424 108.978C130.424 109.637 130.52 110.219 130.713 110.722C130.906 111.222 131.189 111.615 131.56 111.899C131.931 112.179 132.386 112.319 132.924 112.319C133.484 112.319 133.952 112.171 134.327 111.876C134.706 111.577 134.99 111.175 135.179 110.671C135.372 110.164 135.469 109.599 135.469 108.978C135.469 108.365 135.374 107.811 135.185 107.319C134.999 106.823 134.717 106.431 134.338 106.143C133.963 105.851 133.492 105.705 132.924 105.705C132.378 105.705 131.92 105.844 131.549 106.12C131.177 106.393 130.897 106.776 130.708 107.268C130.518 107.757 130.424 108.327 130.424 108.978ZM139.322 101.705V113.342H137.981V101.705H139.322ZM144.443 113.524C143.655 113.524 142.964 113.336 142.369 112.961C141.779 112.586 141.316 112.061 140.983 111.387C140.654 110.713 140.489 109.925 140.489 109.024C140.489 108.115 140.654 107.321 140.983 106.643C141.316 105.965 141.779 105.438 142.369 105.063C142.964 104.688 143.655 104.501 144.443 104.501C145.231 104.501 145.921 104.688 146.512 105.063C147.106 105.438 147.568 105.965 147.898 106.643C148.231 107.321 148.398 108.115 148.398 109.024C148.398 109.925 148.231 110.713 147.898 111.387C147.568 112.061 147.106 112.586 146.512 112.961C145.921 113.336 145.231 113.524 144.443 113.524ZM144.443 112.319C145.042 112.319 145.534 112.166 145.921 111.859C146.307 111.552 146.593 111.149 146.779 110.649C146.964 110.149 147.057 109.607 147.057 109.024C147.057 108.44 146.964 107.897 146.779 107.393C146.593 106.889 146.307 106.482 145.921 106.171C145.534 105.861 145.042 105.705 144.443 105.705C143.845 105.705 143.352 105.861 142.966 106.171C142.58 106.482 142.294 106.889 142.108 107.393C141.923 107.897 141.83 108.44 141.83 109.024C141.83 109.607 141.923 110.149 142.108 110.649C142.294 111.149 142.58 111.552 142.966 111.859C143.352 112.166 143.845 112.319 144.443 112.319ZM153.11 113.524C152.292 113.524 151.587 113.33 150.997 112.944C150.406 112.558 149.951 112.026 149.633 111.347C149.315 110.669 149.156 109.895 149.156 109.024C149.156 108.137 149.319 107.355 149.644 106.677C149.974 105.995 150.432 105.463 151.019 105.08C151.61 104.694 152.3 104.501 153.087 104.501C153.701 104.501 154.254 104.615 154.747 104.842C155.239 105.069 155.642 105.387 155.957 105.796C156.271 106.205 156.466 106.683 156.542 107.228H155.201C155.099 106.83 154.872 106.478 154.519 106.171C154.171 105.861 153.701 105.705 153.11 105.705C152.587 105.705 152.129 105.842 151.735 106.115C151.345 106.383 151.04 106.764 150.82 107.257C150.605 107.745 150.497 108.319 150.497 108.978C150.497 109.652 150.603 110.24 150.815 110.74C151.031 111.24 151.334 111.628 151.724 111.904C152.118 112.181 152.58 112.319 153.11 112.319C153.459 112.319 153.775 112.258 154.059 112.137C154.343 112.016 154.584 111.842 154.781 111.615C154.978 111.387 155.118 111.115 155.201 110.796H156.542C156.466 111.311 156.279 111.776 155.98 112.188C155.684 112.597 155.292 112.923 154.803 113.166C154.319 113.404 153.754 113.524 153.11 113.524ZM158.872 110.16L158.85 108.501H159.122L162.94 104.615H164.6L160.531 108.728H160.418L158.872 110.16ZM157.622 113.342V101.705H158.963V113.342H157.622ZM163.168 113.342L159.759 109.024L160.713 108.092L164.872 113.342H163.168ZM5.52273 131.615V132.751H1V131.615H5.52273ZM2.31818 129.524H3.65909V137.842C3.65909 138.221 3.71402 138.505 3.82386 138.694C3.9375 138.88 4.08144 139.005 4.25568 139.069C4.43371 139.13 4.62121 139.16 4.81818 139.16C4.96591 139.16 5.08712 139.152 5.18182 139.137C5.27652 139.118 5.35227 139.103 5.40909 139.092L5.68182 140.296C5.59091 140.33 5.46402 140.365 5.30114 140.399C5.13826 140.436 4.93182 140.455 4.68182 140.455C4.30303 140.455 3.93182 140.374 3.56818 140.211C3.20833 140.048 2.90909 139.8 2.67045 139.467C2.43561 139.133 2.31818 138.713 2.31818 138.205V129.524ZM8.18818 135.092V140.342H6.84727V128.705H8.18818V132.978H8.30182C8.50636 132.527 8.81318 132.169 9.22227 131.904C9.63515 131.635 10.1844 131.501 10.87 131.501C11.4647 131.501 11.9855 131.62 12.4325 131.859C12.8795 132.094 13.2261 132.455 13.4723 132.944C13.7223 133.429 13.8473 134.046 13.8473 134.796V140.342H12.5064V134.887C12.5064 134.194 12.3264 133.658 11.9666 133.279C11.6105 132.897 11.1162 132.705 10.4836 132.705C10.0442 132.705 9.6503 132.798 9.30182 132.984C8.95712 133.169 8.68439 133.44 8.48364 133.796C8.28667 134.152 8.18818 134.584 8.18818 135.092ZM15.4204 140.342V131.615H16.7613V140.342H15.4204ZM16.1022 130.16C15.8409 130.16 15.6155 130.071 15.4261 129.893C15.2405 129.715 15.1477 129.501 15.1477 129.251C15.1477 129.001 15.2405 128.787 15.4261 128.609C15.6155 128.431 15.8409 128.342 16.1022 128.342C16.3636 128.342 16.5871 128.431 16.7727 128.609C16.9621 128.787 17.0568 129.001 17.0568 129.251C17.0568 129.501 16.9621 129.715 16.7727 129.893C16.5871 130.071 16.3636 130.16 16.1022 130.16ZM18.3373 140.342V131.615H19.6327V132.933H19.7236C19.8827 132.501 20.1706 132.151 20.5873 131.882C21.0039 131.613 21.4736 131.478 21.9964 131.478C22.0948 131.478 22.218 131.48 22.3657 131.484C22.5134 131.488 22.6252 131.493 22.7009 131.501V132.865C22.6555 132.853 22.5513 132.836 22.3884 132.813C22.2293 132.787 22.0608 132.774 21.8827 132.774C21.4585 132.774 21.0797 132.863 20.7464 133.041C20.4168 133.215 20.1555 133.457 19.9623 133.768C19.7729 134.075 19.6782 134.425 19.6782 134.819V140.342H18.3373ZM26.4402 140.524C25.713 140.524 25.0709 140.34 24.5141 139.972C23.9573 139.601 23.5217 139.079 23.2073 138.404C22.8929 137.726 22.7357 136.925 22.7357 136.001C22.7357 135.084 22.8929 134.289 23.2073 133.615C23.5217 132.94 23.9592 132.419 24.5198 132.052C25.0804 131.685 25.7281 131.501 26.463 131.501C27.0311 131.501 27.48 131.596 27.8095 131.785C28.1429 131.971 28.3967 132.183 28.5709 132.421C28.7489 132.656 28.8872 132.849 28.9857 133.001H29.0993V128.705H30.4402V140.342H29.1448V139.001H28.9857C28.8872 139.16 28.747 139.361 28.5652 139.603C28.3834 139.842 28.1239 140.056 27.7868 140.245C27.4497 140.431 27.0008 140.524 26.4402 140.524ZM26.622 139.319C27.1599 139.319 27.6145 139.179 27.9857 138.899C28.3569 138.615 28.6391 138.222 28.8323 137.722C29.0255 137.219 29.122 136.637 29.122 135.978C29.122 135.327 29.0273 134.757 28.838 134.268C28.6486 133.776 28.3683 133.393 27.997 133.12C27.6258 132.844 27.1675 132.705 26.622 132.705C26.0539 132.705 25.5804 132.851 25.2016 133.143C24.8266 133.431 24.5444 133.823 24.355 134.319C24.1694 134.811 24.0766 135.365 24.0766 135.978C24.0766 136.599 24.1713 137.164 24.3607 137.671C24.5539 138.175 24.838 138.577 25.213 138.876C25.5917 139.171 26.0614 139.319 26.622 139.319ZM37.2023 134.728V135.978H32.1114V134.728H37.2023ZM38.6816 143.615V131.615H39.9771V133.001H40.1362C40.2347 132.849 40.371 132.656 40.5453 132.421C40.7233 132.183 40.9771 131.971 41.3066 131.785C41.64 131.596 42.0907 131.501 42.6589 131.501C43.3938 131.501 44.0415 131.685 44.6021 132.052C45.1627 132.419 45.6002 132.94 45.9146 133.615C46.229 134.289 46.3862 135.084 46.3862 136.001C46.3862 136.925 46.229 137.726 45.9146 138.404C45.6002 139.079 45.1646 139.601 44.6078 139.972C44.051 140.34 43.4089 140.524 42.6816 140.524C42.121 140.524 41.6722 140.431 41.3351 140.245C40.9979 140.056 40.7385 139.842 40.5566 139.603C40.3748 139.361 40.2347 139.16 40.1362 139.001H40.0226V143.615H38.6816ZM39.9998 135.978C39.9998 136.637 40.0964 137.219 40.2896 137.722C40.4828 138.222 40.765 138.615 41.1362 138.899C41.5074 139.179 41.962 139.319 42.4998 139.319C43.0604 139.319 43.5282 139.171 43.9032 138.876C44.282 138.577 44.5661 138.175 44.7555 137.671C44.9487 137.164 45.0453 136.599 45.0453 135.978C45.0453 135.365 44.9506 134.811 44.7612 134.319C44.5756 133.823 44.2934 133.431 43.9146 133.143C43.5396 132.851 43.068 132.705 42.4998 132.705C41.9544 132.705 41.496 132.844 41.1248 133.12C40.7536 133.393 40.4733 133.776 40.2839 134.268C40.0945 134.757 39.9998 135.327 39.9998 135.978ZM50.1198 140.546C49.5668 140.546 49.0649 140.442 48.6141 140.234C48.1634 140.022 47.8054 139.717 47.5403 139.319C47.2751 138.918 47.1426 138.433 47.1426 137.865C47.1426 137.365 47.241 136.959 47.438 136.649C47.635 136.334 47.8982 136.088 48.2278 135.91C48.5573 135.732 48.921 135.599 49.3187 135.512C49.7202 135.421 50.1236 135.349 50.5289 135.296C51.0592 135.228 51.4891 135.177 51.8187 135.143C52.152 135.105 52.3945 135.043 52.546 134.955C52.7013 134.868 52.7789 134.717 52.7789 134.501V134.455C52.7789 133.895 52.6255 133.459 52.3187 133.149C52.0157 132.838 51.5554 132.683 50.938 132.683C50.2979 132.683 49.796 132.823 49.4323 133.103C49.0687 133.383 48.813 133.683 48.6653 134.001L47.3926 133.546C47.6198 133.016 47.9229 132.603 48.3016 132.308C48.6842 132.008 49.1009 131.8 49.5516 131.683C50.0062 131.561 50.4532 131.501 50.8926 131.501C51.1729 131.501 51.4948 131.535 51.8585 131.603C52.2259 131.668 52.5801 131.802 52.921 132.007C53.2657 132.211 53.5516 132.52 53.7789 132.933C54.0062 133.346 54.1198 133.899 54.1198 134.592V140.342H52.7789V139.16H52.7107C52.6198 139.349 52.4683 139.552 52.2562 139.768C52.0441 139.984 51.7619 140.168 51.4096 140.319C51.0573 140.471 50.6274 140.546 50.1198 140.546ZM50.3244 139.342C50.8547 139.342 51.3016 139.238 51.6653 139.029C52.0327 138.821 52.3092 138.552 52.4948 138.222C52.6842 137.893 52.7789 137.546 52.7789 137.183V135.955C52.7221 136.024 52.5971 136.086 52.4039 136.143C52.2145 136.196 51.9948 136.243 51.7448 136.285C51.4986 136.323 51.2581 136.357 51.0232 136.387C50.7922 136.414 50.6047 136.436 50.4607 136.455C50.1123 136.501 49.7865 136.575 49.4835 136.677C49.1842 136.776 48.9418 136.925 48.7562 137.126C48.5744 137.323 48.4835 137.592 48.4835 137.933C48.4835 138.399 48.6558 138.751 49.0005 138.99C49.349 139.224 49.7903 139.342 50.3244 139.342ZM55.6873 140.342V131.615H56.9827V132.933H57.0736C57.2327 132.501 57.5206 132.151 57.9373 131.882C58.3539 131.613 58.8236 131.478 59.3464 131.478C59.4448 131.478 59.568 131.48 59.7157 131.484C59.8634 131.488 59.9752 131.493 60.0509 131.501V132.865C60.0055 132.853 59.9013 132.836 59.7384 132.813C59.5793 132.787 59.4108 132.774 59.2327 132.774C58.8085 132.774 58.4297 132.863 58.0964 133.041C57.7668 133.215 57.5055 133.457 57.3123 133.768C57.1229 134.075 57.0282 134.425 57.0282 134.819V140.342H55.6873ZM65.1027 131.615V132.751H60.58V131.615H65.1027ZM61.8982 129.524H63.2391V137.842C63.2391 138.221 63.294 138.505 63.4039 138.694C63.5175 138.88 63.6614 139.005 63.8357 139.069C64.0137 139.13 64.2012 139.16 64.3982 139.16C64.5459 139.16 64.6671 139.152 64.7618 139.137C64.8565 139.118 64.9323 139.103 64.9891 139.092L65.2618 140.296C65.1709 140.33 65.044 140.365 64.8811 140.399C64.7183 140.436 64.5118 140.455 64.2618 140.455C63.883 140.455 63.5118 140.374 63.1482 140.211C62.7883 140.048 62.4891 139.8 62.2505 139.467C62.0156 139.133 61.8982 138.713 61.8982 138.205V129.524ZM67.1034 143.615C66.8761 143.615 66.6735 143.596 66.4955 143.558C66.3174 143.524 66.1943 143.49 66.1261 143.455L66.467 142.274C66.7928 142.357 67.0807 142.387 67.3307 142.365C67.5807 142.342 67.8023 142.23 67.9955 142.029C68.1924 141.832 68.3723 141.512 68.5352 141.069L68.7852 140.387L65.558 131.615H67.0125L69.4216 138.569H69.5125L71.9216 131.615H73.3761L69.6716 141.615C69.5049 142.065 69.2985 142.438 69.0523 142.734C68.8061 143.033 68.5201 143.255 68.1943 143.399C67.8723 143.543 67.5087 143.615 67.1034 143.615ZM81.4315 140.524C80.6133 140.524 79.9088 140.33 79.3178 139.944C78.7269 139.558 78.2724 139.026 77.9542 138.347C77.636 137.669 77.4769 136.895 77.4769 136.024C77.4769 135.137 77.6398 134.355 77.9656 133.677C78.2951 132.995 78.7534 132.463 79.3406 132.08C79.9315 131.694 80.6209 131.501 81.4088 131.501C82.0224 131.501 82.5754 131.615 83.0678 131.842C83.5603 132.069 83.9637 132.387 84.2781 132.796C84.5925 133.205 84.7875 133.683 84.8633 134.228H83.5224C83.4201 133.83 83.1928 133.478 82.8406 133.171C82.4921 132.861 82.0224 132.705 81.4315 132.705C80.9088 132.705 80.4504 132.842 80.0565 133.115C79.6663 133.383 79.3614 133.764 79.1417 134.257C78.9258 134.745 78.8178 135.319 78.8178 135.978C78.8178 136.652 78.9239 137.24 79.136 137.74C79.3519 138.24 79.655 138.628 80.0451 138.904C80.4391 139.181 80.9012 139.319 81.4315 139.319C81.78 139.319 82.0963 139.258 82.3803 139.137C82.6644 139.016 82.905 138.842 83.1019 138.615C83.2989 138.387 83.4391 138.115 83.5224 137.796H84.8633C84.7875 138.311 84.6 138.776 84.3008 139.188C84.0053 139.597 83.6133 139.923 83.1247 140.166C82.6398 140.404 82.0754 140.524 81.4315 140.524ZM89.489 140.524C88.7011 140.524 88.0098 140.336 87.4151 139.961C86.8242 139.586 86.3621 139.061 86.0287 138.387C85.6992 137.713 85.5344 136.925 85.5344 136.024C85.5344 135.115 85.6992 134.321 86.0287 133.643C86.3621 132.965 86.8242 132.438 87.4151 132.063C88.0098 131.688 88.7011 131.501 89.489 131.501C90.2769 131.501 90.9662 131.688 91.5572 132.063C92.1519 132.438 92.614 132.965 92.9435 133.643C93.2769 134.321 93.4435 135.115 93.4435 136.024C93.4435 136.925 93.2769 137.713 92.9435 138.387C92.614 139.061 92.1519 139.586 91.5572 139.961C90.9662 140.336 90.2769 140.524 89.489 140.524ZM89.489 139.319C90.0875 139.319 90.5799 139.166 90.9662 138.859C91.3526 138.552 91.6386 138.149 91.8242 137.649C92.0098 137.149 92.1026 136.607 92.1026 136.024C92.1026 135.44 92.0098 134.897 91.8242 134.393C91.6386 133.889 91.3526 133.482 90.9662 133.171C90.5799 132.861 90.0875 132.705 89.489 132.705C88.8905 132.705 88.3981 132.861 88.0117 133.171C87.6253 133.482 87.3394 133.889 87.1537 134.393C86.9681 134.897 86.8753 135.44 86.8753 136.024C86.8753 136.607 86.9681 137.149 87.1537 137.649C87.3394 138.149 87.6253 138.552 88.0117 138.859C88.3981 139.166 88.8905 139.319 89.489 139.319ZM98.1559 140.524C97.368 140.524 96.6767 140.336 96.082 139.961C95.4911 139.586 95.029 139.061 94.6956 138.387C94.3661 137.713 94.2013 136.925 94.2013 136.024C94.2013 135.115 94.3661 134.321 94.6956 133.643C95.029 132.965 95.4911 132.438 96.082 132.063C96.6767 131.688 97.368 131.501 98.1559 131.501C98.9437 131.501 99.6331 131.688 100.224 132.063C100.819 132.438 101.281 132.965 101.61 133.643C101.944 134.321 102.11 135.115 102.11 136.024C102.11 136.925 101.944 137.713 101.61 138.387C101.281 139.061 100.819 139.586 100.224 139.961C99.6331 140.336 98.9437 140.524 98.1559 140.524ZM98.1559 139.319C98.7543 139.319 99.2468 139.166 99.6331 138.859C100.019 138.552 100.305 138.149 100.491 137.649C100.677 137.149 100.769 136.607 100.769 136.024C100.769 135.44 100.677 134.897 100.491 134.393C100.305 133.889 100.019 133.482 99.6331 133.171C99.2468 132.861 98.7543 132.705 98.1559 132.705C97.5574 132.705 97.0649 132.861 96.6786 133.171C96.2922 133.482 96.0062 133.889 95.8206 134.393C95.635 134.897 95.5422 135.44 95.5422 136.024C95.5422 136.607 95.635 137.149 95.8206 137.649C96.0062 138.149 96.2922 138.552 96.6786 138.859C97.0649 139.166 97.5574 139.319 98.1559 139.319ZM104.527 137.16L104.505 135.501H104.777L108.595 131.615H110.255L106.186 135.728H106.073L104.527 137.16ZM103.277 140.342V128.705H104.618V140.342H103.277ZM108.823 140.342L105.414 136.024L106.368 135.092L110.527 140.342H108.823ZM111.1 140.342V131.615H112.441V140.342H111.1ZM111.782 130.16C111.521 130.16 111.295 130.071 111.106 129.893C110.92 129.715 110.828 129.501 110.828 129.251C110.828 129.001 110.92 128.787 111.106 128.609C111.295 128.431 111.521 128.342 111.782 128.342C112.044 128.342 112.267 128.431 112.453 128.609C112.642 128.787 112.737 129.001 112.737 129.251C112.737 129.501 112.642 129.715 112.453 129.893C112.267 130.071 112.044 130.16 111.782 130.16ZM117.676 140.524C116.835 140.524 116.11 140.338 115.5 139.967C114.894 139.592 114.426 139.069 114.097 138.399C113.771 137.724 113.608 136.94 113.608 136.046C113.608 135.152 113.771 134.365 114.097 133.683C114.426 132.997 114.885 132.463 115.472 132.08C116.063 131.694 116.752 131.501 117.54 131.501C117.995 131.501 118.443 131.577 118.887 131.728C119.33 131.88 119.733 132.126 120.097 132.467C120.46 132.804 120.75 133.251 120.966 133.808C121.182 134.365 121.29 135.05 121.29 135.865V136.433H114.563V135.274H119.926C119.926 134.781 119.828 134.342 119.631 133.955C119.438 133.569 119.161 133.264 118.801 133.041C118.445 132.817 118.025 132.705 117.54 132.705C117.006 132.705 116.544 132.838 116.154 133.103C115.767 133.365 115.47 133.705 115.262 134.126C115.053 134.546 114.949 134.997 114.949 135.478V136.251C114.949 136.91 115.063 137.469 115.29 137.927C115.521 138.382 115.841 138.728 116.25 138.967C116.659 139.202 117.135 139.319 117.676 139.319C118.029 139.319 118.347 139.27 118.631 139.171C118.919 139.069 119.167 138.918 119.375 138.717C119.584 138.512 119.745 138.258 119.858 137.955L121.154 138.319C121.017 138.758 120.788 139.145 120.466 139.478C120.144 139.808 119.746 140.065 119.273 140.251C118.799 140.433 118.267 140.524 117.676 140.524ZM128.632 133.569L127.427 133.91C127.351 133.709 127.24 133.514 127.092 133.325C126.948 133.132 126.751 132.972 126.501 132.847C126.251 132.722 125.931 132.66 125.541 132.66C125.007 132.66 124.562 132.783 124.205 133.029C123.853 133.272 123.677 133.58 123.677 133.955C123.677 134.289 123.798 134.552 124.041 134.745C124.283 134.938 124.662 135.099 125.177 135.228L126.473 135.546C127.253 135.736 127.834 136.026 128.217 136.416C128.599 136.802 128.791 137.3 128.791 137.91C128.791 138.41 128.647 138.857 128.359 139.251C128.075 139.645 127.677 139.955 127.166 140.183C126.654 140.41 126.06 140.524 125.382 140.524C124.491 140.524 123.755 140.33 123.171 139.944C122.588 139.558 122.219 138.993 122.063 138.251L123.336 137.933C123.457 138.402 123.687 138.755 124.024 138.99C124.365 139.224 124.81 139.342 125.359 139.342C125.984 139.342 126.48 139.209 126.848 138.944C127.219 138.675 127.404 138.353 127.404 137.978C127.404 137.675 127.298 137.421 127.086 137.217C126.874 137.008 126.548 136.853 126.109 136.751L124.654 136.41C123.855 136.221 123.268 135.927 122.893 135.529C122.522 135.128 122.336 134.626 122.336 134.024C122.336 133.531 122.474 133.096 122.751 132.717C123.031 132.338 123.412 132.041 123.893 131.825C124.378 131.609 124.927 131.501 125.541 131.501C126.404 131.501 127.082 131.69 127.575 132.069C128.071 132.448 128.423 132.948 128.632 133.569ZM133.731 140.342V128.705H135.072V133.001H135.186C135.284 132.849 135.42 132.656 135.595 132.421C135.773 132.183 136.026 131.971 136.356 131.785C136.689 131.596 137.14 131.501 137.708 131.501C138.443 131.501 139.091 131.685 139.651 132.052C140.212 132.419 140.65 132.94 140.964 133.615C141.278 134.289 141.436 135.084 141.436 136.001C141.436 136.925 141.278 137.726 140.964 138.404C140.65 139.079 140.214 139.601 139.657 139.972C139.1 140.34 138.458 140.524 137.731 140.524C137.17 140.524 136.721 140.431 136.384 140.245C136.047 140.056 135.788 139.842 135.606 139.603C135.424 139.361 135.284 139.16 135.186 139.001H135.026V140.342H133.731ZM135.049 135.978C135.049 136.637 135.146 137.219 135.339 137.722C135.532 138.222 135.814 138.615 136.186 138.899C136.557 139.179 137.011 139.319 137.549 139.319C138.11 139.319 138.578 139.171 138.953 138.876C139.331 138.577 139.615 138.175 139.805 137.671C139.998 137.164 140.095 136.599 140.095 135.978C140.095 135.365 140 134.811 139.811 134.319C139.625 133.823 139.343 133.431 138.964 133.143C138.589 132.851 138.117 132.705 137.549 132.705C137.004 132.705 136.545 132.844 136.174 133.12C135.803 133.393 135.523 133.776 135.333 134.268C135.144 134.757 135.049 135.327 135.049 135.978ZM143.158 143.615C142.931 143.615 142.728 143.596 142.55 143.558C142.372 143.524 142.249 143.49 142.181 143.455L142.521 142.274C142.847 142.357 143.135 142.387 143.385 142.365C143.635 142.342 143.857 142.23 144.05 142.029C144.247 141.832 144.427 141.512 144.59 141.069L144.84 140.387L141.612 131.615H143.067L145.476 138.569H145.567L147.976 131.615H149.431L145.726 141.615C145.559 142.065 145.353 142.438 145.107 142.734C144.86 143.033 144.574 143.255 144.249 143.399C143.927 143.543 143.563 143.615 143.158 143.615ZM5.02273 166.524C4.29545 166.524 3.65341 166.34 3.09659 165.972C2.53977 165.601 2.10417 165.079 1.78977 164.404C1.47538 163.726 1.31818 162.925 1.31818 162.001C1.31818 161.084 1.47538 160.289 1.78977 159.615C2.10417 158.94 2.54167 158.419 3.10227 158.052C3.66288 157.685 4.31061 157.501 5.04545 157.501C5.61364 157.501 6.0625 157.596 6.39205 157.785C6.72538 157.971 6.97917 158.183 7.15341 158.421C7.33144 158.656 7.4697 158.849 7.56818 159.001H7.68182V154.705H9.02273V166.342H7.72727V165.001H7.56818C7.4697 165.16 7.32955 165.361 7.14773 165.603C6.96591 165.842 6.70644 166.056 6.36932 166.245C6.0322 166.431 5.58333 166.524 5.02273 166.524ZM5.20455 165.319C5.74242 165.319 6.19697 165.179 6.56818 164.899C6.93939 164.615 7.22159 164.222 7.41477 163.722C7.60795 163.219 7.70455 162.637 7.70455 161.978C7.70455 161.327 7.60985 160.757 7.42045 160.268C7.23106 159.776 6.95076 159.393 6.57955 159.12C6.20833 158.844 5.75 158.705 5.20455 158.705C4.63636 158.705 4.16288 158.851 3.78409 159.143C3.40909 159.431 3.12689 159.823 2.9375 160.319C2.75189 160.811 2.65909 161.365 2.65909 161.978C2.65909 162.599 2.75379 163.164 2.94318 163.671C3.13636 164.175 3.42045 164.577 3.79545 164.876C4.17424 165.171 4.64394 165.319 5.20455 165.319ZM14.4439 166.524C13.603 166.524 12.8776 166.338 12.2677 165.967C11.6617 165.592 11.1939 165.069 10.8643 164.399C10.5386 163.724 10.3757 162.94 10.3757 162.046C10.3757 161.152 10.5386 160.365 10.8643 159.683C11.1939 158.997 11.6522 158.463 12.2393 158.08C12.8302 157.694 13.5196 157.501 14.3075 157.501C14.762 157.501 15.2109 157.577 15.6541 157.728C16.0973 157.88 16.5007 158.126 16.8643 158.467C17.228 158.804 17.5177 159.251 17.7336 159.808C17.9495 160.365 18.0575 161.05 18.0575 161.865V162.433H11.3302V161.274H16.6939C16.6939 160.781 16.5954 160.342 16.3984 159.955C16.2052 159.569 15.9287 159.264 15.5689 159.041C15.2128 158.817 14.7923 158.705 14.3075 158.705C13.7734 158.705 13.3113 158.838 12.9211 159.103C12.5348 159.365 12.2374 159.705 12.0291 160.126C11.8208 160.546 11.7166 160.997 11.7166 161.478V162.251C11.7166 162.91 11.8302 163.469 12.0575 163.927C12.2886 164.382 12.6086 164.728 13.0177 164.967C13.4268 165.202 13.9022 165.319 14.4439 165.319C14.7961 165.319 15.1143 165.27 15.3984 165.171C15.6863 165.069 15.9344 164.918 16.1427 164.717C16.3511 164.512 16.512 164.258 16.6257 163.955L17.9211 164.319C17.7848 164.758 17.5556 165.145 17.2336 165.478C16.9117 165.808 16.5139 166.065 16.0405 166.251C15.567 166.433 15.0348 166.524 14.4439 166.524ZM23.1036 157.615V158.751H18.3991V157.615H23.1036ZM19.8082 166.342V156.41C19.8082 155.91 19.9256 155.493 20.1605 155.16C20.3953 154.827 20.7002 154.577 21.0752 154.41C21.4502 154.243 21.8461 154.16 22.2627 154.16C22.5923 154.16 22.8612 154.186 23.0695 154.24C23.2779 154.293 23.4332 154.342 23.5355 154.387L23.1491 155.546C23.0809 155.524 22.9862 155.495 22.865 155.461C22.7476 155.427 22.5923 155.41 22.3991 155.41C21.9559 155.41 21.6358 155.522 21.4389 155.745C21.2457 155.969 21.1491 156.296 21.1491 156.728V166.342H19.8082ZM26.4211 166.546C25.8681 166.546 25.3662 166.442 24.9154 166.234C24.4646 166.022 24.1067 165.717 23.8415 165.319C23.5764 164.918 23.4438 164.433 23.4438 163.865C23.4438 163.365 23.5423 162.959 23.7393 162.649C23.9362 162.334 24.1995 162.088 24.529 161.91C24.8586 161.732 25.2222 161.599 25.6199 161.512C26.0215 161.421 26.4249 161.349 26.8302 161.296C27.3605 161.228 27.7904 161.177 28.1199 161.143C28.4533 161.105 28.6957 161.043 28.8472 160.955C29.0025 160.868 29.0802 160.717 29.0802 160.501V160.455C29.0802 159.895 28.9268 159.459 28.6199 159.149C28.3169 158.838 27.8567 158.683 27.2393 158.683C26.5991 158.683 26.0972 158.823 25.7336 159.103C25.3699 159.383 25.1143 159.683 24.9665 160.001L23.6938 159.546C23.9211 159.016 24.2241 158.603 24.6029 158.308C24.9855 158.008 25.4021 157.8 25.8529 157.683C26.3074 157.561 26.7544 157.501 27.1938 157.501C27.4741 157.501 27.7961 157.535 28.1597 157.603C28.5271 157.668 28.8813 157.802 29.2222 158.007C29.5669 158.211 29.8529 158.52 30.0802 158.933C30.3074 159.346 30.4211 159.899 30.4211 160.592V166.342H29.0802V165.16H29.012C28.9211 165.349 28.7696 165.552 28.5574 165.768C28.3453 165.984 28.0631 166.168 27.7109 166.319C27.3586 166.471 26.9287 166.546 26.4211 166.546ZM26.6256 165.342C27.1559 165.342 27.6029 165.238 27.9665 165.029C28.334 164.821 28.6105 164.552 28.7961 164.222C28.9855 163.893 29.0802 163.546 29.0802 163.183V161.955C29.0234 162.024 28.8984 162.086 28.7052 162.143C28.5158 162.196 28.2961 162.243 28.0461 162.285C27.7999 162.323 27.5593 162.357 27.3245 162.387C27.0934 162.414 26.9059 162.436 26.762 162.455C26.4135 162.501 26.0877 162.575 25.7847 162.677C25.4855 162.776 25.243 162.925 25.0574 163.126C24.8756 163.323 24.7847 163.592 24.7847 163.933C24.7847 164.399 24.9571 164.751 25.3018 164.99C25.6502 165.224 26.0915 165.342 26.6256 165.342ZM37.4885 162.774V157.615H38.8294V166.342H37.4885V164.865H37.3976C37.1931 165.308 36.8749 165.685 36.4431 165.995C36.0112 166.302 35.4658 166.455 34.8067 166.455C34.2612 166.455 33.7764 166.336 33.3522 166.097C32.9279 165.855 32.5946 165.491 32.3522 165.007C32.1097 164.518 31.9885 163.902 31.9885 163.16V157.615H33.3294V163.069C33.3294 163.705 33.5075 164.213 33.8635 164.592C34.2234 164.971 34.6817 165.16 35.2385 165.16C35.5719 165.16 35.9109 165.075 36.2556 164.904C36.6041 164.734 36.8957 164.472 37.1306 164.12C37.3692 163.768 37.4885 163.319 37.4885 162.774ZM41.7463 154.705V166.342H40.4054V154.705H41.7463ZM47.1177 157.615V158.751H42.595V157.615H47.1177ZM43.9132 155.524H45.2541V163.842C45.2541 164.221 45.309 164.505 45.4189 164.694C45.5325 164.88 45.6764 165.005 45.8507 165.069C46.0287 165.13 46.2162 165.16 46.4132 165.16C46.5609 165.16 46.6821 165.152 46.7768 165.137C46.8715 165.118 46.9473 165.103 47.0041 165.092L47.2768 166.296C47.1859 166.33 47.059 166.365 46.8961 166.399C46.7333 166.436 46.5268 166.455 46.2768 166.455C45.898 166.455 45.5268 166.374 45.1632 166.211C44.8033 166.048 44.5041 165.8 44.2655 165.467C44.0306 165.133 43.9132 164.713 43.9132 164.205V155.524Z" fill="black"/>
<circle cx="225" cy="64.8418" r="5.5" fill="url(#paint1_linear_3_3006)"/>
<defs>
<linearGradient id="paint0_linear_3_3006" x1="21.4317" y1="11.8418" x2="92.7019" y2="44.8601" gradientUnits="userSpaceOnUse">
<stop stop-color="#00888F"/>
<stop offset="1" stop-color="#340031"/>
</linearGradient>
<linearGradient id="paint1_linear_3_3006" x1="223.9" y1="59.3418" x2="227.567" y2="70.3418" gradientUnits="userSpaceOnUse">
<stop offset="0.077397" stop-color="#00888F"/>
<stop offset="1" stop-color="#770370"/>
</linearGradient>
</defs>
</svg>
